<?xml version="1.0" encoding="UTF-8" standalone="no"?>
<!DOCTYPE svg PUBLIC "-//W3C//DTD SVG 1.1//EN"
 "http://www.w3.org/Graphics/SVG/1.1/DTD/svg11.dtd">
<!-- Generated by graphviz version 2.38.0 (20140413.2041)
 -->
<!-- Title: G Pages: 1 -->
<svg width="1178pt" height="1836pt"
 viewBox="0.00 0.00 1178.38 1836.00" xmlns="http://www.w3.org/2000/svg" xmlns:xlink="http://www.w3.org/1999/xlink">
<g id="graph0" class="graph" transform="scale(1 1) rotate(0) translate(4 1832)">
<title>G</title>
<polygon fill="white" stroke="none" points="-4,4 -4,-1832 1174.38,-1832 1174.38,4 -4,4"/>
<g id="clust1" class="cluster"><title>cluster_Global</title>
<path fill="none" stroke="gray" d="M20,-206C20,-206 1150.38,-206 1150.38,-206 1156.38,-206 1162.38,-212 1162.38,-218 1162.38,-218 1162.38,-1808 1162.38,-1808 1162.38,-1814 1156.38,-1820 1150.38,-1820 1150.38,-1820 20,-1820 20,-1820 14,-1820 8,-1814 8,-1808 8,-1808 8,-218 8,-218 8,-212 14,-206 20,-206"/>
<text text-anchor="middle" x="585.191" y="-1807.2" font-family="Times New Roman,serif" font-size="11.00" fill="gray">Global</text>
</g>
<g id="clust3" class="cluster"><title>cluster_\interfaces</title>
<path fill="none" stroke="gray" d="M28,-1076C28,-1076 601,-1076 601,-1076 607,-1076 613,-1082 613,-1088 613,-1088 613,-1488 613,-1488 613,-1494 607,-1500 601,-1500 601,-1500 28,-1500 28,-1500 22,-1500 16,-1494 16,-1488 16,-1488 16,-1088 16,-1088 16,-1082 22,-1076 28,-1076"/>
<text text-anchor="middle" x="314.5" y="-1487.2" font-family="Times New Roman,serif" font-size="11.00" fill="gray">interfaces</text>
</g>
<g id="clust4" class="cluster"><title>cluster_\interfaces\http</title>
<path fill="none" stroke="gray" d="M36,-1238C36,-1238 593,-1238 593,-1238 599,-1238 605,-1244 605,-1250 605,-1250 605,-1460 605,-1460 605,-1466 599,-1472 593,-1472 593,-1472 36,-1472 36,-1472 30,-1472 24,-1466 24,-1460 24,-1460 24,-1250 24,-1250 24,-1244 30,-1238 36,-1238"/>
<text text-anchor="middle" x="314.5" y="-1459.2" font-family="Times New Roman,serif" font-size="11.00" fill="gray">http</text>
</g>
<g id="clust2" class="cluster"><title>cluster_\abstracts</title>
<path fill="none" stroke="gray" d="M706.691,-914C706.691,-914 836.691,-914 836.691,-914 842.691,-914 848.691,-920 848.691,-926 848.691,-926 848.691,-1244 848.691,-1244 848.691,-1250 842.691,-1256 836.691,-1256 836.691,-1256 706.691,-1256 706.691,-1256 700.691,-1256 694.691,-1250 694.691,-1244 694.691,-1244 694.691,-926 694.691,-926 694.691,-920 700.691,-914 706.691,-914"/>
<text text-anchor="middle" x="771.691" y="-1243.2" font-family="Times New Roman,serif" font-size="11.00" fill="gray">abstracts</text>
</g>
<g id="clust5" class="cluster"><title>cluster_\controllers</title>
<path fill="none" stroke="gray" d="M983.882,-1666C983.882,-1666 1100.88,-1666 1100.88,-1666 1106.88,-1666 1112.88,-1672 1112.88,-1678 1112.88,-1678 1112.88,-1780 1112.88,-1780 1112.88,-1786 1106.88,-1792 1100.88,-1792 1100.88,-1792 983.882,-1792 983.882,-1792 977.882,-1792 971.882,-1786 971.882,-1780 971.882,-1780 971.882,-1678 971.882,-1678 971.882,-1672 977.882,-1666 983.882,-1666"/>
<text text-anchor="middle" x="1042.38" y="-1779.2" font-family="Times New Roman,serif" font-size="11.00" fill="gray">controllers</text>
</g>
<g id="clust7" class="cluster"><title>cluster_\tests</title>
<path fill="none" stroke="gray" d="M1017.88,-1586C1017.88,-1586 1066.88,-1586 1066.88,-1586 1072.88,-1586 1078.88,-1592 1078.88,-1598 1078.88,-1598 1078.88,-1646 1078.88,-1646 1078.88,-1652 1072.88,-1658 1066.88,-1658 1066.88,-1658 1017.88,-1658 1017.88,-1658 1011.88,-1658 1005.88,-1652 1005.88,-1646 1005.88,-1646 1005.88,-1598 1005.88,-1598 1005.88,-1592 1011.88,-1586 1017.88,-1586"/>
<text text-anchor="middle" x="1042.38" y="-1645.2" font-family="Times New Roman,serif" font-size="11.00" fill="gray">tests</text>
</g>
<g id="clust6" class="cluster"><title>cluster_\traits</title>
<path fill="none" stroke="gray" d="M980.882,-1398C980.882,-1398 1103.88,-1398 1103.88,-1398 1109.88,-1398 1115.88,-1404 1115.88,-1410 1115.88,-1410 1115.88,-1566 1115.88,-1566 1115.88,-1572 1109.88,-1578 1103.88,-1578 1103.88,-1578 980.882,-1578 980.882,-1578 974.882,-1578 968.882,-1572 968.882,-1566 968.882,-1566 968.882,-1410 968.882,-1410 968.882,-1404 974.882,-1398 980.882,-1398"/>
<text text-anchor="middle" x="1042.38" y="-1565.2" font-family="Times New Roman,serif" font-size="11.00" fill="gray">traits</text>
</g>
<g id="clust8" class="cluster"><title>cluster_\classes</title>
<path fill="none" stroke="gray" d="M942.382,-214C942.382,-214 1142.38,-214 1142.38,-214 1148.38,-214 1154.38,-220 1154.38,-226 1154.38,-226 1154.38,-1378 1154.38,-1378 1154.38,-1384 1148.38,-1390 1142.38,-1390 1142.38,-1390 942.382,-1390 942.382,-1390 936.382,-1390 930.382,-1384 930.382,-1378 930.382,-1378 930.382,-226 930.382,-226 930.382,-220 936.382,-214 942.382,-214"/>
<text text-anchor="middle" x="1042.38" y="-1377.2" font-family="Times New Roman,serif" font-size="11.00" fill="gray">classes</text>
</g>
<g id="clust9" class="cluster"><title>cluster_\classes\console</title>
<path fill="none" stroke="gray" d="M1004.38,-672C1004.38,-672 1080.38,-672 1080.38,-672 1086.38,-672 1092.38,-678 1092.38,-684 1092.38,-684 1092.38,-732 1092.38,-732 1092.38,-738 1086.38,-744 1080.38,-744 1080.38,-744 1004.38,-744 1004.38,-744 998.382,-744 992.382,-738 992.382,-732 992.382,-732 992.382,-684 992.382,-684 992.382,-678 998.382,-672 1004.38,-672"/>
<text text-anchor="middle" x="1042.38" y="-731.2" font-family="Times New Roman,serif" font-size="11.00" fill="gray">console</text>
</g>
<g id="clust12" class="cluster"><title>cluster_\classes\entitiesManager</title>
<path fill="none" stroke="gray" d="M950.382,-484C950.382,-484 1134.38,-484 1134.38,-484 1140.38,-484 1146.38,-490 1146.38,-496 1146.38,-496 1146.38,-652 1146.38,-652 1146.38,-658 1140.38,-664 1134.38,-664 1134.38,-664 950.382,-664 950.382,-664 944.382,-664 938.382,-658 938.382,-652 938.382,-652 938.382,-496 938.382,-496 938.382,-490 944.382,-484 950.382,-484"/>
<text text-anchor="middle" x="1042.38" y="-651.2" font-family="Times New Roman,serif" font-size="11.00" fill="gray">entitiesManager</text>
</g>
<g id="clust11" class="cluster"><title>cluster_\classes\entitiesCollection</title>
<path fill="none" stroke="gray" d="M960.382,-994C960.382,-994 1124.38,-994 1124.38,-994 1130.38,-994 1136.38,-1000 1136.38,-1006 1136.38,-1006 1136.38,-1216 1136.38,-1216 1136.38,-1222 1130.38,-1228 1124.38,-1228 1124.38,-1228 960.382,-1228 960.382,-1228 954.382,-1228 948.382,-1222 948.382,-1216 948.382,-1216 948.382,-1006 948.382,-1006 948.382,-1000 954.382,-994 960.382,-994"/>
<text text-anchor="middle" x="1042.38" y="-1215.2" font-family="Times New Roman,serif" font-size="11.00" fill="gray">entitiesCollection</text>
</g>
<g id="clust13" class="cluster"><title>cluster_\classes\logger</title>
<path fill="none" stroke="gray" d="M1004.38,-1236C1004.38,-1236 1080.38,-1236 1080.38,-1236 1086.38,-1236 1092.38,-1242 1092.38,-1248 1092.38,-1248 1092.38,-1350 1092.38,-1350 1092.38,-1356 1086.38,-1362 1080.38,-1362 1080.38,-1362 1004.38,-1362 1004.38,-1362 998.382,-1362 992.382,-1356 992.382,-1350 992.382,-1350 992.382,-1248 992.382,-1248 992.382,-1242 998.382,-1236 1004.38,-1236"/>
<text text-anchor="middle" x="1042.38" y="-1349.2" font-family="Times New Roman,serif" font-size="11.00" fill="gray">logger</text>
</g>
<g id="clust10" class="cluster"><title>cluster_\classes\entities</title>
<path fill="none" stroke="gray" d="M994.382,-752C994.382,-752 1090.38,-752 1090.38,-752 1096.38,-752 1102.38,-758 1102.38,-764 1102.38,-764 1102.38,-974 1102.38,-974 1102.38,-980 1096.38,-986 1090.38,-986 1090.38,-986 994.382,-986 994.382,-986 988.382,-986 982.382,-980 982.382,-974 982.382,-974 982.382,-764 982.382,-764 982.382,-758 988.382,-752 994.382,-752"/>
<text text-anchor="middle" x="1042.38" y="-973.2" font-family="Times New Roman,serif" font-size="11.00" fill="gray">entities</text>
</g>
<!-- \\abstracts\\Entity -->
<g id="node1" class="node"><title>\\abstracts\\Entity</title>
<polygon fill="none" stroke="black" points="813.691,-958 729.691,-958 729.691,-922 813.691,-922 813.691,-958"/>
<text text-anchor="start" x="737.691" y="-943.2" font-family="Courier,monospace" font-size="11.00">«abstract»</text>
<text text-anchor="start" x="751.191" y="-931.2" font-family="Courier,monospace" font-size="11.00">Entity</text>
</g>
<!-- \\abstracts\\API -->
<g id="node2" class="node"><title>\\abstracts\\API</title>
<polygon fill="none" stroke="black" points="813.691,-1174 729.691,-1174 729.691,-1138 813.691,-1138 813.691,-1174"/>
<text text-anchor="start" x="737.691" y="-1159.2" font-family="Courier,monospace" font-size="11.00">«abstract»</text>
<text text-anchor="start" x="761.191" y="-1147.2" font-family="Courier,monospace" font-size="11.00">API</text>
</g>
<!-- \\abstracts\\AbstractLogger -->
<g id="node3" class="node"><title>\\abstracts\\AbstractLogger</title>
<polygon fill="none" stroke="black" points="827.191,-1120 716.191,-1120 716.191,-1084 827.191,-1084 827.191,-1120"/>
<text text-anchor="start" x="737.691" y="-1105.2" font-family="Courier,monospace" font-size="11.00">«abstract»</text>
<text text-anchor="start" x="724.191" y="-1093.2" font-family="Courier,monospace" font-size="11.00">AbstractLogger</text>
</g>
<!-- \\interfaces\\LoggerInterface -->
<g id="node16" class="node"><title>\\interfaces\\LoggerInterface</title>
<polygon fill="none" stroke="black" points="573.5,-1120 455.5,-1120 455.5,-1084 573.5,-1084 573.5,-1120"/>
<text text-anchor="middle" x="514.5" y="-1099.2" font-family="Courier,monospace" font-size="11.00">LoggerInterface</text>
</g>
<!-- \\abstracts\\AbstractLogger&#45;&gt;\\interfaces\\LoggerInterface -->
<g id="edge2" class="edge"><title>\\abstracts\\AbstractLogger&#45;&gt;\\interfaces\\LoggerInterface</title>
<path fill="none" stroke="black" stroke-dasharray="1,5" d="M715.946,-1102C677.251,-1102 625.114,-1102 583.712,-1102"/>
<polygon fill="none" stroke="black" points="583.704,-1098.5 573.704,-1102 583.704,-1105.5 583.704,-1098.5"/>
</g>
<!-- \\abstracts\\Manager -->
<g id="node4" class="node"><title>\\abstracts\\Manager</title>
<polygon fill="none" stroke="black" points="813.691,-1066 729.691,-1066 729.691,-1030 813.691,-1030 813.691,-1066"/>
<text text-anchor="start" x="737.691" y="-1051.2" font-family="Courier,monospace" font-size="11.00">«abstract»</text>
<text text-anchor="start" x="747.691" y="-1039.2" font-family="Courier,monospace" font-size="11.00">Manager</text>
</g>
<!-- \\abstracts\\Collection -->
<g id="node5" class="node"><title>\\abstracts\\Collection</title>
<polygon fill="none" stroke="black" points="813.691,-1012 729.691,-1012 729.691,-976 813.691,-976 813.691,-1012"/>
<text text-anchor="start" x="737.691" y="-997.2" font-family="Courier,monospace" font-size="11.00">«abstract»</text>
<text text-anchor="start" x="737.691" y="-985.2" font-family="Courier,monospace" font-size="11.00">Collection</text>
</g>
<!-- \\Iterator -->
<g id="node42" class="node"><title>\\Iterator</title>
<ellipse fill="none" stroke="black" cx="514.5" cy="-180" rx="39.7935" ry="18"/>
<text text-anchor="middle" x="514.5" y="-176.3" font-family="Times New Roman,serif" font-size="14.00" fill="gray">\Iterator</text>
</g>
<!-- \\abstracts\\Collection&#45;&gt;\\Iterator -->
<g id="edge3" class="edge"><title>\\abstracts\\Collection&#45;&gt;\\Iterator</title>
<path fill="none" stroke="black" stroke-dasharray="1,5" d="M729.549,-993.03C708.618,-990.339 684.409,-983.476 669,-967 562.4,-853.019 524.78,-334.992 517.081,-208.112"/>
<polygon fill="none" stroke="black" points="520.57,-207.81 516.484,-198.035 513.582,-208.225 520.57,-207.81"/>
</g>
<!-- \\ArrayAccess -->
<g id="node43" class="node"><title>\\ArrayAccess</title>
<ellipse fill="none" stroke="black" cx="514.5" cy="-126" rx="60.3893" ry="18"/>
<text text-anchor="middle" x="514.5" y="-122.3" font-family="Times New Roman,serif" font-size="14.00" fill="gray">\ArrayAccess</text>
</g>
<!-- \\abstracts\\Collection&#45;&gt;\\ArrayAccess -->
<g id="edge4" class="edge"><title>\\abstracts\\Collection&#45;&gt;\\ArrayAccess</title>
<path fill="none" stroke="black" stroke-dasharray="1,5" d="M729.475,-993.859C708.119,-991.46 683.534,-984.61 669,-967 553.588,-827.158 727.667,-293.453 613,-153 605.32,-143.593 594.676,-137.298 583.23,-133.12"/>
<polygon fill="none" stroke="black" points="584.063,-129.713 573.474,-130.086 581.984,-136.398 584.063,-129.713"/>
</g>
<!-- \\Countable -->
<g id="node44" class="node"><title>\\Countable</title>
<ellipse fill="none" stroke="black" cx="514.5" cy="-72" rx="50.0912" ry="18"/>
<text text-anchor="middle" x="514.5" y="-68.3" font-family="Times New Roman,serif" font-size="14.00" fill="gray">\Countable</text>
</g>
<!-- \\abstracts\\Collection&#45;&gt;\\Countable -->
<g id="edge5" class="edge"><title>\\abstracts\\Collection&#45;&gt;\\Countable</title>
<path fill="none" stroke="black" stroke-dasharray="1,5" d="M729.446,-993.884C708.081,-991.492 683.496,-984.641 669,-967 546.285,-817.662 734.92,-248.988 613,-99 603.413,-87.2064 589.168,-80.3007 574.508,-76.3261"/>
<polygon fill="none" stroke="black" points="574.872,-72.8197 564.346,-74.0186 573.322,-79.6459 574.872,-72.8197"/>
</g>
<!-- \\SeekableIterator -->
<g id="node45" class="node"><title>\\SeekableIterator</title>
<ellipse fill="none" stroke="black" cx="514.5" cy="-18" rx="71.4873" ry="18"/>
<text text-anchor="middle" x="514.5" y="-14.3" font-family="Times New Roman,serif" font-size="14.00" fill="gray">\SeekableIterator</text>
</g>
<!-- \\abstracts\\Collection&#45;&gt;\\SeekableIterator -->
<g id="edge6" class="edge"><title>\\abstracts\\Collection&#45;&gt;\\SeekableIterator</title>
<path fill="none" stroke="black" stroke-dasharray="1,5" d="M729.676,-993.934C708.244,-991.574 683.521,-984.739 669,-967 538.98,-808.164 742.174,-204.525 613,-45 607.074,-37.6822 599.355,-32.2453 590.853,-28.2223"/>
<polygon fill="none" stroke="black" points="591.951,-24.891 581.368,-24.3898 589.328,-31.3813 591.951,-24.891"/>
</g>
<!-- \\abstracts\\AbstractController -->
<g id="node6" class="node"><title>\\abstracts\\AbstractController</title>
<polygon fill="none" stroke="black" points="840.691,-1228 702.691,-1228 702.691,-1192 840.691,-1192 840.691,-1228"/>
<text text-anchor="start" x="737.691" y="-1213.2" font-family="Courier,monospace" font-size="11.00">«abstract»</text>
<text text-anchor="start" x="710.691" y="-1201.2" font-family="Courier,monospace" font-size="11.00">AbstractController</text>
</g>
<!-- \\interfaces\\http\\ServerRequestInterface -->
<g id="node7" class="node"><title>\\interfaces\\http\\ServerRequestInterface</title>
<polygon fill="none" stroke="black" points="597,-1444 432,-1444 432,-1408 597,-1408 597,-1444"/>
<text text-anchor="middle" x="514.5" y="-1423.2" font-family="Courier,monospace" font-size="11.00">ServerRequestInterface</text>
</g>
<!-- \\interfaces\\http\\RequestInterface -->
<g id="node8" class="node"><title>\\interfaces\\http\\RequestInterface</title>
<polygon fill="none" stroke="black" points="357,-1444 232,-1444 232,-1408 357,-1408 357,-1444"/>
<text text-anchor="middle" x="294.5" y="-1423.2" font-family="Courier,monospace" font-size="11.00">RequestInterface</text>
</g>
<!-- \\interfaces\\http\\ServerRequestInterface&#45;&gt;\\interfaces\\http\\RequestInterface -->
<g id="edge23" class="edge"><title>\\interfaces\\http\\ServerRequestInterface&#45;&gt;\\interfaces\\http\\RequestInterface</title>
<path fill="none" stroke="black" d="M431.705,-1426C410.62,-1426 388.085,-1426 367.537,-1426"/>
<polygon fill="none" stroke="black" points="367.31,-1422.5 357.31,-1426 367.31,-1429.5 367.31,-1422.5"/>
</g>
<!-- \\interfaces\\http\\MessageInterface -->
<g id="node13" class="node"><title>\\interfaces\\http\\MessageInterface</title>
<polygon fill="none" stroke="black" points="157,-1417 32,-1417 32,-1381 157,-1381 157,-1417"/>
<text text-anchor="middle" x="94.5" y="-1396.2" font-family="Courier,monospace" font-size="11.00">MessageInterface</text>
</g>
<!-- \\interfaces\\http\\RequestInterface&#45;&gt;\\interfaces\\http\\MessageInterface -->
<g id="edge24" class="edge"><title>\\interfaces\\http\\RequestInterface&#45;&gt;\\interfaces\\http\\MessageInterface</title>
<path fill="none" stroke="black" d="M231.937,-1417.61C211.357,-1414.8 188.245,-1411.65 166.975,-1408.75"/>
<polygon fill="none" stroke="black" points="167.406,-1405.27 157.025,-1407.39 166.46,-1412.21 167.406,-1405.27"/>
</g>
<!-- \\interfaces\\http\\ResponseInterface -->
<g id="node9" class="node"><title>\\interfaces\\http\\ResponseInterface</title>
<polygon fill="none" stroke="black" points="360,-1390 229,-1390 229,-1354 360,-1354 360,-1390"/>
<text text-anchor="middle" x="294.5" y="-1369.2" font-family="Courier,monospace" font-size="11.00">ResponseInterface</text>
</g>
<!-- \\interfaces\\http\\ResponseInterface&#45;&gt;\\interfaces\\http\\MessageInterface -->
<g id="edge25" class="edge"><title>\\interfaces\\http\\ResponseInterface&#45;&gt;\\interfaces\\http\\MessageInterface</title>
<path fill="none" stroke="black" d="M228.941,-1380.8C209.247,-1383.49 187.475,-1386.46 167.33,-1389.2"/>
<polygon fill="none" stroke="black" points="166.712,-1385.76 157.277,-1390.58 167.658,-1392.69 166.712,-1385.76"/>
</g>
<!-- \\interfaces\\http\\UploadedFileInterface -->
<g id="node10" class="node"><title>\\interfaces\\http\\UploadedFileInterface</title>
<polygon fill="none" stroke="black" points="593.5,-1390 435.5,-1390 435.5,-1354 593.5,-1354 593.5,-1390"/>
<text text-anchor="middle" x="514.5" y="-1369.2" font-family="Courier,monospace" font-size="11.00">UploadedFileInterface</text>
</g>
<!-- \\interfaces\\http\\StreamInterface -->
<g id="node11" class="node"><title>\\interfaces\\http\\StreamInterface</title>
<polygon fill="none" stroke="black" points="573.5,-1336 455.5,-1336 455.5,-1300 573.5,-1300 573.5,-1336"/>
<text text-anchor="middle" x="514.5" y="-1315.2" font-family="Courier,monospace" font-size="11.00">StreamInterface</text>
</g>
<!-- \\interfaces\\http\\UriInterface -->
<g id="node12" class="node"><title>\\interfaces\\http\\UriInterface</title>
<polygon fill="none" stroke="black" points="563.5,-1282 465.5,-1282 465.5,-1246 563.5,-1246 563.5,-1282"/>
<text text-anchor="middle" x="514.5" y="-1261.2" font-family="Courier,monospace" font-size="11.00">UriInterface</text>
</g>
<!-- \\interfaces\\ServiceInterface -->
<g id="node14" class="node"><title>\\interfaces\\ServiceInterface</title>
<polygon fill="none" stroke="black" points="577,-1228 452,-1228 452,-1192 577,-1192 577,-1228"/>
<text text-anchor="middle" x="514.5" y="-1207.2" font-family="Courier,monospace" font-size="11.00">ServiceInterface</text>
</g>
<!-- \\interfaces\\FileManagerInterface -->
<g id="node15" class="node"><title>\\interfaces\\FileManagerInterface</title>
<polygon fill="none" stroke="black" points="590.5,-1174 438.5,-1174 438.5,-1138 590.5,-1138 590.5,-1174"/>
<text text-anchor="middle" x="514.5" y="-1153.2" font-family="Courier,monospace" font-size="11.00">FileManagerInterface</text>
</g>
<!-- \\controllers\\UserController -->
<g id="node17" class="node"><title>\\controllers\\UserController</title>
<polygon fill="none" stroke="black" points="1097.88,-1764 986.882,-1764 986.882,-1728 1097.88,-1728 1097.88,-1764"/>
<text text-anchor="middle" x="1042.38" y="-1743.2" font-family="Courier,monospace" font-size="11.00">UserController</text>
</g>
<!-- \\controllers\\UserController&#45;&gt;\\abstracts\\AbstractController -->
<g id="edge1" class="edge"><title>\\controllers\\UserController&#45;&gt;\\abstracts\\AbstractController</title>
<path fill="none" stroke="black" d="M986.635,-1743.74C966.751,-1740.3 945.483,-1733.2 930.382,-1719 787.524,-1584.71 773.125,-1323.92 772.401,-1238.11"/>
<polygon fill="none" stroke="black" points="775.901,-1238.08 772.374,-1228.09 768.901,-1238.1 775.901,-1238.08"/>
</g>
<!-- \\controllers\\KibanaController -->
<g id="node18" class="node"><title>\\controllers\\KibanaController</title>
<polygon fill="none" stroke="black" points="1104.88,-1710 979.882,-1710 979.882,-1674 1104.88,-1674 1104.88,-1710"/>
<text text-anchor="middle" x="1042.38" y="-1689.2" font-family="Courier,monospace" font-size="11.00">KibanaController</text>
</g>
<!-- \\controllers\\KibanaController&#45;&gt;\\abstracts\\AbstractController -->
<g id="edge7" class="edge"><title>\\controllers\\KibanaController&#45;&gt;\\abstracts\\AbstractController</title>
<path fill="none" stroke="black" d="M979.637,-1686.24C961.942,-1681.91 943.825,-1674.51 930.382,-1662 803.424,-1543.83 778.665,-1317.96 773.849,-1238.5"/>
<polygon fill="none" stroke="black" points="777.332,-1238.09 773.294,-1228.29 770.342,-1238.47 777.332,-1238.09"/>
</g>
<!-- \\traits\\PrettyOutputTrait -->
<g id="node19" class="node"><title>\\traits\\PrettyOutputTrait</title>
<polygon fill="none" stroke="black" points="1107.88,-1550 976.882,-1550 976.882,-1514 1107.88,-1514 1107.88,-1550"/>
<text text-anchor="middle" x="1042.38" y="-1529.2" font-family="Courier,monospace" font-size="11.00">PrettyOutputTrait</text>
</g>
<!-- \\traits\\EchoTrait -->
<g id="node20" class="node"><title>\\traits\\EchoTrait</title>
<polygon fill="none" stroke="black" points="1080.88,-1496 1003.88,-1496 1003.88,-1460 1080.88,-1460 1080.88,-1496"/>
<text text-anchor="middle" x="1042.38" y="-1475.2" font-family="Courier,monospace" font-size="11.00">EchoTrait</text>
</g>
<!-- \\traits\\ShortcutsTrait -->
<g id="node21" class="node"><title>\\traits\\ShortcutsTrait</title>
<polygon fill="none" stroke="black" points="1097.88,-1442 986.882,-1442 986.882,-1406 1097.88,-1406 1097.88,-1442"/>
<text text-anchor="middle" x="1042.38" y="-1421.2" font-family="Courier,monospace" font-size="11.00">ShortcutsTrait</text>
</g>
<!-- \\tests\\Traits -->
<g id="node22" class="node"><title>\\tests\\Traits</title>
<polygon fill="none" stroke="black" points="1070.88,-1630 1013.88,-1630 1013.88,-1594 1070.88,-1594 1070.88,-1630"/>
<text text-anchor="middle" x="1042.38" y="-1609.2" font-family="Courier,monospace" font-size="11.00">Traits</text>
</g>
<!-- \\classes\\console\\Deployment -->
<g id="node23" class="node"><title>\\classes\\console\\Deployment</title>
<polygon fill="none" stroke="black" points="1084.38,-716 1000.38,-716 1000.38,-680 1084.38,-680 1084.38,-716"/>
<text text-anchor="middle" x="1042.38" y="-695.2" font-family="Courier,monospace" font-size="11.00">Deployment</text>
</g>
<!-- \\classes\\console\\Console -->
<g id="node47" class="node"><title>\\classes\\console\\Console</title>
<ellipse fill="none" stroke="black" cx="771.691" cy="-180" rx="102.882" ry="18"/>
<text text-anchor="middle" x="771.691" y="-176.3" font-family="Times New Roman,serif" font-size="14.00" fill="gray">\classes\console\Console</text>
</g>
<!-- \\classes\\console\\Deployment&#45;&gt;\\classes\\console\\Console -->
<g id="edge9" class="edge"><title>\\classes\\console\\Deployment&#45;&gt;\\classes\\console\\Console</title>
<path fill="none" stroke="black" d="M1000.3,-696.289C977.067,-693.24 949.028,-685.761 930.382,-668 794.646,-538.703 775.516,-291.992 773.002,-208.461"/>
<polygon fill="none" stroke="black" points="776.495,-208.134 772.755,-198.222 769.497,-208.304 776.495,-208.134"/>
</g>
<!-- \\classes\\entities\\ChatRoom -->
<g id="node24" class="node"><title>\\classes\\entities\\ChatRoom</title>
<polygon fill="none" stroke="black" points="1077.88,-958 1006.88,-958 1006.88,-922 1077.88,-922 1077.88,-958"/>
<text text-anchor="middle" x="1042.38" y="-937.2" font-family="Courier,monospace" font-size="11.00">ChatRoom</text>
</g>
<!-- \\classes\\entities\\ChatRoom&#45;&gt;\\abstracts\\Entity -->
<g id="edge10" class="edge"><title>\\classes\\entities\\ChatRoom&#45;&gt;\\abstracts\\Entity</title>
<path fill="none" stroke="black" d="M1006.81,-940C960.431,-940 877.721,-940 824.053,-940"/>
<polygon fill="none" stroke="black" points="823.727,-936.5 813.727,-940 823.727,-943.5 823.727,-936.5"/>
</g>
<!-- \\classes\\entities\\ChatRoomBan -->
<g id="node25" class="node"><title>\\classes\\entities\\ChatRoomBan</title>
<polygon fill="none" stroke="black" points="1087.88,-904 996.882,-904 996.882,-868 1087.88,-868 1087.88,-904"/>
<text text-anchor="middle" x="1042.38" y="-883.2" font-family="Courier,monospace" font-size="11.00">ChatRoomBan</text>
</g>
<!-- \\classes\\entities\\ChatRoomBan&#45;&gt;\\abstracts\\Entity -->
<g id="edge11" class="edge"><title>\\classes\\entities\\ChatRoomBan&#45;&gt;\\abstracts\\Entity</title>
<path fill="none" stroke="black" d="M996.711,-894.978C949.105,-904.545 873.851,-919.669 823.886,-929.711"/>
<polygon fill="none" stroke="black" points="823.051,-926.309 813.937,-931.711 824.43,-933.172 823.051,-926.309"/>
</g>
<!-- \\classes\\entities\\UserRight -->
<g id="node26" class="node"><title>\\classes\\entities\\UserRight</title>
<polygon fill="none" stroke="black" points="1080.88,-850 1003.88,-850 1003.88,-814 1080.88,-814 1080.88,-850"/>
<text text-anchor="middle" x="1042.38" y="-829.2" font-family="Courier,monospace" font-size="11.00">UserRight</text>
</g>
<!-- \\classes\\entities\\UserRight&#45;&gt;\\abstracts\\Entity -->
<g id="edge12" class="edge"><title>\\classes\\entities\\UserRight&#45;&gt;\\abstracts\\Entity</title>
<path fill="none" stroke="black" d="M1003.72,-838.854C981.921,-843.389 954.171,-850.139 930.382,-859 888.119,-874.742 842.572,-899.002 811.348,-916.87"/>
<polygon fill="none" stroke="black" points="809.445,-913.928 802.537,-921.961 812.947,-919.989 809.445,-913.928"/>
</g>
<!-- \\classes\\entities\\UserStatistic -->
<g id="node27" class="node"><title>\\classes\\entities\\UserStatistic</title>
<polygon fill="none" stroke="black" points="1094.38,-796 990.382,-796 990.382,-760 1094.38,-760 1094.38,-796"/>
<text text-anchor="middle" x="1042.38" y="-775.2" font-family="Courier,monospace" font-size="11.00">UserStatistic</text>
</g>
<!-- \\classes\\entities\\UserStatistic&#45;&gt;\\abstracts\\Entity -->
<g id="edge13" class="edge"><title>\\classes\\entities\\UserStatistic&#45;&gt;\\abstracts\\Entity</title>
<path fill="none" stroke="black" d="M990.151,-785.25C970.711,-789.319 948.828,-795.553 930.382,-805 875.907,-832.899 824.312,-883.192 795.749,-913.89"/>
<polygon fill="none" stroke="black" points="792.838,-911.886 788.658,-921.621 797.997,-916.618 792.838,-911.886"/>
</g>
<!-- \\classes\\entitiesCollection\\ChatRoomBanCollection -->
<g id="node28" class="node"><title>\\classes\\entitiesCollection\\ChatRoomBanCollection</title>
<polygon fill="none" stroke="black" points="1121.38,-1200 963.382,-1200 963.382,-1164 1121.38,-1164 1121.38,-1200"/>
<text text-anchor="middle" x="1042.38" y="-1179.2" font-family="Courier,monospace" font-size="11.00">ChatRoomBanCollection</text>
</g>
<!-- \\classes\\entitiesCollection\\ChatRoomBanCollection&#45;&gt;\\abstracts\\Collection -->
<g id="edge14" class="edge"><title>\\classes\\entitiesCollection\\ChatRoomBanCollection&#45;&gt;\\abstracts\\Collection</title>
<path fill="none" stroke="black" d="M963.156,-1172.84C951.248,-1168.78 939.808,-1163.05 930.382,-1155 881.296,-1113.08 923.026,-1063.43 874.382,-1021 860.458,-1008.86 841.661,-1002.09 824.017,-998.355"/>
<polygon fill="none" stroke="black" points="824.273,-994.844 813.807,-996.486 823.013,-1001.73 824.273,-994.844"/>
</g>
<!-- \\classes\\entitiesCollection\\ChatRoomCollection -->
<g id="node29" class="node"><title>\\classes\\entitiesCollection\\ChatRoomCollection</title>
<polygon fill="none" stroke="black" points="1111.38,-1146 973.382,-1146 973.382,-1110 1111.38,-1110 1111.38,-1146"/>
<text text-anchor="middle" x="1042.38" y="-1125.2" font-family="Courier,monospace" font-size="11.00">ChatRoomCollection</text>
</g>
<!-- \\classes\\entitiesCollection\\ChatRoomCollection&#45;&gt;\\abstracts\\Collection -->
<g id="edge15" class="edge"><title>\\classes\\entitiesCollection\\ChatRoomCollection&#45;&gt;\\abstracts\\Collection</title>
<path fill="none" stroke="black" d="M973.252,-1119.57C958.253,-1115.57 943.073,-1109.67 930.382,-1101 894.545,-1076.52 909.96,-1045.86 874.382,-1021 859.611,-1010.68 841.125,-1004.31 823.981,-1000.37"/>
<polygon fill="none" stroke="black" points="824.581,-996.917 814.079,-998.318 823.162,-1003.77 824.581,-996.917"/>
</g>
<!-- \\classes\\entitiesCollection\\UserChatRightCollection -->
<g id="node30" class="node"><title>\\classes\\entitiesCollection\\UserChatRightCollection</title>
<polygon fill="none" stroke="black" points="1128.38,-1092 956.382,-1092 956.382,-1056 1128.38,-1056 1128.38,-1092"/>
<text text-anchor="middle" x="1042.38" y="-1071.2" font-family="Courier,monospace" font-size="11.00">UserChatRightCollection</text>
</g>
<!-- \\classes\\entitiesCollection\\UserChatRightCollection&#45;&gt;\\abstracts\\Collection -->
<g id="edge16" class="edge"><title>\\classes\\entitiesCollection\\UserChatRightCollection&#45;&gt;\\abstracts\\Collection</title>
<path fill="none" stroke="black" d="M959.315,-1055.97C949.481,-1053.24 939.648,-1050.24 930.382,-1047 904.481,-1037.94 900.186,-1030.33 874.382,-1021 858.166,-1015.13 840.08,-1009.92 823.71,-1005.68"/>
<polygon fill="none" stroke="black" points="824.323,-1002.23 813.77,-1003.17 822.607,-1009.01 824.323,-1002.23"/>
</g>
<!-- \\classes\\entitiesCollection\\UserCollection -->
<g id="node31" class="node"><title>\\classes\\entitiesCollection\\UserCollection</title>
<polygon fill="none" stroke="black" points="1097.88,-1038 986.882,-1038 986.882,-1002 1097.88,-1002 1097.88,-1038"/>
<text text-anchor="middle" x="1042.38" y="-1017.2" font-family="Courier,monospace" font-size="11.00">UserCollection</text>
</g>
<!-- \\classes\\entitiesCollection\\UserCollection&#45;&gt;\\abstracts\\Collection -->
<g id="edge17" class="edge"><title>\\classes\\entitiesCollection\\UserCollection&#45;&gt;\\abstracts\\Collection</title>
<path fill="none" stroke="black" d="M986.684,-1014.71C939.039,-1010.1 870.475,-1003.46 823.891,-998.954"/>
<polygon fill="none" stroke="black" points="824.008,-995.449 813.717,-997.97 823.334,-1002.42 824.008,-995.449"/>
</g>
<!-- \\classes\\entitiesManager\\GlobalEntityManager -->
<g id="node32" class="node"><title>\\classes\\entitiesManager\\GlobalEntityManager</title>
<polygon fill="none" stroke="black" points="1114.88,-636 969.882,-636 969.882,-600 1114.88,-600 1114.88,-636"/>
<text text-anchor="middle" x="1042.38" y="-615.2" font-family="Courier,monospace" font-size="11.00">GlobalEntityManager</text>
</g>
<!-- \\abstracts\\EntityManager -->
<g id="node48" class="node"><title>\\abstracts\\EntityManager</title>
<ellipse fill="none" stroke="black" cx="771.691" cy="-126" rx="92.8835" ry="18"/>
<text text-anchor="middle" x="771.691" y="-122.3" font-family="Times New Roman,serif" font-size="14.00" fill="gray">\abstractsntityManager</text>
</g>
<!-- \\classes\\entitiesManager\\GlobalEntityManager&#45;&gt;\\abstracts\\EntityManager -->
<g id="edge18" class="edge"><title>\\classes\\entitiesManager\\GlobalEntityManager&#45;&gt;\\abstracts\\EntityManager</title>
<path fill="none" stroke="black" d="M969.686,-613.636C954.844,-609.452 940.628,-602.457 930.382,-591 799.555,-444.716 1003.67,-300.644 874.382,-153 870.038,-148.04 864.898,-143.942 859.272,-140.561"/>
<polygon fill="none" stroke="black" points="860.569,-137.292 850.077,-135.819 857.36,-143.513 860.569,-137.292"/>
</g>
<!-- \\classes\\entitiesManager\\UserRightEntityManager -->
<g id="node33" class="node"><title>\\classes\\entitiesManager\\UserRightEntityManager</title>
<polygon fill="none" stroke="black" points="1124.88,-582 959.882,-582 959.882,-546 1124.88,-546 1124.88,-582"/>
<text text-anchor="middle" x="1042.38" y="-561.2" font-family="Courier,monospace" font-size="11.00">UserRightEntityManager</text>
</g>
<!-- \\classes\\entitiesManager\\UserRightEntityManager&#45;&gt;\\abstracts\\EntityManager -->
<g id="edge19" class="edge"><title>\\classes\\entitiesManager\\UserRightEntityManager&#45;&gt;\\abstracts\\EntityManager</title>
<path fill="none" stroke="black" d="M959.624,-556.121C948.573,-551.855 938.326,-545.726 930.382,-537 814.277,-409.461 989.146,-281.747 874.382,-153 869.955,-148.034 864.729,-143.934 859.022,-140.555"/>
<polygon fill="none" stroke="black" points="860.202,-137.229 849.702,-135.817 857.03,-143.469 860.202,-137.229"/>
</g>
<!-- \\classes\\entitiesManager\\UserStatisticEntityManager -->
<g id="node34" class="node"><title>\\classes\\entitiesManager\\UserStatisticEntityManager</title>
<polygon fill="none" stroke="black" points="1138.38,-528 946.382,-528 946.382,-492 1138.38,-492 1138.38,-528"/>
<text text-anchor="middle" x="1042.38" y="-507.2" font-family="Courier,monospace" font-size="11.00">UserStatisticEntityManager</text>
</g>
<!-- \\classes\\entitiesManager\\UserStatisticEntityManager&#45;&gt;\\abstracts\\EntityManager -->
<g id="edge20" class="edge"><title>\\classes\\entitiesManager\\UserStatisticEntityManager&#45;&gt;\\abstracts\\EntityManager</title>
<path fill="none" stroke="black" d="M946.23,-499.876C940.408,-496.702 935.033,-492.794 930.382,-488 825.255,-379.668 975.996,-264.633 874.382,-153 869.903,-148.08 864.641,-144.014 858.908,-140.657"/>
<polygon fill="none" stroke="black" points="860.063,-137.32 849.557,-135.947 856.914,-143.572 860.063,-137.32"/>
</g>
<!-- \\classes\\logger\\FileLogger -->
<g id="node35" class="node"><title>\\classes\\logger\\FileLogger</title>
<polygon fill="none" stroke="black" points="1084.38,-1334 1000.38,-1334 1000.38,-1298 1084.38,-1298 1084.38,-1334"/>
<text text-anchor="middle" x="1042.38" y="-1313.2" font-family="Courier,monospace" font-size="11.00">FileLogger</text>
</g>
<!-- \\classes\\logger\\FileLogger&#45;&gt;\\abstracts\\AbstractLogger -->
<g id="edge22" class="edge"><title>\\classes\\logger\\FileLogger&#45;&gt;\\abstracts\\AbstractLogger</title>
<path fill="none" stroke="black" d="M1000.26,-1315.32C977.157,-1312.85 949.264,-1306.12 930.382,-1289 874.561,-1238.4 929.671,-1180.18 874.382,-1129 864.081,-1119.46 850.8,-1113.22 837.258,-1109.15"/>
<polygon fill="none" stroke="black" points="837.951,-1105.71 827.389,-1106.56 836.171,-1112.48 837.951,-1105.71"/>
</g>
<!-- \\classes\\logger\\LogLevel -->
<g id="node36" class="node"><title>\\classes\\logger\\LogLevel</title>
<polygon fill="none" stroke="black" points="1077.88,-1280 1006.88,-1280 1006.88,-1244 1077.88,-1244 1077.88,-1280"/>
<text text-anchor="middle" x="1042.38" y="-1259.2" font-family="Courier,monospace" font-size="11.00">LogLevel</text>
</g>
<!-- \\classes\\AssertionErrorManager -->
<g id="node37" class="node"><title>\\classes\\AssertionErrorManager</title>
<polygon fill="none" stroke="black" points="1121.38,-474 963.382,-474 963.382,-438 1121.38,-438 1121.38,-474"/>
<text text-anchor="middle" x="1042.38" y="-453.2" font-family="Courier,monospace" font-size="11.00">AssertionErrorManager</text>
</g>
<!-- \\AssertionError -->
<g id="node46" class="node"><title>\\AssertionError</title>
<ellipse fill="none" stroke="black" cx="771.691" cy="-72" rx="66.8882" ry="18"/>
<text text-anchor="middle" x="771.691" y="-68.3" font-family="Times New Roman,serif" font-size="14.00" fill="gray">\AssertionError</text>
</g>
<!-- \\classes\\AssertionErrorManager&#45;&gt;\\AssertionError -->
<g id="edge8" class="edge"><title>\\classes\\AssertionErrorManager&#45;&gt;\\AssertionError</title>
<path fill="none" stroke="black" d="M963.175,-449.186C950.829,-444.912 939.238,-438.504 930.382,-429 828.963,-320.166 974.657,-208.889 874.382,-99 866.621,-90.4947 856.516,-84.5409 845.693,-80.3978"/>
<polygon fill="none" stroke="black" points="846.63,-77.0215 836.037,-77.2044 844.432,-83.6674 846.63,-77.0215"/>
</g>
<!-- \\classes\\ExceptionManager -->
<g id="node38" class="node"><title>\\classes\\ExceptionManager</title>
<polygon fill="none" stroke="black" points="1104.88,-420 979.882,-420 979.882,-384 1104.88,-384 1104.88,-420"/>
<text text-anchor="middle" x="1042.38" y="-399.2" font-family="Courier,monospace" font-size="11.00">ExceptionManager</text>
</g>
<!-- \\Exception -->
<g id="node49" class="node"><title>\\Exception</title>
<ellipse fill="none" stroke="black" cx="771.691" cy="-18" rx="42.4939" ry="18"/>
<text text-anchor="middle" x="771.691" y="-14.3" font-family="Times New Roman,serif" font-size="14.00" fill="gray">xception</text>
</g>
<!-- \\classes\\ExceptionManager&#45;&gt;\\Exception -->
<g id="edge21" class="edge"><title>\\classes\\ExceptionManager&#45;&gt;\\Exception</title>
<path fill="none" stroke="black" d="M979.846,-399.692C961.628,-395.979 943.159,-388.711 930.382,-375 828.963,-266.166 974.657,-154.889 874.382,-45 861.552,-30.9399 842.318,-23.8524 824.019,-20.3908"/>
<polygon fill="none" stroke="black" points="824.418,-16.9106 813.996,-18.8195 823.333,-23.8261 824.418,-16.9106"/>
</g>
<!-- \\classes\\ImagesManager -->
<g id="node39" class="node"><title>\\classes\\ImagesManager</title>
<polygon fill="none" stroke="black" points="1094.38,-366 990.382,-366 990.382,-330 1094.38,-330 1094.38,-366"/>
<text text-anchor="middle" x="1042.38" y="-345.2" font-family="Courier,monospace" font-size="11.00">ImagesManager</text>
</g>
<!-- \\classes\\IniManager -->
<g id="node40" class="node"><title>\\classes\\IniManager</title>
<polygon fill="none" stroke="black" points="1084.38,-312 1000.38,-312 1000.38,-276 1084.38,-276 1084.38,-312"/>
<text text-anchor="middle" x="1042.38" y="-291.2" font-family="Courier,monospace" font-size="11.00">IniManager</text>
</g>
<!-- \\classes\\ThrowableManager -->
<g id="node41" class="node"><title>\\classes\\ThrowableManager</title>
<polygon fill="none" stroke="black" points="1104.88,-258 979.882,-258 979.882,-222 1104.88,-222 1104.88,-258"/>
<text text-anchor="middle" x="1042.38" y="-237.2" font-family="Courier,monospace" font-size="11.00">ThrowableManager</text>
</g>
</g>
</svg>
