<?xml version="1.0" encoding="UTF-8" standalone="no"?>
<!DOCTYPE svg PUBLIC "-//W3C//DTD SVG 1.1//EN"
 "http://www.w3.org/Graphics/SVG/1.1/DTD/svg11.dtd">
<!-- Generated by graphviz version 2.38.0 (20140413.2041)
 -->
<!-- Title: G Pages: 1 -->
<svg width="1178pt" height="2322pt"
 viewBox="0.00 0.00 1178.38 2322.00" xmlns="http://www.w3.org/2000/svg" xmlns:xlink="http://www.w3.org/1999/xlink">
<g id="graph0" class="graph" transform="scale(1 1) rotate(0) translate(4 2318)">
<title>G</title>
<polygon fill="white" stroke="none" points="-4,4 -4,-2318 1174.38,-2318 1174.38,4 -4,4"/>
<g id="clust1" class="cluster"><title>cluster_Global</title>
<path fill="none" stroke="gray" d="M20,-206C20,-206 1150.38,-206 1150.38,-206 1156.38,-206 1162.38,-212 1162.38,-218 1162.38,-218 1162.38,-2294 1162.38,-2294 1162.38,-2300 1156.38,-2306 1150.38,-2306 1150.38,-2306 20,-2306 20,-2306 14,-2306 8,-2300 8,-2294 8,-2294 8,-218 8,-218 8,-212 14,-206 20,-206"/>
<text text-anchor="middle" x="585.191" y="-2293.2" font-family="Times New Roman,serif" font-size="11.00" fill="gray">Global</text>
</g>
<g id="clust2" class="cluster"><title>cluster_\classes</title>
<path fill="none" stroke="gray" d="M942.382,-482C942.382,-482 1142.38,-482 1142.38,-482 1148.38,-482 1154.38,-488 1154.38,-494 1154.38,-494 1154.38,-2266 1154.38,-2266 1154.38,-2272 1148.38,-2278 1142.38,-2278 1142.38,-2278 942.382,-2278 942.382,-2278 936.382,-2278 930.382,-2272 930.382,-2266 930.382,-2266 930.382,-494 930.382,-494 930.382,-488 936.382,-482 942.382,-482"/>
<text text-anchor="middle" x="1042.38" y="-2265.2" font-family="Times New Roman,serif" font-size="11.00" fill="gray">classes</text>
</g>
<g id="clust3" class="cluster"><title>cluster_\classes\entitiesCollection</title>
<path fill="none" stroke="gray" d="M960.382,-1748C960.382,-1748 1124.38,-1748 1124.38,-1748 1130.38,-1748 1136.38,-1754 1136.38,-1760 1136.38,-1760 1136.38,-1970 1136.38,-1970 1136.38,-1976 1130.38,-1982 1124.38,-1982 1124.38,-1982 960.382,-1982 960.382,-1982 954.382,-1982 948.382,-1976 948.382,-1970 948.382,-1970 948.382,-1760 948.382,-1760 948.382,-1754 954.382,-1748 960.382,-1748"/>
<text text-anchor="middle" x="1042.38" y="-1969.2" font-family="Times New Roman,serif" font-size="11.00" fill="gray">entitiesCollection</text>
</g>
<g id="clust4" class="cluster"><title>cluster_\classes\entitiesManager</title>
<path fill="none" stroke="gray" d="M950.382,-1048C950.382,-1048 1134.38,-1048 1134.38,-1048 1140.38,-1048 1146.38,-1054 1146.38,-1060 1146.38,-1060 1146.38,-1378 1146.38,-1378 1146.38,-1384 1140.38,-1390 1134.38,-1390 1134.38,-1390 950.382,-1390 950.382,-1390 944.382,-1390 938.382,-1384 938.382,-1378 938.382,-1378 938.382,-1060 938.382,-1060 938.382,-1054 944.382,-1048 950.382,-1048"/>
<text text-anchor="middle" x="1042.38" y="-1377.2" font-family="Times New Roman,serif" font-size="11.00" fill="gray">entitiesManager</text>
</g>
<g id="clust5" class="cluster"><title>cluster_\classes\entities</title>
<path fill="none" stroke="gray" d="M994.382,-1398C994.382,-1398 1090.38,-1398 1090.38,-1398 1096.38,-1398 1102.38,-1404 1102.38,-1410 1102.38,-1410 1102.38,-1728 1102.38,-1728 1102.38,-1734 1096.38,-1740 1090.38,-1740 1090.38,-1740 994.382,-1740 994.382,-1740 988.382,-1740 982.382,-1734 982.382,-1728 982.382,-1728 982.382,-1410 982.382,-1410 982.382,-1404 988.382,-1398 994.382,-1398"/>
<text text-anchor="middle" x="1042.38" y="-1727.2" font-family="Times New Roman,serif" font-size="11.00" fill="gray">entities</text>
</g>
<g id="clust6" class="cluster"><title>cluster_\classes\logger</title>
<path fill="none" stroke="gray" d="M994.382,-1990C994.382,-1990 1090.38,-1990 1090.38,-1990 1096.38,-1990 1102.38,-1996 1102.38,-2002 1102.38,-2002 1102.38,-2158 1102.38,-2158 1102.38,-2164 1096.38,-2170 1090.38,-2170 1090.38,-2170 994.382,-2170 994.382,-2170 988.382,-2170 982.382,-2164 982.382,-2158 982.382,-2158 982.382,-2002 982.382,-2002 982.382,-1996 988.382,-1990 994.382,-1990"/>
<text text-anchor="middle" x="1042.38" y="-2157.2" font-family="Times New Roman,serif" font-size="11.00" fill="gray">logger</text>
</g>
<g id="clust7" class="cluster"><title>cluster_\classes\console</title>
<path fill="none" stroke="gray" d="M994.382,-914C994.382,-914 1090.38,-914 1090.38,-914 1096.38,-914 1102.38,-920 1102.38,-926 1102.38,-926 1102.38,-1028 1102.38,-1028 1102.38,-1034 1096.38,-1040 1090.38,-1040 1090.38,-1040 994.382,-1040 994.382,-1040 988.382,-1040 982.382,-1034 982.382,-1028 982.382,-1028 982.382,-926 982.382,-926 982.382,-920 988.382,-914 994.382,-914"/>
<text text-anchor="middle" x="1042.38" y="-1027.2" font-family="Times New Roman,serif" font-size="11.00" fill="gray">console</text>
</g>
<g id="clust8" class="cluster"><title>cluster_\classes\fileManager</title>
<path fill="none" stroke="gray" d="M987.382,-2178C987.382,-2178 1097.38,-2178 1097.38,-2178 1103.38,-2178 1109.38,-2184 1109.38,-2190 1109.38,-2190 1109.38,-2238 1109.38,-2238 1109.38,-2244 1103.38,-2250 1097.38,-2250 1097.38,-2250 987.382,-2250 987.382,-2250 981.382,-2250 975.382,-2244 975.382,-2238 975.382,-2238 975.382,-2190 975.382,-2190 975.382,-2184 981.382,-2178 987.382,-2178"/>
<text text-anchor="middle" x="1042.38" y="-2237.2" font-family="Times New Roman,serif" font-size="11.00" fill="gray">fileManager</text>
</g>
<g id="clust10" class="cluster"><title>cluster_\interfaces</title>
<path fill="none" stroke="gray" d="M28,-1830C28,-1830 601,-1830 601,-1830 607,-1830 613,-1836 613,-1842 613,-1842 613,-2242 613,-2242 613,-2248 607,-2254 601,-2254 601,-2254 28,-2254 28,-2254 22,-2254 16,-2248 16,-2242 16,-2242 16,-1842 16,-1842 16,-1836 22,-1830 28,-1830"/>
<text text-anchor="middle" x="314.5" y="-2241.2" font-family="Times New Roman,serif" font-size="11.00" fill="gray">interfaces</text>
</g>
<g id="clust11" class="cluster"><title>cluster_\interfaces\http</title>
<path fill="none" stroke="gray" d="M36,-1992C36,-1992 593,-1992 593,-1992 599,-1992 605,-1998 605,-2004 605,-2004 605,-2214 605,-2214 605,-2220 599,-2226 593,-2226 593,-2226 36,-2226 36,-2226 30,-2226 24,-2220 24,-2214 24,-2214 24,-2004 24,-2004 24,-1998 30,-1992 36,-1992"/>
<text text-anchor="middle" x="314.5" y="-2213.2" font-family="Times New Roman,serif" font-size="11.00" fill="gray">http</text>
</g>
<g id="clust9" class="cluster"><title>cluster_\abstracts</title>
<path fill="none" stroke="gray" d="M706.691,-1560C706.691,-1560 836.691,-1560 836.691,-1560 842.691,-1560 848.691,-1566 848.691,-1572 848.691,-1572 848.691,-1890 848.691,-1890 848.691,-1896 842.691,-1902 836.691,-1902 836.691,-1902 706.691,-1902 706.691,-1902 700.691,-1902 694.691,-1896 694.691,-1890 694.691,-1890 694.691,-1572 694.691,-1572 694.691,-1566 700.691,-1560 706.691,-1560"/>
<text text-anchor="middle" x="771.691" y="-1889.2" font-family="Times New Roman,serif" font-size="11.00" fill="gray">abstracts</text>
</g>
<g id="clust12" class="cluster"><title>cluster_\traits</title>
<path fill="none" stroke="gray" d="M980.882,-294C980.882,-294 1103.88,-294 1103.88,-294 1109.88,-294 1115.88,-300 1115.88,-306 1115.88,-306 1115.88,-462 1115.88,-462 1115.88,-468 1109.88,-474 1103.88,-474 1103.88,-474 980.882,-474 980.882,-474 974.882,-474 968.882,-468 968.882,-462 968.882,-462 968.882,-306 968.882,-306 968.882,-300 974.882,-294 980.882,-294"/>
<text text-anchor="middle" x="1042.38" y="-461.2" font-family="Times New Roman,serif" font-size="11.00" fill="gray">traits</text>
</g>
<g id="clust13" class="cluster"><title>cluster_\tests</title>
<path fill="none" stroke="gray" d="M1017.88,-214C1017.88,-214 1066.88,-214 1066.88,-214 1072.88,-214 1078.88,-220 1078.88,-226 1078.88,-226 1078.88,-274 1078.88,-274 1078.88,-280 1072.88,-286 1066.88,-286 1066.88,-286 1017.88,-286 1017.88,-286 1011.88,-286 1005.88,-280 1005.88,-274 1005.88,-274 1005.88,-226 1005.88,-226 1005.88,-220 1011.88,-214 1017.88,-214"/>
<text text-anchor="middle" x="1042.38" y="-273.2" font-family="Times New Roman,serif" font-size="11.00" fill="gray">tests</text>
</g>
<!-- \\classes\\entitiesCollection\\UserChatRightCollection -->
<g id="node1" class="node"><title>\\classes\\entitiesCollection\\UserChatRightCollection</title>
<polygon fill="none" stroke="black" points="1128.38,-1954 956.382,-1954 956.382,-1918 1128.38,-1918 1128.38,-1954"/>
<text text-anchor="middle" x="1042.38" y="-1933.2" font-family="Courier,monospace" font-size="11.00">UserChatRightCollection</text>
</g>
<!-- \\abstracts\\Collection -->
<g id="node35" class="node"><title>\\abstracts\\Collection</title>
<polygon fill="none" stroke="black" points="813.691,-1766 729.691,-1766 729.691,-1730 813.691,-1730 813.691,-1766"/>
<text text-anchor="start" x="737.691" y="-1751.2" font-family="Courier,monospace" font-size="11.00">«abstract»</text>
<text text-anchor="start" x="737.691" y="-1739.2" font-family="Courier,monospace" font-size="11.00">Collection</text>
</g>
<!-- \\classes\\entitiesCollection\\UserChatRightCollection&#45;&gt;\\abstracts\\Collection -->
<g id="edge1" class="edge"><title>\\classes\\entitiesCollection\\UserChatRightCollection&#45;&gt;\\abstracts\\Collection</title>
<path fill="none" stroke="black" d="M956.36,-1924.31C946.929,-1920.49 937.998,-1915.5 930.382,-1909 881.296,-1867.08 923.026,-1817.43 874.382,-1775 860.458,-1762.86 841.661,-1756.09 824.017,-1752.36"/>
<polygon fill="none" stroke="black" points="824.273,-1748.84 813.807,-1750.49 823.013,-1755.73 824.273,-1748.84"/>
</g>
<!-- \\classes\\entitiesCollection\\ChatRoomCollection -->
<g id="node2" class="node"><title>\\classes\\entitiesCollection\\ChatRoomCollection</title>
<polygon fill="none" stroke="black" points="1111.38,-1900 973.382,-1900 973.382,-1864 1111.38,-1864 1111.38,-1900"/>
<text text-anchor="middle" x="1042.38" y="-1879.2" font-family="Courier,monospace" font-size="11.00">ChatRoomCollection</text>
</g>
<!-- \\classes\\entitiesCollection\\ChatRoomCollection&#45;&gt;\\abstracts\\Collection -->
<g id="edge4" class="edge"><title>\\classes\\entitiesCollection\\ChatRoomCollection&#45;&gt;\\abstracts\\Collection</title>
<path fill="none" stroke="black" d="M973.252,-1873.57C958.253,-1869.57 943.073,-1863.67 930.382,-1855 894.545,-1830.52 909.96,-1799.86 874.382,-1775 859.611,-1764.68 841.125,-1758.31 823.981,-1754.37"/>
<polygon fill="none" stroke="black" points="824.581,-1750.92 814.079,-1752.32 823.162,-1757.77 824.581,-1750.92"/>
</g>
<!-- \\classes\\entitiesCollection\\ChatRoomBanCollection -->
<g id="node3" class="node"><title>\\classes\\entitiesCollection\\ChatRoomBanCollection</title>
<polygon fill="none" stroke="black" points="1121.38,-1846 963.382,-1846 963.382,-1810 1121.38,-1810 1121.38,-1846"/>
<text text-anchor="middle" x="1042.38" y="-1825.2" font-family="Courier,monospace" font-size="11.00">ChatRoomBanCollection</text>
</g>
<!-- \\classes\\entitiesCollection\\ChatRoomBanCollection&#45;&gt;\\abstracts\\Collection -->
<g id="edge7" class="edge"><title>\\classes\\entitiesCollection\\ChatRoomBanCollection&#45;&gt;\\abstracts\\Collection</title>
<path fill="none" stroke="black" d="M963.187,-1811.03C952.073,-1808.02 940.865,-1804.67 930.382,-1801 904.481,-1791.94 900.186,-1784.33 874.382,-1775 858.166,-1769.13 840.08,-1763.92 823.71,-1759.68"/>
<polygon fill="none" stroke="black" points="824.323,-1756.23 813.77,-1757.17 822.607,-1763.01 824.323,-1756.23"/>
</g>
<!-- \\classes\\entitiesCollection\\UserCollection -->
<g id="node4" class="node"><title>\\classes\\entitiesCollection\\UserCollection</title>
<polygon fill="none" stroke="black" points="1097.88,-1792 986.882,-1792 986.882,-1756 1097.88,-1756 1097.88,-1792"/>
<text text-anchor="middle" x="1042.38" y="-1771.2" font-family="Courier,monospace" font-size="11.00">UserCollection</text>
</g>
<!-- \\classes\\entitiesCollection\\UserCollection&#45;&gt;\\abstracts\\Collection -->
<g id="edge15" class="edge"><title>\\classes\\entitiesCollection\\UserCollection&#45;&gt;\\abstracts\\Collection</title>
<path fill="none" stroke="black" d="M986.684,-1768.71C939.039,-1764.1 870.475,-1757.46 823.891,-1752.95"/>
<polygon fill="none" stroke="black" points="824.008,-1749.45 813.717,-1751.97 823.334,-1756.42 824.008,-1749.45"/>
</g>
<!-- \\classes\\entitiesManager\\UserEntityManager -->
<g id="node5" class="node"><title>\\classes\\entitiesManager\\UserEntityManager</title>
<polygon fill="none" stroke="black" points="1107.88,-1362 976.882,-1362 976.882,-1326 1107.88,-1326 1107.88,-1362"/>
<text text-anchor="middle" x="1042.38" y="-1341.2" font-family="Courier,monospace" font-size="11.00">UserEntityManager</text>
</g>
<!-- \\abstracts\\EntityManager -->
<g id="node51" class="node"><title>\\abstracts\\EntityManager</title>
<ellipse fill="none" stroke="black" cx="771.691" cy="-180" rx="92.8835" ry="18"/>
<text text-anchor="middle" x="771.691" y="-176.3" font-family="Times New Roman,serif" font-size="14.00" fill="gray">\abstractsntityManager</text>
</g>
<!-- \\classes\\entitiesManager\\UserEntityManager&#45;&gt;\\abstracts\\EntityManager -->
<g id="edge2" class="edge"><title>\\classes\\entitiesManager\\UserEntityManager&#45;&gt;\\abstracts\\EntityManager</title>
<path fill="none" stroke="black" d="M976.702,-1341.3C959.432,-1337.43 942.285,-1330.17 930.382,-1317 777.037,-1147.36 771.9,-368.143 772.481,-208.591"/>
<polygon fill="none" stroke="black" points="775.982,-208.208 772.53,-198.191 768.982,-208.174 775.982,-208.208"/>
</g>
<!-- \\classes\\entitiesManager\\UserStatisticEntityManager -->
<g id="node6" class="node"><title>\\classes\\entitiesManager\\UserStatisticEntityManager</title>
<polygon fill="none" stroke="black" points="1138.38,-1308 946.382,-1308 946.382,-1272 1138.38,-1272 1138.38,-1308"/>
<text text-anchor="middle" x="1042.38" y="-1287.2" font-family="Courier,monospace" font-size="11.00">UserStatisticEntityManager</text>
</g>
<!-- \\classes\\entitiesManager\\UserStatisticEntityManager&#45;&gt;\\abstracts\\EntityManager -->
<g id="edge5" class="edge"><title>\\classes\\entitiesManager\\UserStatisticEntityManager&#45;&gt;\\abstracts\\EntityManager</title>
<path fill="none" stroke="black" d="M946.23,-1275.7C940.367,-1272.25 934.987,-1268.06 930.382,-1263 783.944,-1102.1 773.311,-362.435 772.696,-208.223"/>
<polygon fill="none" stroke="black" points="776.196,-208.137 772.668,-198.147 769.196,-208.157 776.196,-208.137"/>
</g>
<!-- \\classes\\entitiesManager\\UserRightEntityManager -->
<g id="node7" class="node"><title>\\classes\\entitiesManager\\UserRightEntityManager</title>
<polygon fill="none" stroke="black" points="1124.88,-1254 959.882,-1254 959.882,-1218 1124.88,-1218 1124.88,-1254"/>
<text text-anchor="middle" x="1042.38" y="-1233.2" font-family="Courier,monospace" font-size="11.00">UserRightEntityManager</text>
</g>
<!-- \\classes\\entitiesManager\\UserRightEntityManager&#45;&gt;\\abstracts\\EntityManager -->
<g id="edge10" class="edge"><title>\\classes\\entitiesManager\\UserRightEntityManager&#45;&gt;\\abstracts\\EntityManager</title>
<path fill="none" stroke="black" d="M959.68,-1228.07C948.622,-1223.81 938.357,-1217.7 930.382,-1209 790.957,-1056.95 774.798,-357.808 772.933,-208.22"/>
<polygon fill="none" stroke="black" points="776.431,-207.999 772.818,-198.039 769.431,-208.078 776.431,-207.999"/>
</g>
<!-- \\classes\\entitiesManager\\UserChatRightEntityManager -->
<g id="node8" class="node"><title>\\classes\\entitiesManager\\UserChatRightEntityManager</title>
<polygon fill="none" stroke="black" points="1138.38,-1200 946.382,-1200 946.382,-1164 1138.38,-1164 1138.38,-1200"/>
<text text-anchor="middle" x="1042.38" y="-1179.2" font-family="Courier,monospace" font-size="11.00">UserChatRightEntityManager</text>
</g>
<!-- \\classes\\entitiesManager\\UserChatRightEntityManager&#45;&gt;\\abstracts\\EntityManager -->
<g id="edge14" class="edge"><title>\\classes\\entitiesManager\\UserChatRightEntityManager&#45;&gt;\\abstracts\\EntityManager</title>
<path fill="none" stroke="black" d="M946.319,-1167.62C940.436,-1164.18 935.027,-1160.02 930.382,-1155 798.064,-1011.9 776.396,-354.117 773.203,-208.567"/>
<polygon fill="none" stroke="black" points="776.695,-208.178 772.989,-198.253 769.697,-208.323 776.695,-208.178"/>
</g>
<!-- \\classes\\entitiesManager\\GlobalEntityManager -->
<g id="node9" class="node"><title>\\classes\\entitiesManager\\GlobalEntityManager</title>
<polygon fill="none" stroke="black" points="1114.88,-1146 969.882,-1146 969.882,-1110 1114.88,-1110 1114.88,-1146"/>
<text text-anchor="middle" x="1042.38" y="-1125.2" font-family="Courier,monospace" font-size="11.00">GlobalEntityManager</text>
</g>
<!-- \\classes\\entitiesManager\\GlobalEntityManager&#45;&gt;\\abstracts\\EntityManager -->
<g id="edge25" class="edge"><title>\\classes\\entitiesManager\\GlobalEntityManager&#45;&gt;\\abstracts\\EntityManager</title>
<path fill="none" stroke="black" d="M969.749,-1123.23C954.995,-1119.06 940.801,-1112.16 930.382,-1101 805.107,-966.764 778.082,-349.788 773.505,-208.764"/>
<polygon fill="none" stroke="black" points="776.991,-208.259 773.181,-198.373 769.994,-208.477 776.991,-208.259"/>
</g>
<!-- \\classes\\entitiesManager\\ChatRoomBanEntityManager -->
<g id="node10" class="node"><title>\\classes\\entitiesManager\\ChatRoomBanEntityManager</title>
<polygon fill="none" stroke="black" points="1131.88,-1092 952.882,-1092 952.882,-1056 1131.88,-1056 1131.88,-1092"/>
<text text-anchor="middle" x="1042.38" y="-1071.2" font-family="Courier,monospace" font-size="11.00">ChatRoomBanEntityManager</text>
</g>
<!-- \\classes\\entitiesManager\\ChatRoomBanEntityManager&#45;&gt;\\abstracts\\EntityManager -->
<g id="edge26" class="edge"><title>\\classes\\entitiesManager\\ChatRoomBanEntityManager&#45;&gt;\\abstracts\\EntityManager</title>
<path fill="none" stroke="black" d="M952.664,-1060.34C944.33,-1056.17 936.666,-1050.83 930.382,-1044 814.038,-917.52 780.32,-343.904 773.924,-208.638"/>
<polygon fill="none" stroke="black" points="777.404,-208.118 773.448,-198.289 770.411,-208.439 777.404,-208.118"/>
</g>
<!-- \\classes\\entities\\UserChatRight -->
<g id="node11" class="node"><title>\\classes\\entities\\UserChatRight</title>
<polygon fill="none" stroke="black" points="1094.38,-1712 990.382,-1712 990.382,-1676 1094.38,-1676 1094.38,-1712"/>
<text text-anchor="middle" x="1042.38" y="-1691.2" font-family="Courier,monospace" font-size="11.00">UserChatRight</text>
</g>
<!-- \\abstracts\\Entity -->
<g id="node31" class="node"><title>\\abstracts\\Entity</title>
<polygon fill="none" stroke="black" points="813.691,-1658 729.691,-1658 729.691,-1622 813.691,-1622 813.691,-1658"/>
<text text-anchor="start" x="737.691" y="-1643.2" font-family="Courier,monospace" font-size="11.00">«abstract»</text>
<text text-anchor="start" x="751.191" y="-1631.2" font-family="Courier,monospace" font-size="11.00">Entity</text>
</g>
<!-- \\classes\\entities\\UserChatRight&#45;&gt;\\abstracts\\Entity -->
<g id="edge3" class="edge"><title>\\classes\\entities\\UserChatRight&#45;&gt;\\abstracts\\Entity</title>
<path fill="none" stroke="black" d="M990.211,-1683.72C942.448,-1674.12 871.561,-1659.87 823.814,-1650.27"/>
<polygon fill="none" stroke="black" points="824.487,-1646.84 813.993,-1648.3 823.108,-1653.7 824.487,-1646.84"/>
</g>
<!-- \\classes\\entities\\UserRight -->
<g id="node12" class="node"><title>\\classes\\entities\\UserRight</title>
<polygon fill="none" stroke="black" points="1080.88,-1658 1003.88,-1658 1003.88,-1622 1080.88,-1622 1080.88,-1658"/>
<text text-anchor="middle" x="1042.38" y="-1637.2" font-family="Courier,monospace" font-size="11.00">UserRight</text>
</g>
<!-- \\classes\\entities\\UserRight&#45;&gt;\\abstracts\\Entity -->
<g id="edge11" class="edge"><title>\\classes\\entities\\UserRight&#45;&gt;\\abstracts\\Entity</title>
<path fill="none" stroke="black" d="M1003.74,-1640C956.889,-1640 876.665,-1640 824.158,-1640"/>
<polygon fill="none" stroke="black" points="824.045,-1636.5 814.045,-1640 824.045,-1643.5 824.045,-1636.5"/>
</g>
<!-- \\classes\\entities\\User -->
<g id="node13" class="node"><title>\\classes\\entities\\User</title>
<polygon fill="none" stroke="black" points="1069.38,-1604 1015.38,-1604 1015.38,-1568 1069.38,-1568 1069.38,-1604"/>
<text text-anchor="middle" x="1042.38" y="-1583.2" font-family="Courier,monospace" font-size="11.00">User</text>
</g>
<!-- \\classes\\entities\\User&#45;&gt;\\abstracts\\Entity -->
<g id="edge13" class="edge"><title>\\classes\\entities\\User&#45;&gt;\\abstracts\\Entity</title>
<path fill="none" stroke="black" d="M1015.13,-1591.28C970.907,-1600.16 880.813,-1618.27 823.775,-1629.73"/>
<polygon fill="none" stroke="black" points="822.99,-1626.32 813.875,-1631.72 824.369,-1633.18 822.99,-1626.32"/>
</g>
<!-- \\classes\\entities\\ChatRoomBan -->
<g id="node14" class="node"><title>\\classes\\entities\\ChatRoomBan</title>
<polygon fill="none" stroke="black" points="1087.88,-1550 996.882,-1550 996.882,-1514 1087.88,-1514 1087.88,-1550"/>
<text text-anchor="middle" x="1042.38" y="-1529.2" font-family="Courier,monospace" font-size="11.00">ChatRoomBan</text>
</g>
<!-- \\classes\\entities\\ChatRoomBan&#45;&gt;\\abstracts\\Entity -->
<g id="edge21" class="edge"><title>\\classes\\entities\\ChatRoomBan&#45;&gt;\\abstracts\\Entity</title>
<path fill="none" stroke="black" d="M996.727,-1537.34C975.646,-1541.22 950.713,-1547.82 930.382,-1559 900.087,-1575.66 904.5,-1596.02 874.382,-1613 859.097,-1621.62 840.964,-1627.57 824.273,-1631.64"/>
<polygon fill="none" stroke="black" points="823.086,-1628.32 814.105,-1633.94 824.631,-1635.15 823.086,-1628.32"/>
</g>
<!-- \\classes\\entities\\ChatRoom -->
<g id="node15" class="node"><title>\\classes\\entities\\ChatRoom</title>
<polygon fill="none" stroke="black" points="1077.88,-1496 1006.88,-1496 1006.88,-1460 1077.88,-1460 1077.88,-1496"/>
<text text-anchor="middle" x="1042.38" y="-1475.2" font-family="Courier,monospace" font-size="11.00">ChatRoom</text>
</g>
<!-- \\classes\\entities\\ChatRoom&#45;&gt;\\abstracts\\Entity -->
<g id="edge24" class="edge"><title>\\classes\\entities\\ChatRoom&#45;&gt;\\abstracts\\Entity</title>
<path fill="none" stroke="black" d="M1006.86,-1479.07C983.149,-1481.43 952.144,-1487.92 930.382,-1505 887.852,-1538.39 916.561,-1579.17 874.382,-1613 860.088,-1624.46 841.382,-1631.09 823.917,-1634.91"/>
<polygon fill="none" stroke="black" points="822.98,-1631.52 813.819,-1636.85 824.3,-1638.4 822.98,-1631.52"/>
</g>
<!-- \\classes\\entities\\UserStatistic -->
<g id="node16" class="node"><title>\\classes\\entities\\UserStatistic</title>
<polygon fill="none" stroke="black" points="1094.38,-1442 990.382,-1442 990.382,-1406 1094.38,-1406 1094.38,-1442"/>
<text text-anchor="middle" x="1042.38" y="-1421.2" font-family="Courier,monospace" font-size="11.00">UserStatistic</text>
</g>
<!-- \\classes\\entities\\UserStatistic&#45;&gt;\\abstracts\\Entity -->
<g id="edge27" class="edge"><title>\\classes\\entities\\UserStatistic&#45;&gt;\\abstracts\\Entity</title>
<path fill="none" stroke="black" d="M990.279,-1425.96C969.488,-1429.2 946.591,-1436.25 930.382,-1451 874.037,-1502.27 930.187,-1561.14 874.382,-1613 860.791,-1625.63 841.978,-1632.49 824.225,-1636.17"/>
<polygon fill="none" stroke="black" points="823.181,-1632.8 813.943,-1637.98 824.4,-1639.69 823.181,-1632.8"/>
</g>
<!-- \\classes\\logger\\LogLevel -->
<g id="node17" class="node"><title>\\classes\\logger\\LogLevel</title>
<polygon fill="none" stroke="black" points="1077.88,-2142 1006.88,-2142 1006.88,-2106 1077.88,-2106 1077.88,-2142"/>
<text text-anchor="middle" x="1042.38" y="-2121.2" font-family="Courier,monospace" font-size="11.00">LogLevel</text>
</g>
<!-- \\classes\\logger\\ConsoleLogger -->
<g id="node18" class="node"><title>\\classes\\logger\\ConsoleLogger</title>
<polygon fill="none" stroke="black" points="1094.38,-2088 990.382,-2088 990.382,-2052 1094.38,-2052 1094.38,-2088"/>
<text text-anchor="middle" x="1042.38" y="-2067.2" font-family="Courier,monospace" font-size="11.00">ConsoleLogger</text>
</g>
<!-- \\abstracts\\AbstractLogger -->
<g id="node33" class="node"><title>\\abstracts\\AbstractLogger</title>
<polygon fill="none" stroke="black" points="827.191,-1874 716.191,-1874 716.191,-1838 827.191,-1838 827.191,-1874"/>
<text text-anchor="start" x="737.691" y="-1859.2" font-family="Courier,monospace" font-size="11.00">«abstract»</text>
<text text-anchor="start" x="724.191" y="-1847.2" font-family="Courier,monospace" font-size="11.00">AbstractLogger</text>
</g>
<!-- \\classes\\logger\\ConsoleLogger&#45;&gt;\\abstracts\\AbstractLogger -->
<g id="edge12" class="edge"><title>\\classes\\logger\\ConsoleLogger&#45;&gt;\\abstracts\\AbstractLogger</title>
<path fill="none" stroke="black" d="M990.123,-2064.45C970.358,-2060.6 948.255,-2054.07 930.382,-2043 864.254,-2002.05 812.034,-1923.98 787.668,-1882.86"/>
<polygon fill="none" stroke="black" points="790.68,-1881.08 782.624,-1874.2 784.631,-1884.6 790.68,-1881.08"/>
</g>
<!-- \\classes\\logger\\FileLogger -->
<g id="node19" class="node"><title>\\classes\\logger\\FileLogger</title>
<polygon fill="none" stroke="black" points="1084.38,-2034 1000.38,-2034 1000.38,-1998 1084.38,-1998 1084.38,-2034"/>
<text text-anchor="middle" x="1042.38" y="-2013.2" font-family="Courier,monospace" font-size="11.00">FileLogger</text>
</g>
<!-- \\classes\\logger\\FileLogger&#45;&gt;\\abstracts\\AbstractLogger -->
<g id="edge22" class="edge"><title>\\classes\\logger\\FileLogger&#45;&gt;\\abstracts\\AbstractLogger</title>
<path fill="none" stroke="black" d="M1000.3,-2009.24C978.675,-2004.63 952.198,-1997.27 930.382,-1986 877.424,-1958.65 826.066,-1911.22 797.012,-1881.83"/>
<polygon fill="none" stroke="black" points="799.262,-1879.13 789.772,-1874.42 794.252,-1884.02 799.262,-1879.13"/>
</g>
<!-- \\classes\\console\\Deployment -->
<g id="node20" class="node"><title>\\classes\\console\\Deployment</title>
<polygon fill="none" stroke="black" points="1084.38,-1012 1000.38,-1012 1000.38,-976 1084.38,-976 1084.38,-1012"/>
<text text-anchor="middle" x="1042.38" y="-991.2" font-family="Courier,monospace" font-size="11.00">Deployment</text>
</g>
<!-- \\classes\\console\\Console -->
<g id="node52" class="node"><title>\\classes\\console\\Console</title>
<ellipse fill="none" stroke="black" cx="771.691" cy="-126" rx="102.882" ry="18"/>
<text text-anchor="middle" x="771.691" y="-122.3" font-family="Times New Roman,serif" font-size="14.00" fill="gray">\classes\console\Console</text>
</g>
<!-- \\classes\\console\\Deployment&#45;&gt;\\classes\\console\\Console -->
<g id="edge6" class="edge"><title>\\classes\\console\\Deployment&#45;&gt;\\classes\\console\\Console</title>
<path fill="none" stroke="black" d="M1000.36,-995.221C976.24,-993.569 947.256,-987.016 930.382,-967 813.514,-828.373 989.794,-292.842 874.382,-153 870.981,-148.879 867.03,-145.348 862.698,-142.324"/>
<polygon fill="none" stroke="black" points="864.328,-139.221 853.944,-137.116 860.748,-145.237 864.328,-139.221"/>
</g>
<!-- \\classes\\console\\ConsoleColors -->
<g id="node21" class="node"><title>\\classes\\console\\ConsoleColors</title>
<polygon fill="none" stroke="black" points="1094.38,-958 990.382,-958 990.382,-922 1094.38,-922 1094.38,-958"/>
<text text-anchor="middle" x="1042.38" y="-937.2" font-family="Courier,monospace" font-size="11.00">ConsoleColors</text>
</g>
<!-- \\classes\\fileManager\\SftpFileManager -->
<g id="node22" class="node"><title>\\classes\\fileManager\\SftpFileManager</title>
<polygon fill="none" stroke="black" points="1101.38,-2222 983.382,-2222 983.382,-2186 1101.38,-2186 1101.38,-2222"/>
<text text-anchor="middle" x="1042.38" y="-2201.2" font-family="Courier,monospace" font-size="11.00">SftpFileManager</text>
</g>
<!-- \\interfaces\\FileManagerInterface -->
<g id="node45" class="node"><title>\\interfaces\\FileManagerInterface</title>
<polygon fill="none" stroke="black" points="590.5,-1928 438.5,-1928 438.5,-1892 590.5,-1892 590.5,-1928"/>
<text text-anchor="middle" x="514.5" y="-1907.2" font-family="Courier,monospace" font-size="11.00">FileManagerInterface</text>
</g>
<!-- \\classes\\fileManager\\SftpFileManager&#45;&gt;\\interfaces\\FileManagerInterface -->
<g id="edge9" class="edge"><title>\\classes\\fileManager\\SftpFileManager&#45;&gt;\\interfaces\\FileManagerInterface</title>
<path fill="none" stroke="black" stroke-dasharray="1,5" d="M983.133,-2192.65C965.672,-2188.1 946.807,-2181.99 930.382,-2174 772.067,-2097 771.076,-2014.49 613,-1937 608.897,-1934.99 604.621,-1933.11 600.25,-1931.35"/>
<polygon fill="none" stroke="black" points="601.149,-1927.95 590.557,-1927.7 598.682,-1934.5 601.149,-1927.95"/>
</g>
<!-- \\classes\\LoggerManager -->
<g id="node23" class="node"><title>\\classes\\LoggerManager</title>
<polygon fill="none" stroke="black" points="1094.38,-904 990.382,-904 990.382,-868 1094.38,-868 1094.38,-904"/>
<text text-anchor="middle" x="1042.38" y="-883.2" font-family="Courier,monospace" font-size="11.00">LoggerManager</text>
</g>
<!-- \\classes\\ThrowableManager -->
<g id="node24" class="node"><title>\\classes\\ThrowableManager</title>
<polygon fill="none" stroke="black" points="1104.88,-850 979.882,-850 979.882,-814 1104.88,-814 1104.88,-850"/>
<text text-anchor="middle" x="1042.38" y="-829.2" font-family="Courier,monospace" font-size="11.00">ThrowableManager</text>
</g>
<!-- \\classes\\ExceptionManager -->
<g id="node25" class="node"><title>\\classes\\ExceptionManager</title>
<polygon fill="none" stroke="black" points="1104.88,-796 979.882,-796 979.882,-760 1104.88,-760 1104.88,-796"/>
<text text-anchor="middle" x="1042.38" y="-775.2" font-family="Courier,monospace" font-size="11.00">ExceptionManager</text>
</g>
<!-- \\Exception -->
<g id="node53" class="node"><title>\\Exception</title>
<ellipse fill="none" stroke="black" cx="771.691" cy="-72" rx="42.4939" ry="18"/>
<text text-anchor="middle" x="771.691" y="-68.3" font-family="Times New Roman,serif" font-size="14.00" fill="gray">xception</text>
</g>
<!-- \\classes\\ExceptionManager&#45;&gt;\\Exception -->
<g id="edge8" class="edge"><title>\\classes\\ExceptionManager&#45;&gt;\\Exception</title>
<path fill="none" stroke="black" d="M979.739,-776.422C961.29,-772.785 942.712,-765.377 930.382,-751 835.708,-640.616 967.896,-210.368 874.382,-99 862.043,-84.3052 842.708,-77.1239 824.195,-73.7642"/>
<polygon fill="none" stroke="black" points="824.449,-70.2638 814.045,-72.2674 823.428,-77.1889 824.449,-70.2638"/>
</g>
<!-- \\classes\\Benchmark -->
<g id="node26" class="node"><title>\\classes\\Benchmark</title>
<polygon fill="none" stroke="black" points="1080.88,-742 1003.88,-742 1003.88,-706 1080.88,-706 1080.88,-742"/>
<text text-anchor="middle" x="1042.38" y="-721.2" font-family="Courier,monospace" font-size="11.00">Benchmark</text>
</g>
<!-- \\classes\\IniManager -->
<g id="node27" class="node"><title>\\classes\\IniManager</title>
<polygon fill="none" stroke="black" points="1084.38,-688 1000.38,-688 1000.38,-652 1084.38,-652 1084.38,-688"/>
<text text-anchor="middle" x="1042.38" y="-667.2" font-family="Courier,monospace" font-size="11.00">IniManager</text>
</g>
<!-- \\classes\\Autoloader -->
<g id="node28" class="node"><title>\\classes\\Autoloader</title>
<polygon fill="none" stroke="black" points="1084.38,-634 1000.38,-634 1000.38,-598 1084.38,-598 1084.38,-634"/>
<text text-anchor="middle" x="1042.38" y="-613.2" font-family="Courier,monospace" font-size="11.00">Autoloader</text>
</g>
<!-- \\classes\\AssertionErrorManager -->
<g id="node29" class="node"><title>\\classes\\AssertionErrorManager</title>
<polygon fill="none" stroke="black" points="1121.38,-580 963.382,-580 963.382,-544 1121.38,-544 1121.38,-580"/>
<text text-anchor="middle" x="1042.38" y="-559.2" font-family="Courier,monospace" font-size="11.00">AssertionErrorManager</text>
</g>
<!-- \\AssertionError -->
<g id="node58" class="node"><title>\\AssertionError</title>
<ellipse fill="none" stroke="black" cx="771.691" cy="-18" rx="66.8882" ry="18"/>
<text text-anchor="middle" x="771.691" y="-14.3" font-family="Times New Roman,serif" font-size="14.00" fill="gray">\AssertionError</text>
</g>
<!-- \\classes\\AssertionErrorManager&#45;&gt;\\AssertionError -->
<g id="edge23" class="edge"><title>\\classes\\AssertionErrorManager&#45;&gt;\\AssertionError</title>
<path fill="none" stroke="black" d="M963.305,-555.776C950.791,-551.463 939.108,-544.889 930.382,-535 785.356,-370.64 1017.68,-210.867 874.382,-45 866.854,-36.2871 856.868,-30.2279 846.091,-26.044"/>
<polygon fill="none" stroke="black" points="847.052,-22.6749 836.458,-22.8303 844.837,-29.3152 847.052,-22.6749"/>
</g>
<!-- \\classes\\ImagesManager -->
<g id="node30" class="node"><title>\\classes\\ImagesManager</title>
<polygon fill="none" stroke="black" points="1094.38,-526 990.382,-526 990.382,-490 1094.38,-490 1094.38,-526"/>
<text text-anchor="middle" x="1042.38" y="-505.2" font-family="Courier,monospace" font-size="11.00">ImagesManager</text>
</g>
<!-- \\abstracts\\API -->
<g id="node32" class="node"><title>\\abstracts\\API</title>
<polygon fill="none" stroke="black" points="813.691,-1820 729.691,-1820 729.691,-1784 813.691,-1784 813.691,-1820"/>
<text text-anchor="start" x="737.691" y="-1805.2" font-family="Courier,monospace" font-size="11.00">«abstract»</text>
<text text-anchor="start" x="761.191" y="-1793.2" font-family="Courier,monospace" font-size="11.00">API</text>
</g>
<!-- \\interfaces\\LoggerInterface -->
<g id="node46" class="node"><title>\\interfaces\\LoggerInterface</title>
<polygon fill="none" stroke="black" points="573.5,-1874 455.5,-1874 455.5,-1838 573.5,-1838 573.5,-1874"/>
<text text-anchor="middle" x="514.5" y="-1853.2" font-family="Courier,monospace" font-size="11.00">LoggerInterface</text>
</g>
<!-- \\abstracts\\AbstractLogger&#45;&gt;\\interfaces\\LoggerInterface -->
<g id="edge16" class="edge"><title>\\abstracts\\AbstractLogger&#45;&gt;\\interfaces\\LoggerInterface</title>
<path fill="none" stroke="black" stroke-dasharray="1,5" d="M715.946,-1856C677.251,-1856 625.114,-1856 583.712,-1856"/>
<polygon fill="none" stroke="black" points="583.704,-1852.5 573.704,-1856 583.704,-1859.5 583.704,-1852.5"/>
</g>
<!-- \\abstracts\\Manager -->
<g id="node34" class="node"><title>\\abstracts\\Manager</title>
<polygon fill="none" stroke="black" points="813.691,-1712 729.691,-1712 729.691,-1676 813.691,-1676 813.691,-1712"/>
<text text-anchor="start" x="737.691" y="-1697.2" font-family="Courier,monospace" font-size="11.00">«abstract»</text>
<text text-anchor="start" x="747.691" y="-1685.2" font-family="Courier,monospace" font-size="11.00">Manager</text>
</g>
<!-- \\Iterator -->
<g id="node54" class="node"><title>\\Iterator</title>
<ellipse fill="none" stroke="black" cx="514.5" cy="-180" rx="39.7935" ry="18"/>
<text text-anchor="middle" x="514.5" y="-176.3" font-family="Times New Roman,serif" font-size="14.00" fill="gray">\Iterator</text>
</g>
<!-- \\abstracts\\Collection&#45;&gt;\\Iterator -->
<g id="edge17" class="edge"><title>\\abstracts\\Collection&#45;&gt;\\Iterator</title>
<path fill="none" stroke="black" stroke-dasharray="1,5" d="M729.686,-1747.68C708.393,-1745.23 683.801,-1738.39 669,-1721 566.849,-1601.01 523.06,-408.394 516.409,-208.389"/>
<polygon fill="none" stroke="black" points="519.898,-208.003 516.072,-198.124 512.902,-208.233 519.898,-208.003"/>
</g>
<!-- \\ArrayAccess -->
<g id="node55" class="node"><title>\\ArrayAccess</title>
<ellipse fill="none" stroke="black" cx="514.5" cy="-126" rx="60.3893" ry="18"/>
<text text-anchor="middle" x="514.5" y="-122.3" font-family="Times New Roman,serif" font-size="14.00" fill="gray">\ArrayAccess</text>
</g>
<!-- \\abstracts\\Collection&#45;&gt;\\ArrayAccess -->
<g id="edge18" class="edge"><title>\\abstracts\\Collection&#45;&gt;\\ArrayAccess</title>
<path fill="none" stroke="black" stroke-dasharray="1,5" d="M729.503,-1748.07C708.017,-1745.76 683.298,-1738.92 669,-1721 560.266,-1584.73 721.008,-289.844 613,-153 605.476,-143.468 594.904,-137.115 583.48,-132.919"/>
<polygon fill="none" stroke="black" points="584.32,-129.515 573.731,-129.88 582.236,-136.198 584.32,-129.515"/>
</g>
<!-- \\Countable -->
<g id="node56" class="node"><title>\\Countable</title>
<ellipse fill="none" stroke="black" cx="514.5" cy="-72" rx="50.0912" ry="18"/>
<text text-anchor="middle" x="514.5" y="-68.3" font-family="Times New Roman,serif" font-size="14.00" fill="gray">\Countable</text>
</g>
<!-- \\abstracts\\Collection&#45;&gt;\\Countable -->
<g id="edge19" class="edge"><title>\\abstracts\\Collection&#45;&gt;\\Countable</title>
<path fill="none" stroke="black" stroke-dasharray="1,5" d="M729.494,-1748.08C708.006,-1745.77 683.288,-1738.93 669,-1721 556.609,-1579.98 724.639,-240.617 613,-99 603.456,-86.8929 588.995,-79.914 574.11,-75.97"/>
<polygon fill="none" stroke="black" points="574.836,-72.5461 564.315,-73.7931 573.318,-79.3794 574.836,-72.5461"/>
</g>
<!-- \\SeekableIterator -->
<g id="node57" class="node"><title>\\SeekableIterator</title>
<ellipse fill="none" stroke="black" cx="514.5" cy="-18" rx="71.4873" ry="18"/>
<text text-anchor="middle" x="514.5" y="-14.3" font-family="Times New Roman,serif" font-size="14.00" fill="gray">\SeekableIterator</text>
</g>
<!-- \\abstracts\\Collection&#45;&gt;\\SeekableIterator -->
<g id="edge20" class="edge"><title>\\abstracts\\Collection&#45;&gt;\\SeekableIterator</title>
<path fill="none" stroke="black" stroke-dasharray="1,5" d="M729.487,-1748.09C707.996,-1745.77 683.278,-1738.94 669,-1721 552.953,-1575.22 728.27,-191.39 613,-45 607.255,-37.7035 599.723,-32.2692 591.389,-28.2392"/>
<polygon fill="none" stroke="black" points="592.655,-24.9756 582.076,-24.3957 589.984,-31.4461 592.655,-24.9756"/>
</g>
<!-- \\abstracts\\AbstractController -->
<g id="node36" class="node"><title>\\abstracts\\AbstractController</title>
<polygon fill="none" stroke="black" points="840.691,-1604 702.691,-1604 702.691,-1568 840.691,-1568 840.691,-1604"/>
<text text-anchor="start" x="737.691" y="-1589.2" font-family="Courier,monospace" font-size="11.00">«abstract»</text>
<text text-anchor="start" x="710.691" y="-1577.2" font-family="Courier,monospace" font-size="11.00">AbstractController</text>
</g>
<!-- \\interfaces\\http\\ServerRequestInterface -->
<g id="node37" class="node"><title>\\interfaces\\http\\ServerRequestInterface</title>
<polygon fill="none" stroke="black" points="597,-2198 432,-2198 432,-2162 597,-2162 597,-2198"/>
<text text-anchor="middle" x="514.5" y="-2177.2" font-family="Courier,monospace" font-size="11.00">ServerRequestInterface</text>
</g>
<!-- \\interfaces\\http\\RequestInterface -->
<g id="node38" class="node"><title>\\interfaces\\http\\RequestInterface</title>
<polygon fill="none" stroke="black" points="357,-2198 232,-2198 232,-2162 357,-2162 357,-2198"/>
<text text-anchor="middle" x="294.5" y="-2177.2" font-family="Courier,monospace" font-size="11.00">RequestInterface</text>
</g>
<!-- \\interfaces\\http\\ServerRequestInterface&#45;&gt;\\interfaces\\http\\RequestInterface -->
<g id="edge28" class="edge"><title>\\interfaces\\http\\ServerRequestInterface&#45;&gt;\\interfaces\\http\\RequestInterface</title>
<path fill="none" stroke="black" d="M431.705,-2180C410.62,-2180 388.085,-2180 367.537,-2180"/>
<polygon fill="none" stroke="black" points="367.31,-2176.5 357.31,-2180 367.31,-2183.5 367.31,-2176.5"/>
</g>
<!-- \\interfaces\\http\\MessageInterface -->
<g id="node43" class="node"><title>\\interfaces\\http\\MessageInterface</title>
<polygon fill="none" stroke="black" points="157,-2171 32,-2171 32,-2135 157,-2135 157,-2171"/>
<text text-anchor="middle" x="94.5" y="-2150.2" font-family="Courier,monospace" font-size="11.00">MessageInterface</text>
</g>
<!-- \\interfaces\\http\\RequestInterface&#45;&gt;\\interfaces\\http\\MessageInterface -->
<g id="edge29" class="edge"><title>\\interfaces\\http\\RequestInterface&#45;&gt;\\interfaces\\http\\MessageInterface</title>
<path fill="none" stroke="black" d="M231.937,-2171.61C211.357,-2168.8 188.245,-2165.65 166.975,-2162.75"/>
<polygon fill="none" stroke="black" points="167.406,-2159.27 157.025,-2161.39 166.46,-2166.21 167.406,-2159.27"/>
</g>
<!-- \\interfaces\\http\\ResponseInterface -->
<g id="node39" class="node"><title>\\interfaces\\http\\ResponseInterface</title>
<polygon fill="none" stroke="black" points="360,-2144 229,-2144 229,-2108 360,-2108 360,-2144"/>
<text text-anchor="middle" x="294.5" y="-2123.2" font-family="Courier,monospace" font-size="11.00">ResponseInterface</text>
</g>
<!-- \\interfaces\\http\\ResponseInterface&#45;&gt;\\interfaces\\http\\MessageInterface -->
<g id="edge30" class="edge"><title>\\interfaces\\http\\ResponseInterface&#45;&gt;\\interfaces\\http\\MessageInterface</title>
<path fill="none" stroke="black" d="M228.941,-2134.8C209.247,-2137.49 187.475,-2140.46 167.33,-2143.2"/>
<polygon fill="none" stroke="black" points="166.712,-2139.76 157.277,-2144.58 167.658,-2146.69 166.712,-2139.76"/>
</g>
<!-- \\interfaces\\http\\UploadedFileInterface -->
<g id="node40" class="node"><title>\\interfaces\\http\\UploadedFileInterface</title>
<polygon fill="none" stroke="black" points="593.5,-2144 435.5,-2144 435.5,-2108 593.5,-2108 593.5,-2144"/>
<text text-anchor="middle" x="514.5" y="-2123.2" font-family="Courier,monospace" font-size="11.00">UploadedFileInterface</text>
</g>
<!-- \\interfaces\\http\\StreamInterface -->
<g id="node41" class="node"><title>\\interfaces\\http\\StreamInterface</title>
<polygon fill="none" stroke="black" points="573.5,-2090 455.5,-2090 455.5,-2054 573.5,-2054 573.5,-2090"/>
<text text-anchor="middle" x="514.5" y="-2069.2" font-family="Courier,monospace" font-size="11.00">StreamInterface</text>
</g>
<!-- \\interfaces\\http\\UriInterface -->
<g id="node42" class="node"><title>\\interfaces\\http\\UriInterface</title>
<polygon fill="none" stroke="black" points="563.5,-2036 465.5,-2036 465.5,-2000 563.5,-2000 563.5,-2036"/>
<text text-anchor="middle" x="514.5" y="-2015.2" font-family="Courier,monospace" font-size="11.00">UriInterface</text>
</g>
<!-- \\interfaces\\ServiceInterface -->
<g id="node44" class="node"><title>\\interfaces\\ServiceInterface</title>
<polygon fill="none" stroke="black" points="577,-1982 452,-1982 452,-1946 577,-1946 577,-1982"/>
<text text-anchor="middle" x="514.5" y="-1961.2" font-family="Courier,monospace" font-size="11.00">ServiceInterface</text>
</g>
<!-- \\traits\\PrettyOutputTrait -->
<g id="node47" class="node"><title>\\traits\\PrettyOutputTrait</title>
<polygon fill="none" stroke="black" points="1107.88,-446 976.882,-446 976.882,-410 1107.88,-410 1107.88,-446"/>
<text text-anchor="middle" x="1042.38" y="-425.2" font-family="Courier,monospace" font-size="11.00">PrettyOutputTrait</text>
</g>
<!-- \\traits\\EchoTrait -->
<g id="node48" class="node"><title>\\traits\\EchoTrait</title>
<polygon fill="none" stroke="black" points="1080.88,-392 1003.88,-392 1003.88,-356 1080.88,-356 1080.88,-392"/>
<text text-anchor="middle" x="1042.38" y="-371.2" font-family="Courier,monospace" font-size="11.00">EchoTrait</text>
</g>
<!-- \\traits\\ShortcutsTrait -->
<g id="node49" class="node"><title>\\traits\\ShortcutsTrait</title>
<polygon fill="none" stroke="black" points="1097.88,-338 986.882,-338 986.882,-302 1097.88,-302 1097.88,-338"/>
<text text-anchor="middle" x="1042.38" y="-317.2" font-family="Courier,monospace" font-size="11.00">ShortcutsTrait</text>
</g>
<!-- \\tests\\Traits -->
<g id="node50" class="node"><title>\\tests\\Traits</title>
<polygon fill="none" stroke="black" points="1070.88,-258 1013.88,-258 1013.88,-222 1070.88,-222 1070.88,-258"/>
<text text-anchor="middle" x="1042.38" y="-237.2" font-family="Courier,monospace" font-size="11.00">Traits</text>
</g>
</g>
</svg>
