<?xml version="1.0" encoding="UTF-8" standalone="no"?>
<!DOCTYPE svg PUBLIC "-//W3C//DTD SVG 1.1//EN"
 "http://www.w3.org/Graphics/SVG/1.1/DTD/svg11.dtd">
<!-- Generated by graphviz version 2.38.0 (20140413.2041)
 -->
<!-- Title: G Pages: 1 -->
<svg width="1178pt" height="1836pt"
 viewBox="0.00 0.00 1178.38 1836.00" xmlns="http://www.w3.org/2000/svg" xmlns:xlink="http://www.w3.org/1999/xlink">
<g id="graph0" class="graph" transform="scale(1 1) rotate(0) translate(4 1832)">
<title>G</title>
<polygon fill="white" stroke="none" points="-4,4 -4,-1832 1174.38,-1832 1174.38,4 -4,4"/>
<g id="clust1" class="cluster"><title>cluster_Global</title>
<path fill="none" stroke="gray" d="M20,-206C20,-206 1150.38,-206 1150.38,-206 1156.38,-206 1162.38,-212 1162.38,-218 1162.38,-218 1162.38,-1808 1162.38,-1808 1162.38,-1814 1156.38,-1820 1150.38,-1820 1150.38,-1820 20,-1820 20,-1820 14,-1820 8,-1814 8,-1808 8,-1808 8,-218 8,-218 8,-212 14,-206 20,-206"/>
<text text-anchor="middle" x="585.191" y="-1807.2" font-family="Times New Roman,serif" font-size="11.00" fill="gray">Global</text>
</g>
<g id="clust2" class="cluster"><title>cluster_\classes</title>
<path fill="none" stroke="gray" d="M942.382,-482C942.382,-482 1142.38,-482 1142.38,-482 1148.38,-482 1154.38,-488 1154.38,-494 1154.38,-494 1154.38,-1646 1154.38,-1646 1154.38,-1652 1148.38,-1658 1142.38,-1658 1142.38,-1658 942.382,-1658 942.382,-1658 936.382,-1658 930.382,-1652 930.382,-1646 930.382,-1646 930.382,-494 930.382,-494 930.382,-488 936.382,-482 942.382,-482"/>
<text text-anchor="middle" x="1042.38" y="-1645.2" font-family="Times New Roman,serif" font-size="11.00" fill="gray">classes</text>
</g>
<g id="clust3" class="cluster"><title>cluster_\classes\entitiesCollection</title>
<path fill="none" stroke="gray" d="M960.382,-1154C960.382,-1154 1124.38,-1154 1124.38,-1154 1130.38,-1154 1136.38,-1160 1136.38,-1166 1136.38,-1166 1136.38,-1376 1136.38,-1376 1136.38,-1382 1130.38,-1388 1124.38,-1388 1124.38,-1388 960.382,-1388 960.382,-1388 954.382,-1388 948.382,-1382 948.382,-1376 948.382,-1376 948.382,-1166 948.382,-1166 948.382,-1160 954.382,-1154 960.382,-1154"/>
<text text-anchor="middle" x="1042.38" y="-1375.2" font-family="Times New Roman,serif" font-size="11.00" fill="gray">entitiesCollection</text>
</g>
<g id="clust4" class="cluster"><title>cluster_\classes\logger</title>
<path fill="none" stroke="gray" d="M1004.38,-1020C1004.38,-1020 1080.38,-1020 1080.38,-1020 1086.38,-1020 1092.38,-1026 1092.38,-1032 1092.38,-1032 1092.38,-1134 1092.38,-1134 1092.38,-1140 1086.38,-1146 1080.38,-1146 1080.38,-1146 1004.38,-1146 1004.38,-1146 998.382,-1146 992.382,-1140 992.382,-1134 992.382,-1134 992.382,-1032 992.382,-1032 992.382,-1026 998.382,-1020 1004.38,-1020"/>
<text text-anchor="middle" x="1042.38" y="-1133.2" font-family="Times New Roman,serif" font-size="11.00" fill="gray">logger</text>
</g>
<g id="clust5" class="cluster"><title>cluster_\classes\entitiesManager</title>
<path fill="none" stroke="gray" d="M950.382,-832C950.382,-832 1134.38,-832 1134.38,-832 1140.38,-832 1146.38,-838 1146.38,-844 1146.38,-844 1146.38,-1000 1146.38,-1000 1146.38,-1006 1140.38,-1012 1134.38,-1012 1134.38,-1012 950.382,-1012 950.382,-1012 944.382,-1012 938.382,-1006 938.382,-1000 938.382,-1000 938.382,-844 938.382,-844 938.382,-838 944.382,-832 950.382,-832"/>
<text text-anchor="middle" x="1042.38" y="-999.2" font-family="Times New Roman,serif" font-size="11.00" fill="gray">entitiesManager</text>
</g>
<g id="clust6" class="cluster"><title>cluster_\classes\console</title>
<path fill="none" stroke="gray" d="M1004.38,-752C1004.38,-752 1080.38,-752 1080.38,-752 1086.38,-752 1092.38,-758 1092.38,-764 1092.38,-764 1092.38,-812 1092.38,-812 1092.38,-818 1086.38,-824 1080.38,-824 1080.38,-824 1004.38,-824 1004.38,-824 998.382,-824 992.382,-818 992.382,-812 992.382,-812 992.382,-764 992.382,-764 992.382,-758 998.382,-752 1004.38,-752"/>
<text text-anchor="middle" x="1042.38" y="-811.2" font-family="Times New Roman,serif" font-size="11.00" fill="gray">console</text>
</g>
<g id="clust7" class="cluster"><title>cluster_\classes\entities</title>
<path fill="none" stroke="gray" d="M994.382,-1396C994.382,-1396 1090.38,-1396 1090.38,-1396 1096.38,-1396 1102.38,-1402 1102.38,-1408 1102.38,-1408 1102.38,-1618 1102.38,-1618 1102.38,-1624 1096.38,-1630 1090.38,-1630 1090.38,-1630 994.382,-1630 994.382,-1630 988.382,-1630 982.382,-1624 982.382,-1618 982.382,-1618 982.382,-1408 982.382,-1408 982.382,-1402 988.382,-1396 994.382,-1396"/>
<text text-anchor="middle" x="1042.38" y="-1617.2" font-family="Times New Roman,serif" font-size="11.00" fill="gray">entities</text>
</g>
<g id="clust9" class="cluster"><title>cluster_\interfaces</title>
<path fill="none" stroke="gray" d="M28,-1208C28,-1208 601,-1208 601,-1208 607,-1208 613,-1214 613,-1220 613,-1220 613,-1620 613,-1620 613,-1626 607,-1632 601,-1632 601,-1632 28,-1632 28,-1632 22,-1632 16,-1626 16,-1620 16,-1620 16,-1220 16,-1220 16,-1214 22,-1208 28,-1208"/>
<text text-anchor="middle" x="314.5" y="-1619.2" font-family="Times New Roman,serif" font-size="11.00" fill="gray">interfaces</text>
</g>
<g id="clust10" class="cluster"><title>cluster_\interfaces\http</title>
<path fill="none" stroke="gray" d="M36,-1370C36,-1370 593,-1370 593,-1370 599,-1370 605,-1376 605,-1382 605,-1382 605,-1592 605,-1592 605,-1598 599,-1604 593,-1604 593,-1604 36,-1604 36,-1604 30,-1604 24,-1598 24,-1592 24,-1592 24,-1382 24,-1382 24,-1376 30,-1370 36,-1370"/>
<text text-anchor="middle" x="314.5" y="-1591.2" font-family="Times New Roman,serif" font-size="11.00" fill="gray">http</text>
</g>
<g id="clust8" class="cluster"><title>cluster_\abstracts</title>
<path fill="none" stroke="gray" d="M706.691,-1208C706.691,-1208 836.691,-1208 836.691,-1208 842.691,-1208 848.691,-1214 848.691,-1220 848.691,-1220 848.691,-1538 848.691,-1538 848.691,-1544 842.691,-1550 836.691,-1550 836.691,-1550 706.691,-1550 706.691,-1550 700.691,-1550 694.691,-1544 694.691,-1538 694.691,-1538 694.691,-1220 694.691,-1220 694.691,-1214 700.691,-1208 706.691,-1208"/>
<text text-anchor="middle" x="771.691" y="-1537.2" font-family="Times New Roman,serif" font-size="11.00" fill="gray">abstracts</text>
</g>
<g id="clust11" class="cluster"><title>cluster_\controllers</title>
<path fill="none" stroke="gray" d="M983.882,-1666C983.882,-1666 1100.88,-1666 1100.88,-1666 1106.88,-1666 1112.88,-1672 1112.88,-1678 1112.88,-1678 1112.88,-1780 1112.88,-1780 1112.88,-1786 1106.88,-1792 1100.88,-1792 1100.88,-1792 983.882,-1792 983.882,-1792 977.882,-1792 971.882,-1786 971.882,-1780 971.882,-1780 971.882,-1678 971.882,-1678 971.882,-1672 977.882,-1666 983.882,-1666"/>
<text text-anchor="middle" x="1042.38" y="-1779.2" font-family="Times New Roman,serif" font-size="11.00" fill="gray">controllers</text>
</g>
<g id="clust12" class="cluster"><title>cluster_\traits</title>
<path fill="none" stroke="gray" d="M980.882,-294C980.882,-294 1103.88,-294 1103.88,-294 1109.88,-294 1115.88,-300 1115.88,-306 1115.88,-306 1115.88,-462 1115.88,-462 1115.88,-468 1109.88,-474 1103.88,-474 1103.88,-474 980.882,-474 980.882,-474 974.882,-474 968.882,-468 968.882,-462 968.882,-462 968.882,-306 968.882,-306 968.882,-300 974.882,-294 980.882,-294"/>
<text text-anchor="middle" x="1042.38" y="-461.2" font-family="Times New Roman,serif" font-size="11.00" fill="gray">traits</text>
</g>
<g id="clust13" class="cluster"><title>cluster_\tests</title>
<path fill="none" stroke="gray" d="M1017.88,-214C1017.88,-214 1066.88,-214 1066.88,-214 1072.88,-214 1078.88,-220 1078.88,-226 1078.88,-226 1078.88,-274 1078.88,-274 1078.88,-280 1072.88,-286 1066.88,-286 1066.88,-286 1017.88,-286 1017.88,-286 1011.88,-286 1005.88,-280 1005.88,-274 1005.88,-274 1005.88,-226 1005.88,-226 1005.88,-220 1011.88,-214 1017.88,-214"/>
<text text-anchor="middle" x="1042.38" y="-273.2" font-family="Times New Roman,serif" font-size="11.00" fill="gray">tests</text>
</g>
<!-- \\classes\\entitiesCollection\\UserChatRightCollection -->
<g id="node1" class="node"><title>\\classes\\entitiesCollection\\UserChatRightCollection</title>
<polygon fill="none" stroke="black" points="1128.38,-1360 956.382,-1360 956.382,-1324 1128.38,-1324 1128.38,-1360"/>
<text text-anchor="middle" x="1042.38" y="-1339.2" font-family="Courier,monospace" font-size="11.00">UserChatRightCollection</text>
</g>
<!-- \\abstracts\\Collection -->
<g id="node24" class="node"><title>\\abstracts\\Collection</title>
<polygon fill="none" stroke="black" points="813.691,-1306 729.691,-1306 729.691,-1270 813.691,-1270 813.691,-1306"/>
<text text-anchor="start" x="737.691" y="-1291.2" font-family="Courier,monospace" font-size="11.00">«abstract»</text>
<text text-anchor="start" x="737.691" y="-1279.2" font-family="Courier,monospace" font-size="11.00">Collection</text>
</g>
<!-- \\classes\\entitiesCollection\\UserChatRightCollection&#45;&gt;\\abstracts\\Collection -->
<g id="edge1" class="edge"><title>\\classes\\entitiesCollection\\UserChatRightCollection&#45;&gt;\\abstracts\\Collection</title>
<path fill="none" stroke="black" d="M956.366,-1324.91C912.941,-1316.19 861.531,-1305.85 824.161,-1298.34"/>
<polygon fill="none" stroke="black" points="824.505,-1294.84 814.012,-1296.3 823.126,-1301.71 824.505,-1294.84"/>
</g>
<!-- \\classes\\entitiesCollection\\ChatRoomCollection -->
<g id="node2" class="node"><title>\\classes\\entitiesCollection\\ChatRoomCollection</title>
<polygon fill="none" stroke="black" points="1111.38,-1306 973.382,-1306 973.382,-1270 1111.38,-1270 1111.38,-1306"/>
<text text-anchor="middle" x="1042.38" y="-1285.2" font-family="Courier,monospace" font-size="11.00">ChatRoomCollection</text>
</g>
<!-- \\classes\\entitiesCollection\\ChatRoomCollection&#45;&gt;\\abstracts\\Collection -->
<g id="edge2" class="edge"><title>\\classes\\entitiesCollection\\ChatRoomCollection&#45;&gt;\\abstracts\\Collection</title>
<path fill="none" stroke="black" d="M973.232,-1288C926.84,-1288 866.406,-1288 824.056,-1288"/>
<polygon fill="none" stroke="black" points="823.968,-1284.5 813.967,-1288 823.967,-1291.5 823.968,-1284.5"/>
</g>
<!-- \\classes\\entitiesCollection\\ChatRoomBanCollection -->
<g id="node3" class="node"><title>\\classes\\entitiesCollection\\ChatRoomBanCollection</title>
<polygon fill="none" stroke="black" points="1121.38,-1252 963.382,-1252 963.382,-1216 1121.38,-1216 1121.38,-1252"/>
<text text-anchor="middle" x="1042.38" y="-1231.2" font-family="Courier,monospace" font-size="11.00">ChatRoomBanCollection</text>
</g>
<!-- \\classes\\entitiesCollection\\ChatRoomBanCollection&#45;&gt;\\abstracts\\Collection -->
<g id="edge5" class="edge"><title>\\classes\\entitiesCollection\\ChatRoomBanCollection&#45;&gt;\\abstracts\\Collection</title>
<path fill="none" stroke="black" d="M963.304,-1249.69C918.405,-1258.72 863.272,-1269.8 823.871,-1277.71"/>
<polygon fill="none" stroke="black" points="823.07,-1274.3 813.956,-1279.71 824.45,-1281.17 823.07,-1274.3"/>
</g>
<!-- \\classes\\entitiesCollection\\UserCollection -->
<g id="node4" class="node"><title>\\classes\\entitiesCollection\\UserCollection</title>
<polygon fill="none" stroke="black" points="1097.88,-1198 986.882,-1198 986.882,-1162 1097.88,-1162 1097.88,-1198"/>
<text text-anchor="middle" x="1042.38" y="-1177.2" font-family="Courier,monospace" font-size="11.00">UserCollection</text>
</g>
<!-- \\classes\\entitiesCollection\\UserCollection&#45;&gt;\\abstracts\\Collection -->
<g id="edge10" class="edge"><title>\\classes\\entitiesCollection\\UserCollection&#45;&gt;\\abstracts\\Collection</title>
<path fill="none" stroke="black" d="M986.754,-1187.33C968.083,-1191.35 947.585,-1197.54 930.382,-1207 900.087,-1223.66 904.5,-1244.02 874.382,-1261 859.097,-1269.62 840.964,-1275.57 824.273,-1279.64"/>
<polygon fill="none" stroke="black" points="823.086,-1276.32 814.105,-1281.94 824.631,-1283.15 823.086,-1276.32"/>
</g>
<!-- \\classes\\logger\\LogLevel -->
<g id="node5" class="node"><title>\\classes\\logger\\LogLevel</title>
<polygon fill="none" stroke="black" points="1077.88,-1118 1006.88,-1118 1006.88,-1082 1077.88,-1082 1077.88,-1118"/>
<text text-anchor="middle" x="1042.38" y="-1097.2" font-family="Courier,monospace" font-size="11.00">LogLevel</text>
</g>
<!-- \\classes\\logger\\FileLogger -->
<g id="node6" class="node"><title>\\classes\\logger\\FileLogger</title>
<polygon fill="none" stroke="black" points="1084.38,-1064 1000.38,-1064 1000.38,-1028 1084.38,-1028 1084.38,-1064"/>
<text text-anchor="middle" x="1042.38" y="-1043.2" font-family="Courier,monospace" font-size="11.00">FileLogger</text>
</g>
<!-- \\abstracts\\AbstractLogger -->
<g id="node22" class="node"><title>\\abstracts\\AbstractLogger</title>
<polygon fill="none" stroke="black" points="827.191,-1252 716.191,-1252 716.191,-1216 827.191,-1216 827.191,-1252"/>
<text text-anchor="start" x="737.691" y="-1237.2" font-family="Courier,monospace" font-size="11.00">«abstract»</text>
<text text-anchor="start" x="724.191" y="-1225.2" font-family="Courier,monospace" font-size="11.00">AbstractLogger</text>
</g>
<!-- \\classes\\logger\\FileLogger&#45;&gt;\\abstracts\\AbstractLogger -->
<g id="edge17" class="edge"><title>\\classes\\logger\\FileLogger&#45;&gt;\\abstracts\\AbstractLogger</title>
<path fill="none" stroke="black" d="M1000.33,-1050.43C978.469,-1054.13 951.758,-1060.84 930.382,-1073 870.188,-1107.24 817.848,-1171.1 791.277,-1207.25"/>
<polygon fill="none" stroke="black" points="788.111,-1205.65 785.087,-1215.81 793.783,-1209.76 788.111,-1205.65"/>
</g>
<!-- \\classes\\entitiesManager\\UserStatisticEntityManager -->
<g id="node7" class="node"><title>\\classes\\entitiesManager\\UserStatisticEntityManager</title>
<polygon fill="none" stroke="black" points="1138.38,-984 946.382,-984 946.382,-948 1138.38,-948 1138.38,-984"/>
<text text-anchor="middle" x="1042.38" y="-963.2" font-family="Courier,monospace" font-size="11.00">UserStatisticEntityManager</text>
</g>
<!-- \\abstracts\\EntityManager -->
<g id="node42" class="node"><title>\\abstracts\\EntityManager</title>
<ellipse fill="none" stroke="black" cx="771.691" cy="-180" rx="92.8835" ry="18"/>
<text text-anchor="middle" x="771.691" y="-176.3" font-family="Times New Roman,serif" font-size="14.00" fill="gray">\abstractsntityManager</text>
</g>
<!-- \\classes\\entitiesManager\\UserStatisticEntityManager&#45;&gt;\\abstracts\\EntityManager -->
<g id="edge3" class="edge"><title>\\classes\\entitiesManager\\UserStatisticEntityManager&#45;&gt;\\abstracts\\EntityManager</title>
<path fill="none" stroke="black" d="M946.309,-951.239C940.469,-947.884 935.069,-943.848 930.382,-939 825.842,-830.87 783.644,-333.008 774.615,-208.357"/>
<polygon fill="none" stroke="black" points="778.087,-207.839 773.887,-198.112 771.105,-208.335 778.087,-207.839"/>
</g>
<!-- \\classes\\entitiesManager\\UserRightEntityManager -->
<g id="node8" class="node"><title>\\classes\\entitiesManager\\UserRightEntityManager</title>
<polygon fill="none" stroke="black" points="1124.88,-930 959.882,-930 959.882,-894 1124.88,-894 1124.88,-930"/>
<text text-anchor="middle" x="1042.38" y="-909.2" font-family="Courier,monospace" font-size="11.00">UserRightEntityManager</text>
</g>
<!-- \\classes\\entitiesManager\\UserRightEntityManager&#45;&gt;\\abstracts\\EntityManager -->
<g id="edge8" class="edge"><title>\\classes\\entitiesManager\\UserRightEntityManager&#45;&gt;\\abstracts\\EntityManager</title>
<path fill="none" stroke="black" d="M959.634,-903.369C948.719,-899.185 938.509,-893.28 930.382,-885 832.722,-785.511 785.76,-327.163 775.091,-208.247"/>
<polygon fill="none" stroke="black" points="778.563,-207.777 774.198,-198.124 771.59,-208.393 778.563,-207.777"/>
</g>
<!-- \\classes\\entitiesManager\\GlobalEntityManager -->
<g id="node9" class="node"><title>\\classes\\entitiesManager\\GlobalEntityManager</title>
<polygon fill="none" stroke="black" points="1114.88,-876 969.882,-876 969.882,-840 1114.88,-840 1114.88,-876"/>
<text text-anchor="middle" x="1042.38" y="-855.2" font-family="Courier,monospace" font-size="11.00">GlobalEntityManager</text>
</g>
<!-- \\classes\\entitiesManager\\GlobalEntityManager&#45;&gt;\\abstracts\\EntityManager -->
<g id="edge21" class="edge"><title>\\classes\\entitiesManager\\GlobalEntityManager&#45;&gt;\\abstracts\\EntityManager</title>
<path fill="none" stroke="black" d="M969.631,-850.473C955.059,-845.919 940.973,-838.862 930.382,-828 841.204,-736.542 788.605,-321.337 775.779,-208.42"/>
<polygon fill="none" stroke="black" points="779.222,-207.716 774.631,-198.168 772.266,-208.496 779.222,-207.716"/>
</g>
<!-- \\classes\\console\\Deployment -->
<g id="node10" class="node"><title>\\classes\\console\\Deployment</title>
<polygon fill="none" stroke="black" points="1084.38,-796 1000.38,-796 1000.38,-760 1084.38,-760 1084.38,-796"/>
<text text-anchor="middle" x="1042.38" y="-775.2" font-family="Courier,monospace" font-size="11.00">Deployment</text>
</g>
<!-- \\classes\\console\\Console -->
<g id="node43" class="node"><title>\\classes\\console\\Console</title>
<ellipse fill="none" stroke="black" cx="771.691" cy="-126" rx="102.882" ry="18"/>
<text text-anchor="middle" x="771.691" y="-122.3" font-family="Times New Roman,serif" font-size="14.00" fill="gray">\classes\console\Console</text>
</g>
<!-- \\classes\\console\\Deployment&#45;&gt;\\classes\\console\\Console -->
<g id="edge4" class="edge"><title>\\classes\\console\\Deployment&#45;&gt;\\classes\\console\\Console</title>
<path fill="none" stroke="black" d="M1000.16,-781.056C976.28,-780.424 947.618,-775.111 930.382,-756 840.249,-656.065 961.278,-255.762 874.382,-153 870.77,-148.728 866.567,-145.092 861.965,-142.001"/>
<polygon fill="none" stroke="black" points="863.707,-138.965 853.295,-137.005 860.212,-145.031 863.707,-138.965"/>
</g>
<!-- \\classes\\entities\\UserRight -->
<g id="node11" class="node"><title>\\classes\\entities\\UserRight</title>
<polygon fill="none" stroke="black" points="1080.88,-1602 1003.88,-1602 1003.88,-1566 1080.88,-1566 1080.88,-1602"/>
<text text-anchor="middle" x="1042.38" y="-1581.2" font-family="Courier,monospace" font-size="11.00">UserRight</text>
</g>
<!-- \\abstracts\\Entity -->
<g id="node20" class="node"><title>\\abstracts\\Entity</title>
<polygon fill="none" stroke="black" points="813.691,-1414 729.691,-1414 729.691,-1378 813.691,-1378 813.691,-1414"/>
<text text-anchor="start" x="737.691" y="-1399.2" font-family="Courier,monospace" font-size="11.00">«abstract»</text>
<text text-anchor="start" x="751.191" y="-1387.2" font-family="Courier,monospace" font-size="11.00">Entity</text>
</g>
<!-- \\classes\\entities\\UserRight&#45;&gt;\\abstracts\\Entity -->
<g id="edge9" class="edge"><title>\\classes\\entities\\UserRight&#45;&gt;\\abstracts\\Entity</title>
<path fill="none" stroke="black" d="M1003.81,-1583.23C980.277,-1580.9 950.667,-1574.32 930.382,-1557 881.296,-1515.08 923.026,-1465.43 874.382,-1423 860.458,-1410.86 841.661,-1404.09 824.017,-1400.36"/>
<polygon fill="none" stroke="black" points="824.273,-1396.84 813.807,-1398.49 823.013,-1403.73 824.273,-1396.84"/>
</g>
<!-- \\classes\\entities\\ChatRoomBan -->
<g id="node12" class="node"><title>\\classes\\entities\\ChatRoomBan</title>
<polygon fill="none" stroke="black" points="1087.88,-1548 996.882,-1548 996.882,-1512 1087.88,-1512 1087.88,-1548"/>
<text text-anchor="middle" x="1042.38" y="-1527.2" font-family="Courier,monospace" font-size="11.00">ChatRoomBan</text>
</g>
<!-- \\classes\\entities\\ChatRoomBan&#45;&gt;\\abstracts\\Entity -->
<g id="edge16" class="edge"><title>\\classes\\entities\\ChatRoomBan&#45;&gt;\\abstracts\\Entity</title>
<path fill="none" stroke="black" d="M996.781,-1526.52C975.224,-1523.08 949.869,-1516.31 930.382,-1503 894.545,-1478.52 909.96,-1447.86 874.382,-1423 859.611,-1412.68 841.125,-1406.31 823.981,-1402.37"/>
<polygon fill="none" stroke="black" points="824.581,-1398.92 814.079,-1400.32 823.162,-1405.77 824.581,-1398.92"/>
</g>
<!-- \\classes\\entities\\ChatRoom -->
<g id="node13" class="node"><title>\\classes\\entities\\ChatRoom</title>
<polygon fill="none" stroke="black" points="1077.88,-1494 1006.88,-1494 1006.88,-1458 1077.88,-1458 1077.88,-1494"/>
<text text-anchor="middle" x="1042.38" y="-1473.2" font-family="Courier,monospace" font-size="11.00">ChatRoom</text>
</g>
<!-- \\classes\\entities\\ChatRoom&#45;&gt;\\abstracts\\Entity -->
<g id="edge19" class="edge"><title>\\classes\\entities\\ChatRoom&#45;&gt;\\abstracts\\Entity</title>
<path fill="none" stroke="black" d="M1006.87,-1469.43C984.703,-1464.76 955.466,-1457.78 930.382,-1449 904.481,-1439.94 900.186,-1432.33 874.382,-1423 858.166,-1417.13 840.08,-1411.92 823.71,-1407.68"/>
<polygon fill="none" stroke="black" points="824.323,-1404.23 813.77,-1405.17 822.607,-1411.01 824.323,-1404.23"/>
</g>
<!-- \\classes\\entities\\UserStatistic -->
<g id="node14" class="node"><title>\\classes\\entities\\UserStatistic</title>
<polygon fill="none" stroke="black" points="1094.38,-1440 990.382,-1440 990.382,-1404 1094.38,-1404 1094.38,-1440"/>
<text text-anchor="middle" x="1042.38" y="-1419.2" font-family="Courier,monospace" font-size="11.00">UserStatistic</text>
</g>
<!-- \\classes\\entities\\UserStatistic&#45;&gt;\\abstracts\\Entity -->
<g id="edge22" class="edge"><title>\\classes\\entities\\UserStatistic&#45;&gt;\\abstracts\\Entity</title>
<path fill="none" stroke="black" d="M990.211,-1417.05C942.548,-1412.44 871.858,-1405.6 824.114,-1400.98"/>
<polygon fill="none" stroke="black" points="824.284,-1397.48 813.993,-1400 823.61,-1404.44 824.284,-1397.48"/>
</g>
<!-- \\classes\\ThrowableManager -->
<g id="node15" class="node"><title>\\classes\\ThrowableManager</title>
<polygon fill="none" stroke="black" points="1104.88,-742 979.882,-742 979.882,-706 1104.88,-706 1104.88,-742"/>
<text text-anchor="middle" x="1042.38" y="-721.2" font-family="Courier,monospace" font-size="11.00">ThrowableManager</text>
</g>
<!-- \\classes\\ExceptionManager -->
<g id="node16" class="node"><title>\\classes\\ExceptionManager</title>
<polygon fill="none" stroke="black" points="1104.88,-688 979.882,-688 979.882,-652 1104.88,-652 1104.88,-688"/>
<text text-anchor="middle" x="1042.38" y="-667.2" font-family="Courier,monospace" font-size="11.00">ExceptionManager</text>
</g>
<!-- \\Exception -->
<g id="node44" class="node"><title>\\Exception</title>
<ellipse fill="none" stroke="black" cx="771.691" cy="-72" rx="42.4939" ry="18"/>
<text text-anchor="middle" x="771.691" y="-68.3" font-family="Times New Roman,serif" font-size="14.00" fill="gray">xception</text>
</g>
<!-- \\classes\\ExceptionManager&#45;&gt;\\Exception -->
<g id="edge7" class="edge"><title>\\classes\\ExceptionManager&#45;&gt;\\Exception</title>
<path fill="none" stroke="black" d="M979.881,-668.299C961.442,-664.653 942.833,-657.272 930.382,-643 770.593,-459.851 1032.25,-283.81 874.382,-99 861.919,-84.41 842.562,-77.2475 824.066,-73.8735"/>
<polygon fill="none" stroke="black" points="824.335,-70.3751 813.929,-72.3658 823.305,-77.2989 824.335,-70.3751"/>
</g>
<!-- \\classes\\IniManager -->
<g id="node17" class="node"><title>\\classes\\IniManager</title>
<polygon fill="none" stroke="black" points="1084.38,-634 1000.38,-634 1000.38,-598 1084.38,-598 1084.38,-634"/>
<text text-anchor="middle" x="1042.38" y="-613.2" font-family="Courier,monospace" font-size="11.00">IniManager</text>
</g>
<!-- \\classes\\AssertionErrorManager -->
<g id="node18" class="node"><title>\\classes\\AssertionErrorManager</title>
<polygon fill="none" stroke="black" points="1121.38,-580 963.382,-580 963.382,-544 1121.38,-544 1121.38,-580"/>
<text text-anchor="middle" x="1042.38" y="-559.2" font-family="Courier,monospace" font-size="11.00">AssertionErrorManager</text>
</g>
<!-- \\AssertionError -->
<g id="node49" class="node"><title>\\AssertionError</title>
<ellipse fill="none" stroke="black" cx="771.691" cy="-18" rx="66.8882" ry="18"/>
<text text-anchor="middle" x="771.691" y="-14.3" font-family="Times New Roman,serif" font-size="14.00" fill="gray">\AssertionError</text>
</g>
<!-- \\classes\\AssertionErrorManager&#45;&gt;\\AssertionError -->
<g id="edge18" class="edge"><title>\\classes\\AssertionErrorManager&#45;&gt;\\AssertionError</title>
<path fill="none" stroke="black" d="M963.305,-555.776C950.791,-551.463 939.108,-544.889 930.382,-535 785.356,-370.64 1017.68,-210.867 874.382,-45 866.854,-36.2871 856.868,-30.2279 846.091,-26.044"/>
<polygon fill="none" stroke="black" points="847.052,-22.6749 836.458,-22.8303 844.837,-29.3152 847.052,-22.6749"/>
</g>
<!-- \\classes\\ImagesManager -->
<g id="node19" class="node"><title>\\classes\\ImagesManager</title>
<polygon fill="none" stroke="black" points="1094.38,-526 990.382,-526 990.382,-490 1094.38,-490 1094.38,-526"/>
<text text-anchor="middle" x="1042.38" y="-505.2" font-family="Courier,monospace" font-size="11.00">ImagesManager</text>
</g>
<!-- \\abstracts\\API -->
<g id="node21" class="node"><title>\\abstracts\\API</title>
<polygon fill="none" stroke="black" points="813.691,-1468 729.691,-1468 729.691,-1432 813.691,-1432 813.691,-1468"/>
<text text-anchor="start" x="737.691" y="-1453.2" font-family="Courier,monospace" font-size="11.00">«abstract»</text>
<text text-anchor="start" x="761.191" y="-1441.2" font-family="Courier,monospace" font-size="11.00">API</text>
</g>
<!-- \\interfaces\\LoggerInterface -->
<g id="node35" class="node"><title>\\interfaces\\LoggerInterface</title>
<polygon fill="none" stroke="black" points="573.5,-1252 455.5,-1252 455.5,-1216 573.5,-1216 573.5,-1252"/>
<text text-anchor="middle" x="514.5" y="-1231.2" font-family="Courier,monospace" font-size="11.00">LoggerInterface</text>
</g>
<!-- \\abstracts\\AbstractLogger&#45;&gt;\\interfaces\\LoggerInterface -->
<g id="edge11" class="edge"><title>\\abstracts\\AbstractLogger&#45;&gt;\\interfaces\\LoggerInterface</title>
<path fill="none" stroke="black" stroke-dasharray="1,5" d="M715.946,-1234C677.251,-1234 625.114,-1234 583.712,-1234"/>
<polygon fill="none" stroke="black" points="583.704,-1230.5 573.704,-1234 583.704,-1237.5 583.704,-1230.5"/>
</g>
<!-- \\abstracts\\Manager -->
<g id="node23" class="node"><title>\\abstracts\\Manager</title>
<polygon fill="none" stroke="black" points="813.691,-1360 729.691,-1360 729.691,-1324 813.691,-1324 813.691,-1360"/>
<text text-anchor="start" x="737.691" y="-1345.2" font-family="Courier,monospace" font-size="11.00">«abstract»</text>
<text text-anchor="start" x="747.691" y="-1333.2" font-family="Courier,monospace" font-size="11.00">Manager</text>
</g>
<!-- \\Iterator -->
<g id="node45" class="node"><title>\\Iterator</title>
<ellipse fill="none" stroke="black" cx="514.5" cy="-72" rx="39.7935" ry="18"/>
<text text-anchor="middle" x="514.5" y="-68.3" font-family="Times New Roman,serif" font-size="14.00" fill="gray">\Iterator</text>
</g>
<!-- \\abstracts\\Collection&#45;&gt;\\Iterator -->
<g id="edge12" class="edge"><title>\\abstracts\\Collection&#45;&gt;\\Iterator</title>
<path fill="none" stroke="black" stroke-dasharray="1,5" d="M729.589,-1288C708.13,-1285.67 683.41,-1278.83 669,-1261 506.501,-1059.93 774.428,-300.927 613,-99 601.248,-84.2992 582.251,-77.1747 564.134,-73.8596"/>
<polygon fill="none" stroke="black" points="564.617,-70.3929 554.211,-72.3858 563.588,-77.317 564.617,-70.3929"/>
</g>
<!-- \\ArrayAccess -->
<g id="node46" class="node"><title>\\ArrayAccess</title>
<ellipse fill="none" stroke="black" cx="514.5" cy="-18" rx="60.3893" ry="18"/>
<text text-anchor="middle" x="514.5" y="-14.3" font-family="Times New Roman,serif" font-size="14.00" fill="gray">\ArrayAccess</text>
</g>
<!-- \\abstracts\\Collection&#45;&gt;\\ArrayAccess -->
<g id="edge13" class="edge"><title>\\abstracts\\Collection&#45;&gt;\\ArrayAccess</title>
<path fill="none" stroke="black" stroke-dasharray="1,5" d="M729.575,-1288.02C708.111,-1285.68 683.39,-1278.84 669,-1261 584.095,-1155.71 697.344,-150.735 613,-45 605.427,-35.5065 594.833,-29.1715 583.402,-24.9815"/>
<polygon fill="none" stroke="black" points="584.239,-21.5765 573.65,-21.9441 582.157,-28.2598 584.239,-21.5765"/>
</g>
<!-- \\Countable -->
<g id="node47" class="node"><title>\\Countable</title>
<ellipse fill="none" stroke="black" cx="514.5" cy="-180" rx="50.0912" ry="18"/>
<text text-anchor="middle" x="514.5" y="-176.3" font-family="Times New Roman,serif" font-size="14.00" fill="gray">\Countable</text>
</g>
<!-- \\abstracts\\Collection&#45;&gt;\\Countable -->
<g id="edge14" class="edge"><title>\\abstracts\\Collection&#45;&gt;\\Countable</title>
<path fill="none" stroke="black" stroke-dasharray="1,5" d="M729.459,-1287.38C708.369,-1284.8 684.04,-1277.94 669,-1261 524.88,-1098.71 515.771,-361.741 515.453,-208.114"/>
<polygon fill="none" stroke="black" points="518.953,-208.074 515.443,-198.077 511.953,-208.08 518.953,-208.074"/>
</g>
<!-- \\SeekableIterator -->
<g id="node48" class="node"><title>\\SeekableIterator</title>
<ellipse fill="none" stroke="black" cx="514.5" cy="-126" rx="71.4873" ry="18"/>
<text text-anchor="middle" x="514.5" y="-122.3" font-family="Times New Roman,serif" font-size="14.00" fill="gray">\SeekableIterator</text>
</g>
<!-- \\abstracts\\Collection&#45;&gt;\\SeekableIterator -->
<g id="edge15" class="edge"><title>\\abstracts\\Collection&#45;&gt;\\SeekableIterator</title>
<path fill="none" stroke="black" stroke-dasharray="1,5" d="M729.606,-1287.99C708.152,-1285.65 683.43,-1278.81 669,-1261 513.81,-1069.44 767.17,-345.385 613,-153 607.112,-145.652 599.414,-140.198 590.923,-136.166"/>
<polygon fill="none" stroke="black" points="592.028,-132.838 581.445,-132.327 589.4,-139.326 592.028,-132.838"/>
</g>
<!-- \\abstracts\\AbstractController -->
<g id="node25" class="node"><title>\\abstracts\\AbstractController</title>
<polygon fill="none" stroke="black" points="840.691,-1522 702.691,-1522 702.691,-1486 840.691,-1486 840.691,-1522"/>
<text text-anchor="start" x="737.691" y="-1507.2" font-family="Courier,monospace" font-size="11.00">«abstract»</text>
<text text-anchor="start" x="710.691" y="-1495.2" font-family="Courier,monospace" font-size="11.00">AbstractController</text>
</g>
<!-- \\interfaces\\http\\ServerRequestInterface -->
<g id="node26" class="node"><title>\\interfaces\\http\\ServerRequestInterface</title>
<polygon fill="none" stroke="black" points="597,-1576 432,-1576 432,-1540 597,-1540 597,-1576"/>
<text text-anchor="middle" x="514.5" y="-1555.2" font-family="Courier,monospace" font-size="11.00">ServerRequestInterface</text>
</g>
<!-- \\interfaces\\http\\RequestInterface -->
<g id="node27" class="node"><title>\\interfaces\\http\\RequestInterface</title>
<polygon fill="none" stroke="black" points="357,-1576 232,-1576 232,-1540 357,-1540 357,-1576"/>
<text text-anchor="middle" x="294.5" y="-1555.2" font-family="Courier,monospace" font-size="11.00">RequestInterface</text>
</g>
<!-- \\interfaces\\http\\ServerRequestInterface&#45;&gt;\\interfaces\\http\\RequestInterface -->
<g id="edge23" class="edge"><title>\\interfaces\\http\\ServerRequestInterface&#45;&gt;\\interfaces\\http\\RequestInterface</title>
<path fill="none" stroke="black" d="M431.705,-1558C410.62,-1558 388.085,-1558 367.537,-1558"/>
<polygon fill="none" stroke="black" points="367.31,-1554.5 357.31,-1558 367.31,-1561.5 367.31,-1554.5"/>
</g>
<!-- \\interfaces\\http\\MessageInterface -->
<g id="node32" class="node"><title>\\interfaces\\http\\MessageInterface</title>
<polygon fill="none" stroke="black" points="157,-1549 32,-1549 32,-1513 157,-1513 157,-1549"/>
<text text-anchor="middle" x="94.5" y="-1528.2" font-family="Courier,monospace" font-size="11.00">MessageInterface</text>
</g>
<!-- \\interfaces\\http\\RequestInterface&#45;&gt;\\interfaces\\http\\MessageInterface -->
<g id="edge24" class="edge"><title>\\interfaces\\http\\RequestInterface&#45;&gt;\\interfaces\\http\\MessageInterface</title>
<path fill="none" stroke="black" d="M231.937,-1549.61C211.357,-1546.8 188.245,-1543.65 166.975,-1540.75"/>
<polygon fill="none" stroke="black" points="167.406,-1537.27 157.025,-1539.39 166.46,-1544.21 167.406,-1537.27"/>
</g>
<!-- \\interfaces\\http\\ResponseInterface -->
<g id="node28" class="node"><title>\\interfaces\\http\\ResponseInterface</title>
<polygon fill="none" stroke="black" points="360,-1522 229,-1522 229,-1486 360,-1486 360,-1522"/>
<text text-anchor="middle" x="294.5" y="-1501.2" font-family="Courier,monospace" font-size="11.00">ResponseInterface</text>
</g>
<!-- \\interfaces\\http\\ResponseInterface&#45;&gt;\\interfaces\\http\\MessageInterface -->
<g id="edge25" class="edge"><title>\\interfaces\\http\\ResponseInterface&#45;&gt;\\interfaces\\http\\MessageInterface</title>
<path fill="none" stroke="black" d="M228.941,-1512.8C209.247,-1515.49 187.475,-1518.46 167.33,-1521.2"/>
<polygon fill="none" stroke="black" points="166.712,-1517.76 157.277,-1522.58 167.658,-1524.69 166.712,-1517.76"/>
</g>
<!-- \\interfaces\\http\\UploadedFileInterface -->
<g id="node29" class="node"><title>\\interfaces\\http\\UploadedFileInterface</title>
<polygon fill="none" stroke="black" points="593.5,-1522 435.5,-1522 435.5,-1486 593.5,-1486 593.5,-1522"/>
<text text-anchor="middle" x="514.5" y="-1501.2" font-family="Courier,monospace" font-size="11.00">UploadedFileInterface</text>
</g>
<!-- \\interfaces\\http\\StreamInterface -->
<g id="node30" class="node"><title>\\interfaces\\http\\StreamInterface</title>
<polygon fill="none" stroke="black" points="573.5,-1468 455.5,-1468 455.5,-1432 573.5,-1432 573.5,-1468"/>
<text text-anchor="middle" x="514.5" y="-1447.2" font-family="Courier,monospace" font-size="11.00">StreamInterface</text>
</g>
<!-- \\interfaces\\http\\UriInterface -->
<g id="node31" class="node"><title>\\interfaces\\http\\UriInterface</title>
<polygon fill="none" stroke="black" points="563.5,-1414 465.5,-1414 465.5,-1378 563.5,-1378 563.5,-1414"/>
<text text-anchor="middle" x="514.5" y="-1393.2" font-family="Courier,monospace" font-size="11.00">UriInterface</text>
</g>
<!-- \\interfaces\\ServiceInterface -->
<g id="node33" class="node"><title>\\interfaces\\ServiceInterface</title>
<polygon fill="none" stroke="black" points="577,-1360 452,-1360 452,-1324 577,-1324 577,-1360"/>
<text text-anchor="middle" x="514.5" y="-1339.2" font-family="Courier,monospace" font-size="11.00">ServiceInterface</text>
</g>
<!-- \\interfaces\\FileManagerInterface -->
<g id="node34" class="node"><title>\\interfaces\\FileManagerInterface</title>
<polygon fill="none" stroke="black" points="590.5,-1306 438.5,-1306 438.5,-1270 590.5,-1270 590.5,-1306"/>
<text text-anchor="middle" x="514.5" y="-1285.2" font-family="Courier,monospace" font-size="11.00">FileManagerInterface</text>
</g>
<!-- \\controllers\\UserController -->
<g id="node36" class="node"><title>\\controllers\\UserController</title>
<polygon fill="none" stroke="black" points="1097.88,-1764 986.882,-1764 986.882,-1728 1097.88,-1728 1097.88,-1764"/>
<text text-anchor="middle" x="1042.38" y="-1743.2" font-family="Courier,monospace" font-size="11.00">UserController</text>
</g>
<!-- \\controllers\\UserController&#45;&gt;\\abstracts\\AbstractController -->
<g id="edge6" class="edge"><title>\\controllers\\UserController&#45;&gt;\\abstracts\\AbstractController</title>
<path fill="none" stroke="black" d="M986.625,-1740.46C967.632,-1736.6 946.963,-1730.06 930.382,-1719 857.941,-1670.68 806.813,-1577.27 784.793,-1531.14"/>
<polygon fill="none" stroke="black" points="787.946,-1529.62 780.538,-1522.05 781.606,-1532.59 787.946,-1529.62"/>
</g>
<!-- \\controllers\\KibanaController -->
<g id="node37" class="node"><title>\\controllers\\KibanaController</title>
<polygon fill="none" stroke="black" points="1104.88,-1710 979.882,-1710 979.882,-1674 1104.88,-1674 1104.88,-1710"/>
<text text-anchor="middle" x="1042.38" y="-1689.2" font-family="Courier,monospace" font-size="11.00">KibanaController</text>
</g>
<!-- \\controllers\\KibanaController&#45;&gt;\\abstracts\\AbstractController -->
<g id="edge20" class="edge"><title>\\controllers\\KibanaController&#45;&gt;\\abstracts\\AbstractController</title>
<path fill="none" stroke="black" d="M1001.99,-1673.91C980.245,-1663.31 953.125,-1649.08 930.382,-1634 881.52,-1601.6 830.039,-1556.87 799.676,-1529.22"/>
<polygon fill="none" stroke="black" points="801.796,-1526.42 792.059,-1522.24 797.066,-1531.58 801.796,-1526.42"/>
</g>
<!-- \\traits\\PrettyOutputTrait -->
<g id="node38" class="node"><title>\\traits\\PrettyOutputTrait</title>
<polygon fill="none" stroke="black" points="1107.88,-446 976.882,-446 976.882,-410 1107.88,-410 1107.88,-446"/>
<text text-anchor="middle" x="1042.38" y="-425.2" font-family="Courier,monospace" font-size="11.00">PrettyOutputTrait</text>
</g>
<!-- \\traits\\EchoTrait -->
<g id="node39" class="node"><title>\\traits\\EchoTrait</title>
<polygon fill="none" stroke="black" points="1080.88,-392 1003.88,-392 1003.88,-356 1080.88,-356 1080.88,-392"/>
<text text-anchor="middle" x="1042.38" y="-371.2" font-family="Courier,monospace" font-size="11.00">EchoTrait</text>
</g>
<!-- \\traits\\ShortcutsTrait -->
<g id="node40" class="node"><title>\\traits\\ShortcutsTrait</title>
<polygon fill="none" stroke="black" points="1097.88,-338 986.882,-338 986.882,-302 1097.88,-302 1097.88,-338"/>
<text text-anchor="middle" x="1042.38" y="-317.2" font-family="Courier,monospace" font-size="11.00">ShortcutsTrait</text>
</g>
<!-- \\tests\\Traits -->
<g id="node41" class="node"><title>\\tests\\Traits</title>
<polygon fill="none" stroke="black" points="1070.88,-258 1013.88,-258 1013.88,-222 1070.88,-222 1070.88,-258"/>
<text text-anchor="middle" x="1042.38" y="-237.2" font-family="Courier,monospace" font-size="11.00">Traits</text>
</g>
</g>
</svg>
