<?xml version="1.0" encoding="UTF-8" standalone="no"?>
<!DOCTYPE svg PUBLIC "-//W3C//DTD SVG 1.1//EN"
 "http://www.w3.org/Graphics/SVG/1.1/DTD/svg11.dtd">
<!-- Generated by graphviz version 2.38.0 (20140413.2041)
 -->
<!-- Title: G Pages: 1 -->
<svg width="1042pt" height="682pt"
 viewBox="0.00 0.00 1042.00 682.00" xmlns="http://www.w3.org/2000/svg" xmlns:xlink="http://www.w3.org/1999/xlink">
<g id="graph0" class="graph" transform="scale(1 1) rotate(0) translate(4 678)">
<title>G</title>
<polygon fill="white" stroke="none" points="-4,4 -4,-678 1038,-678 1038,4 -4,4"/>
<g id="clust1" class="cluster"><title>cluster_Global</title>
<path fill="none" stroke="gray" d="M20,-206C20,-206 1014,-206 1014,-206 1020,-206 1026,-212 1026,-218 1026,-218 1026,-654 1026,-654 1026,-660 1020,-666 1014,-666 1014,-666 20,-666 20,-666 14,-666 8,-660 8,-654 8,-654 8,-218 8,-218 8,-212 14,-206 20,-206"/>
<text text-anchor="middle" x="517" y="-653.2" font-family="Times New Roman,serif" font-size="11.00" fill="gray">Global</text>
</g>
<g id="clust3" class="cluster"><title>cluster_\interfaces</title>
<path fill="none" stroke="gray" d="M28,-214C28,-214 601,-214 601,-214 607,-214 613,-220 613,-226 613,-226 613,-626 613,-626 613,-632 607,-638 601,-638 601,-638 28,-638 28,-638 22,-638 16,-632 16,-626 16,-626 16,-226 16,-226 16,-220 22,-214 28,-214"/>
<text text-anchor="middle" x="314.5" y="-625.2" font-family="Times New Roman,serif" font-size="11.00" fill="gray">interfaces</text>
</g>
<g id="clust4" class="cluster"><title>cluster_\interfaces\http</title>
<path fill="none" stroke="gray" d="M36,-376C36,-376 593,-376 593,-376 599,-376 605,-382 605,-388 605,-388 605,-598 605,-598 605,-604 599,-610 593,-610 593,-610 36,-610 36,-610 30,-610 24,-604 24,-598 24,-598 24,-388 24,-388 24,-382 30,-376 36,-376"/>
<text text-anchor="middle" x="314.5" y="-597.2" font-family="Times New Roman,serif" font-size="11.00" fill="gray">http</text>
</g>
<g id="clust2" class="cluster"><title>cluster_\abstracts</title>
<path fill="none" stroke="gray" d="M673,-214C673,-214 803,-214 803,-214 809,-214 815,-220 815,-226 815,-226 815,-544 815,-544 815,-550 809,-556 803,-556 803,-556 673,-556 673,-556 667,-556 661,-550 661,-544 661,-544 661,-226 661,-226 661,-220 667,-214 673,-214"/>
<text text-anchor="middle" x="738" y="-543.2" font-family="Times New Roman,serif" font-size="11.00" fill="gray">abstracts</text>
</g>
<g id="clust5" class="cluster"><title>cluster_\controllers</title>
<path fill="none" stroke="gray" d="M886,-482C886,-482 1003,-482 1003,-482 1009,-482 1015,-488 1015,-494 1015,-494 1015,-596 1015,-596 1015,-602 1009,-608 1003,-608 1003,-608 886,-608 886,-608 880,-608 874,-602 874,-596 874,-596 874,-494 874,-494 874,-488 880,-482 886,-482"/>
<text text-anchor="middle" x="944.5" y="-595.2" font-family="Times New Roman,serif" font-size="11.00" fill="gray">controllers</text>
</g>
<g id="clust6" class="cluster"><title>cluster_\traits</title>
<path fill="none" stroke="gray" d="M883,-294C883,-294 1006,-294 1006,-294 1012,-294 1018,-300 1018,-306 1018,-306 1018,-462 1018,-462 1018,-468 1012,-474 1006,-474 1006,-474 883,-474 883,-474 877,-474 871,-468 871,-462 871,-462 871,-306 871,-306 871,-300 877,-294 883,-294"/>
<text text-anchor="middle" x="944.5" y="-461.2" font-family="Times New Roman,serif" font-size="11.00" fill="gray">traits</text>
</g>
<g id="clust7" class="cluster"><title>cluster_\tests</title>
<path fill="none" stroke="gray" d="M920,-214C920,-214 969,-214 969,-214 975,-214 981,-220 981,-226 981,-226 981,-274 981,-274 981,-280 975,-286 969,-286 969,-286 920,-286 920,-286 914,-286 908,-280 908,-274 908,-274 908,-226 908,-226 908,-220 914,-214 920,-214"/>
<text text-anchor="middle" x="944.5" y="-273.2" font-family="Times New Roman,serif" font-size="11.00" fill="gray">tests</text>
</g>
<!-- \\abstracts\\Entity -->
<g id="node1" class="node"><title>\\abstracts\\Entity</title>
<polygon fill="none" stroke="black" points="780,-528 696,-528 696,-492 780,-492 780,-528"/>
<text text-anchor="start" x="704" y="-513.2" font-family="Courier,monospace" font-size="11.00">«abstract»</text>
<text text-anchor="start" x="717.5" y="-501.2" font-family="Courier,monospace" font-size="11.00">Entity</text>
</g>
<!-- \\abstracts\\API -->
<g id="node2" class="node"><title>\\abstracts\\API</title>
<polygon fill="none" stroke="black" points="780,-474 696,-474 696,-438 780,-438 780,-474"/>
<text text-anchor="start" x="704" y="-459.2" font-family="Courier,monospace" font-size="11.00">«abstract»</text>
<text text-anchor="start" x="727.5" y="-447.2" font-family="Courier,monospace" font-size="11.00">API</text>
</g>
<!-- \\abstracts\\AbstractLogger -->
<g id="node3" class="node"><title>\\abstracts\\AbstractLogger</title>
<polygon fill="none" stroke="black" points="793.5,-420 682.5,-420 682.5,-384 793.5,-384 793.5,-420"/>
<text text-anchor="start" x="704" y="-405.2" font-family="Courier,monospace" font-size="11.00">«abstract»</text>
<text text-anchor="start" x="690.5" y="-393.2" font-family="Courier,monospace" font-size="11.00">AbstractLogger</text>
</g>
<!-- \\interfaces\\LoggerInterface -->
<g id="node16" class="node"><title>\\interfaces\\LoggerInterface</title>
<polygon fill="none" stroke="black" points="573.5,-258 455.5,-258 455.5,-222 573.5,-222 573.5,-258"/>
<text text-anchor="middle" x="514.5" y="-237.2" font-family="Courier,monospace" font-size="11.00">LoggerInterface</text>
</g>
<!-- \\abstracts\\AbstractLogger&#45;&gt;\\interfaces\\LoggerInterface -->
<g id="edge2" class="edge"><title>\\abstracts\\AbstractLogger&#45;&gt;\\interfaces\\LoggerInterface</title>
<path fill="none" stroke="black" stroke-dasharray="1,5" d="M682.408,-388.792C674.614,-385.224 667.165,-380.708 661,-375 622.458,-339.312 652.788,-301.293 613,-267 604.408,-259.594 593.946,-254.207 583.104,-250.291"/>
<polygon fill="none" stroke="black" points="584.107,-246.937 573.516,-247.214 581.968,-253.602 584.107,-246.937"/>
</g>
<!-- \\abstracts\\Manager -->
<g id="node4" class="node"><title>\\abstracts\\Manager</title>
<polygon fill="none" stroke="black" points="780,-366 696,-366 696,-330 780,-330 780,-366"/>
<text text-anchor="start" x="704" y="-351.2" font-family="Courier,monospace" font-size="11.00">«abstract»</text>
<text text-anchor="start" x="714" y="-339.2" font-family="Courier,monospace" font-size="11.00">Manager</text>
</g>
<!-- \\abstracts\\Collection -->
<g id="node5" class="node"><title>\\abstracts\\Collection</title>
<polygon fill="none" stroke="black" points="780,-312 696,-312 696,-276 780,-276 780,-312"/>
<text text-anchor="start" x="704" y="-297.2" font-family="Courier,monospace" font-size="11.00">«abstract»</text>
<text text-anchor="start" x="704" y="-285.2" font-family="Courier,monospace" font-size="11.00">Collection</text>
</g>
<!-- \\Iterator -->
<g id="node23" class="node"><title>\\Iterator</title>
<ellipse fill="none" stroke="black" cx="514.5" cy="-180" rx="39.7935" ry="18"/>
<text text-anchor="middle" x="514.5" y="-176.3" font-family="Times New Roman,serif" font-size="14.00" fill="gray">\Iterator</text>
</g>
<!-- \\abstracts\\Collection&#45;&gt;\\Iterator -->
<g id="edge3" class="edge"><title>\\abstracts\\Collection&#45;&gt;\\Iterator</title>
<path fill="none" stroke="black" stroke-dasharray="1,5" d="M695.64,-283.721C683.825,-279.648 671.357,-274.179 661,-267 633.781,-248.132 640.617,-228.28 613,-210 597.692,-199.867 578.795,-193.022 561.726,-188.463"/>
<polygon fill="none" stroke="black" points="562.476,-185.043 551.928,-186.035 560.793,-191.837 562.476,-185.043"/>
</g>
<!-- \\ArrayAccess -->
<g id="node24" class="node"><title>\\ArrayAccess</title>
<ellipse fill="none" stroke="black" cx="514.5" cy="-126" rx="60.3893" ry="18"/>
<text text-anchor="middle" x="514.5" y="-122.3" font-family="Times New Roman,serif" font-size="14.00" fill="gray">\ArrayAccess</text>
</g>
<!-- \\abstracts\\Collection&#45;&gt;\\ArrayAccess -->
<g id="edge4" class="edge"><title>\\abstracts\\Collection&#45;&gt;\\ArrayAccess</title>
<path fill="none" stroke="black" stroke-dasharray="1,5" d="M695.712,-286.105C683.358,-282.078 670.569,-276.037 661,-267 621.032,-229.254 654.286,-189.3 613,-153 603.88,-144.981 592.574,-139.325 580.928,-135.339"/>
<polygon fill="none" stroke="black" points="581.692,-131.913 571.107,-132.369 579.666,-138.614 581.692,-131.913"/>
</g>
<!-- \\Countable -->
<g id="node25" class="node"><title>\\Countable</title>
<ellipse fill="none" stroke="black" cx="514.5" cy="-72" rx="50.0912" ry="18"/>
<text text-anchor="middle" x="514.5" y="-68.3" font-family="Times New Roman,serif" font-size="14.00" fill="gray">\Countable</text>
</g>
<!-- \\abstracts\\Collection&#45;&gt;\\Countable -->
<g id="edge5" class="edge"><title>\\abstracts\\Collection&#45;&gt;\\Countable</title>
<path fill="none" stroke="black" stroke-dasharray="1,5" d="M695.829,-287.027C683.188,-283.047 670.201,-276.8 661,-267 607.848,-210.386 668.133,-153.686 613,-99 602.361,-88.4477 587.985,-81.93 573.544,-77.9297"/>
<polygon fill="none" stroke="black" points="574.122,-74.4691 563.582,-75.5439 572.492,-81.2766 574.122,-74.4691"/>
</g>
<!-- \\SeekableIterator -->
<g id="node26" class="node"><title>\\SeekableIterator</title>
<ellipse fill="none" stroke="black" cx="514.5" cy="-18" rx="71.4873" ry="18"/>
<text text-anchor="middle" x="514.5" y="-14.3" font-family="Times New Roman,serif" font-size="14.00" fill="gray">\SeekableIterator</text>
</g>
<!-- \\abstracts\\Collection&#45;&gt;\\SeekableIterator -->
<g id="edge6" class="edge"><title>\\abstracts\\Collection&#45;&gt;\\SeekableIterator</title>
<path fill="none" stroke="black" stroke-dasharray="1,5" d="M695.844,-287.496C683.051,-283.547 669.968,-277.201 661,-267 594.347,-191.187 682.309,-118.393 613,-45 606.422,-38.0339 598.219,-32.8107 589.384,-28.9037"/>
<polygon fill="none" stroke="black" points="590.58,-25.6136 579.99,-25.291 588.067,-32.1471 590.58,-25.6136"/>
</g>
<!-- \\abstracts\\AbstractController -->
<g id="node6" class="node"><title>\\abstracts\\AbstractController</title>
<polygon fill="none" stroke="black" points="807,-258 669,-258 669,-222 807,-222 807,-258"/>
<text text-anchor="start" x="704" y="-243.2" font-family="Courier,monospace" font-size="11.00">«abstract»</text>
<text text-anchor="start" x="677" y="-231.2" font-family="Courier,monospace" font-size="11.00">AbstractController</text>
</g>
<!-- \\interfaces\\http\\ServerRequestInterface -->
<g id="node7" class="node"><title>\\interfaces\\http\\ServerRequestInterface</title>
<polygon fill="none" stroke="black" points="597,-582 432,-582 432,-546 597,-546 597,-582"/>
<text text-anchor="middle" x="514.5" y="-561.2" font-family="Courier,monospace" font-size="11.00">ServerRequestInterface</text>
</g>
<!-- \\interfaces\\http\\RequestInterface -->
<g id="node8" class="node"><title>\\interfaces\\http\\RequestInterface</title>
<polygon fill="none" stroke="black" points="357,-582 232,-582 232,-546 357,-546 357,-582"/>
<text text-anchor="middle" x="294.5" y="-561.2" font-family="Courier,monospace" font-size="11.00">RequestInterface</text>
</g>
<!-- \\interfaces\\http\\ServerRequestInterface&#45;&gt;\\interfaces\\http\\RequestInterface -->
<g id="edge8" class="edge"><title>\\interfaces\\http\\ServerRequestInterface&#45;&gt;\\interfaces\\http\\RequestInterface</title>
<path fill="none" stroke="black" d="M431.705,-564C410.62,-564 388.085,-564 367.537,-564"/>
<polygon fill="none" stroke="black" points="367.31,-560.5 357.31,-564 367.31,-567.5 367.31,-560.5"/>
</g>
<!-- \\interfaces\\http\\MessageInterface -->
<g id="node13" class="node"><title>\\interfaces\\http\\MessageInterface</title>
<polygon fill="none" stroke="black" points="157,-555 32,-555 32,-519 157,-519 157,-555"/>
<text text-anchor="middle" x="94.5" y="-534.2" font-family="Courier,monospace" font-size="11.00">MessageInterface</text>
</g>
<!-- \\interfaces\\http\\RequestInterface&#45;&gt;\\interfaces\\http\\MessageInterface -->
<g id="edge9" class="edge"><title>\\interfaces\\http\\RequestInterface&#45;&gt;\\interfaces\\http\\MessageInterface</title>
<path fill="none" stroke="black" d="M231.937,-555.605C211.357,-552.799 188.245,-549.647 166.975,-546.747"/>
<polygon fill="none" stroke="black" points="167.406,-543.273 157.025,-545.39 166.46,-550.209 167.406,-543.273"/>
</g>
<!-- \\interfaces\\http\\ResponseInterface -->
<g id="node9" class="node"><title>\\interfaces\\http\\ResponseInterface</title>
<polygon fill="none" stroke="black" points="360,-528 229,-528 229,-492 360,-492 360,-528"/>
<text text-anchor="middle" x="294.5" y="-507.2" font-family="Courier,monospace" font-size="11.00">ResponseInterface</text>
</g>
<!-- \\interfaces\\http\\ResponseInterface&#45;&gt;\\interfaces\\http\\MessageInterface -->
<g id="edge10" class="edge"><title>\\interfaces\\http\\ResponseInterface&#45;&gt;\\interfaces\\http\\MessageInterface</title>
<path fill="none" stroke="black" d="M228.941,-518.803C209.247,-521.489 187.475,-524.458 167.33,-527.205"/>
<polygon fill="none" stroke="black" points="166.712,-523.757 157.277,-528.576 167.658,-530.693 166.712,-523.757"/>
</g>
<!-- \\interfaces\\http\\UploadedFileInterface -->
<g id="node10" class="node"><title>\\interfaces\\http\\UploadedFileInterface</title>
<polygon fill="none" stroke="black" points="593.5,-528 435.5,-528 435.5,-492 593.5,-492 593.5,-528"/>
<text text-anchor="middle" x="514.5" y="-507.2" font-family="Courier,monospace" font-size="11.00">UploadedFileInterface</text>
</g>
<!-- \\interfaces\\http\\StreamInterface -->
<g id="node11" class="node"><title>\\interfaces\\http\\StreamInterface</title>
<polygon fill="none" stroke="black" points="573.5,-474 455.5,-474 455.5,-438 573.5,-438 573.5,-474"/>
<text text-anchor="middle" x="514.5" y="-453.2" font-family="Courier,monospace" font-size="11.00">StreamInterface</text>
</g>
<!-- \\interfaces\\http\\UriInterface -->
<g id="node12" class="node"><title>\\interfaces\\http\\UriInterface</title>
<polygon fill="none" stroke="black" points="563.5,-420 465.5,-420 465.5,-384 563.5,-384 563.5,-420"/>
<text text-anchor="middle" x="514.5" y="-399.2" font-family="Courier,monospace" font-size="11.00">UriInterface</text>
</g>
<!-- \\interfaces\\ServiceInterface -->
<g id="node14" class="node"><title>\\interfaces\\ServiceInterface</title>
<polygon fill="none" stroke="black" points="577,-366 452,-366 452,-330 577,-330 577,-366"/>
<text text-anchor="middle" x="514.5" y="-345.2" font-family="Courier,monospace" font-size="11.00">ServiceInterface</text>
</g>
<!-- \\interfaces\\FileManagerInterface -->
<g id="node15" class="node"><title>\\interfaces\\FileManagerInterface</title>
<polygon fill="none" stroke="black" points="590.5,-312 438.5,-312 438.5,-276 590.5,-276 590.5,-312"/>
<text text-anchor="middle" x="514.5" y="-291.2" font-family="Courier,monospace" font-size="11.00">FileManagerInterface</text>
</g>
<!-- \\controllers\\UserController -->
<g id="node17" class="node"><title>\\controllers\\UserController</title>
<polygon fill="none" stroke="black" points="1000,-580 889,-580 889,-544 1000,-544 1000,-580"/>
<text text-anchor="middle" x="944.5" y="-559.2" font-family="Courier,monospace" font-size="11.00">UserController</text>
</g>
<!-- \\controllers\\UserController&#45;&gt;\\abstracts\\AbstractController -->
<g id="edge1" class="edge"><title>\\controllers\\UserController&#45;&gt;\\abstracts\\AbstractController</title>
<path fill="none" stroke="black" d="M888.869,-548.754C882.131,-545.203 875.904,-540.703 871,-535 791.669,-442.731 895.027,-358.666 815,-267 814.263,-266.156 813.498,-265.339 812.708,-264.547"/>
<polygon fill="none" stroke="black" points="814.886,-261.806 804.966,-258.087 810.402,-267.181 814.886,-261.806"/>
</g>
<!-- \\controllers\\KibanaController -->
<g id="node18" class="node"><title>\\controllers\\KibanaController</title>
<polygon fill="none" stroke="black" points="1007,-526 882,-526 882,-490 1007,-490 1007,-526"/>
<text text-anchor="middle" x="944.5" y="-505.2" font-family="Courier,monospace" font-size="11.00">KibanaController</text>
</g>
<!-- \\controllers\\KibanaController&#45;&gt;\\abstracts\\AbstractController -->
<g id="edge7" class="edge"><title>\\controllers\\KibanaController&#45;&gt;\\abstracts\\AbstractController</title>
<path fill="none" stroke="black" d="M885.16,-489.856C879.895,-486.531 875.037,-482.613 871,-478 807.101,-404.989 880.739,-338.359 815,-267 814.217,-266.15 813.406,-265.327 812.569,-264.53"/>
<polygon fill="none" stroke="black" points="814.413,-261.525 804.41,-258.033 810.053,-267.001 814.413,-261.525"/>
</g>
<!-- \\traits\\PrettyOutputTrait -->
<g id="node19" class="node"><title>\\traits\\PrettyOutputTrait</title>
<polygon fill="none" stroke="black" points="1010,-446 879,-446 879,-410 1010,-410 1010,-446"/>
<text text-anchor="middle" x="944.5" y="-425.2" font-family="Courier,monospace" font-size="11.00">PrettyOutputTrait</text>
</g>
<!-- \\traits\\EchoTrait -->
<g id="node20" class="node"><title>\\traits\\EchoTrait</title>
<polygon fill="none" stroke="black" points="983,-392 906,-392 906,-356 983,-356 983,-392"/>
<text text-anchor="middle" x="944.5" y="-371.2" font-family="Courier,monospace" font-size="11.00">EchoTrait</text>
</g>
<!-- \\traits\\ShortcutsTrait -->
<g id="node21" class="node"><title>\\traits\\ShortcutsTrait</title>
<polygon fill="none" stroke="black" points="1000,-338 889,-338 889,-302 1000,-302 1000,-338"/>
<text text-anchor="middle" x="944.5" y="-317.2" font-family="Courier,monospace" font-size="11.00">ShortcutsTrait</text>
</g>
<!-- \\tests\\Traits -->
<g id="node22" class="node"><title>\\tests\\Traits</title>
<polygon fill="none" stroke="black" points="973,-258 916,-258 916,-222 973,-222 973,-258"/>
<text text-anchor="middle" x="944.5" y="-237.2" font-family="Courier,monospace" font-size="11.00">Traits</text>
</g>
</g>
</svg>
