<?xml version="1.0" encoding="UTF-8" standalone="no"?>
<!DOCTYPE svg PUBLIC "-//W3C//DTD SVG 1.1//EN"
 "http://www.w3.org/Graphics/SVG/1.1/DTD/svg11.dtd">
<!-- Generated by graphviz version 2.38.0 (20140413.2041)
 -->
<!-- Title: G Pages: 1 -->
<svg width="1178pt" height="2032pt"
 viewBox="0.00 0.00 1178.38 2032.00" xmlns="http://www.w3.org/2000/svg" xmlns:xlink="http://www.w3.org/1999/xlink">
<g id="graph0" class="graph" transform="scale(1 1) rotate(0) translate(4 2028)">
<title>G</title>
<polygon fill="white" stroke="none" points="-4,4 -4,-2028 1174.38,-2028 1174.38,4 -4,4"/>
<g id="clust1" class="cluster"><title>cluster_Global</title>
<path fill="none" stroke="gray" d="M20,-206C20,-206 1150.38,-206 1150.38,-206 1156.38,-206 1162.38,-212 1162.38,-218 1162.38,-218 1162.38,-2004 1162.38,-2004 1162.38,-2010 1156.38,-2016 1150.38,-2016 1150.38,-2016 20,-2016 20,-2016 14,-2016 8,-2010 8,-2004 8,-2004 8,-218 8,-218 8,-212 14,-206 20,-206"/>
<text text-anchor="middle" x="585.191" y="-2003.2" font-family="Times New Roman,serif" font-size="11.00" fill="gray">Global</text>
</g>
<g id="clust2" class="cluster"><title>cluster_\classes</title>
<path fill="none" stroke="gray" d="M942.382,-482C942.382,-482 1142.38,-482 1142.38,-482 1148.38,-482 1154.38,-488 1154.38,-494 1154.38,-494 1154.38,-1842 1154.38,-1842 1154.38,-1848 1148.38,-1854 1142.38,-1854 1142.38,-1854 942.382,-1854 942.382,-1854 936.382,-1854 930.382,-1848 930.382,-1842 930.382,-1842 930.382,-494 930.382,-494 930.382,-488 936.382,-482 942.382,-482"/>
<text text-anchor="middle" x="1042.38" y="-1841.2" font-family="Times New Roman,serif" font-size="11.00" fill="gray">classes</text>
</g>
<g id="clust3" class="cluster"><title>cluster_\classes\entitiesCollection</title>
<path fill="none" stroke="gray" d="M960.382,-974C960.382,-974 1124.38,-974 1124.38,-974 1130.38,-974 1136.38,-980 1136.38,-986 1136.38,-986 1136.38,-1196 1136.38,-1196 1136.38,-1202 1130.38,-1208 1124.38,-1208 1124.38,-1208 960.382,-1208 960.382,-1208 954.382,-1208 948.382,-1202 948.382,-1196 948.382,-1196 948.382,-986 948.382,-986 948.382,-980 954.382,-974 960.382,-974"/>
<text text-anchor="middle" x="1042.38" y="-1195.2" font-family="Times New Roman,serif" font-size="11.00" fill="gray">entitiesCollection</text>
</g>
<g id="clust4" class="cluster"><title>cluster_\classes\entitiesManager</title>
<path fill="none" stroke="gray" d="M950.382,-624C950.382,-624 1134.38,-624 1134.38,-624 1140.38,-624 1146.38,-630 1146.38,-636 1146.38,-636 1146.38,-954 1146.38,-954 1146.38,-960 1140.38,-966 1134.38,-966 1134.38,-966 950.382,-966 950.382,-966 944.382,-966 938.382,-960 938.382,-954 938.382,-954 938.382,-636 938.382,-636 938.382,-630 944.382,-624 950.382,-624"/>
<text text-anchor="middle" x="1042.38" y="-953.2" font-family="Times New Roman,serif" font-size="11.00" fill="gray">entitiesManager</text>
</g>
<g id="clust5" class="cluster"><title>cluster_\classes\entities</title>
<path fill="none" stroke="gray" d="M994.382,-1404C994.382,-1404 1090.38,-1404 1090.38,-1404 1096.38,-1404 1102.38,-1410 1102.38,-1416 1102.38,-1416 1102.38,-1734 1102.38,-1734 1102.38,-1740 1096.38,-1746 1090.38,-1746 1090.38,-1746 994.382,-1746 994.382,-1746 988.382,-1746 982.382,-1740 982.382,-1734 982.382,-1734 982.382,-1416 982.382,-1416 982.382,-1410 988.382,-1404 994.382,-1404"/>
<text text-anchor="middle" x="1042.38" y="-1733.2" font-family="Times New Roman,serif" font-size="11.00" fill="gray">entities</text>
</g>
<g id="clust6" class="cluster"><title>cluster_\classes\logger</title>
<path fill="none" stroke="gray" d="M994.382,-1216C994.382,-1216 1090.38,-1216 1090.38,-1216 1096.38,-1216 1102.38,-1222 1102.38,-1228 1102.38,-1228 1102.38,-1384 1102.38,-1384 1102.38,-1390 1096.38,-1396 1090.38,-1396 1090.38,-1396 994.382,-1396 994.382,-1396 988.382,-1396 982.382,-1390 982.382,-1384 982.382,-1384 982.382,-1228 982.382,-1228 982.382,-1222 988.382,-1216 994.382,-1216"/>
<text text-anchor="middle" x="1042.38" y="-1383.2" font-family="Times New Roman,serif" font-size="11.00" fill="gray">logger</text>
</g>
<g id="clust7" class="cluster"><title>cluster_\classes\console</title>
<path fill="none" stroke="gray" d="M994.382,-490C994.382,-490 1090.38,-490 1090.38,-490 1096.38,-490 1102.38,-496 1102.38,-502 1102.38,-502 1102.38,-604 1102.38,-604 1102.38,-610 1096.38,-616 1090.38,-616 1090.38,-616 994.382,-616 994.382,-616 988.382,-616 982.382,-610 982.382,-604 982.382,-604 982.382,-502 982.382,-502 982.382,-496 988.382,-490 994.382,-490"/>
<text text-anchor="middle" x="1042.38" y="-603.2" font-family="Times New Roman,serif" font-size="11.00" fill="gray">console</text>
</g>
<g id="clust8" class="cluster"><title>cluster_\classes\fileManager</title>
<path fill="none" stroke="gray" d="M987.382,-1754C987.382,-1754 1097.38,-1754 1097.38,-1754 1103.38,-1754 1109.38,-1760 1109.38,-1766 1109.38,-1766 1109.38,-1814 1109.38,-1814 1109.38,-1820 1103.38,-1826 1097.38,-1826 1097.38,-1826 987.382,-1826 987.382,-1826 981.382,-1826 975.382,-1820 975.382,-1814 975.382,-1814 975.382,-1766 975.382,-1766 975.382,-1760 981.382,-1754 987.382,-1754"/>
<text text-anchor="middle" x="1042.38" y="-1813.2" font-family="Times New Roman,serif" font-size="11.00" fill="gray">fileManager</text>
</g>
<g id="clust9" class="cluster"><title>cluster_\abstracts</title>
<path fill="none" stroke="gray" d="M706.691,-1216C706.691,-1216 836.691,-1216 836.691,-1216 842.691,-1216 848.691,-1222 848.691,-1228 848.691,-1228 848.691,-1546 848.691,-1546 848.691,-1552 842.691,-1558 836.691,-1558 836.691,-1558 706.691,-1558 706.691,-1558 700.691,-1558 694.691,-1552 694.691,-1546 694.691,-1546 694.691,-1228 694.691,-1228 694.691,-1222 700.691,-1216 706.691,-1216"/>
<text text-anchor="middle" x="771.691" y="-1545.2" font-family="Times New Roman,serif" font-size="11.00" fill="gray">abstracts</text>
</g>
<g id="clust10" class="cluster"><title>cluster_\interfaces</title>
<path fill="none" stroke="gray" d="M28,-1417C28,-1417 601,-1417 601,-1417 607,-1417 613,-1423 613,-1429 613,-1429 613,-1829 613,-1829 613,-1835 607,-1841 601,-1841 601,-1841 28,-1841 28,-1841 22,-1841 16,-1835 16,-1829 16,-1829 16,-1429 16,-1429 16,-1423 22,-1417 28,-1417"/>
<text text-anchor="middle" x="314.5" y="-1828.2" font-family="Times New Roman,serif" font-size="11.00" fill="gray">interfaces</text>
</g>
<g id="clust11" class="cluster"><title>cluster_\interfaces\http</title>
<path fill="none" stroke="gray" d="M36,-1579C36,-1579 593,-1579 593,-1579 599,-1579 605,-1585 605,-1591 605,-1591 605,-1801 605,-1801 605,-1807 599,-1813 593,-1813 593,-1813 36,-1813 36,-1813 30,-1813 24,-1807 24,-1801 24,-1801 24,-1591 24,-1591 24,-1585 30,-1579 36,-1579"/>
<text text-anchor="middle" x="314.5" y="-1800.2" font-family="Times New Roman,serif" font-size="11.00" fill="gray">http</text>
</g>
<g id="clust14" class="cluster"><title>cluster_\controllers</title>
<path fill="none" stroke="gray" d="M983.882,-1862C983.882,-1862 1100.88,-1862 1100.88,-1862 1106.88,-1862 1112.88,-1868 1112.88,-1874 1112.88,-1874 1112.88,-1976 1112.88,-1976 1112.88,-1982 1106.88,-1988 1100.88,-1988 1100.88,-1988 983.882,-1988 983.882,-1988 977.882,-1988 971.882,-1982 971.882,-1976 971.882,-1976 971.882,-1874 971.882,-1874 971.882,-1868 977.882,-1862 983.882,-1862"/>
<text text-anchor="middle" x="1042.38" y="-1975.2" font-family="Times New Roman,serif" font-size="11.00" fill="gray">controllers</text>
</g>
<g id="clust12" class="cluster"><title>cluster_\traits</title>
<path fill="none" stroke="gray" d="M980.882,-294C980.882,-294 1103.88,-294 1103.88,-294 1109.88,-294 1115.88,-300 1115.88,-306 1115.88,-306 1115.88,-462 1115.88,-462 1115.88,-468 1109.88,-474 1103.88,-474 1103.88,-474 980.882,-474 980.882,-474 974.882,-474 968.882,-468 968.882,-462 968.882,-462 968.882,-306 968.882,-306 968.882,-300 974.882,-294 980.882,-294"/>
<text text-anchor="middle" x="1042.38" y="-461.2" font-family="Times New Roman,serif" font-size="11.00" fill="gray">traits</text>
</g>
<g id="clust13" class="cluster"><title>cluster_\tests</title>
<path fill="none" stroke="gray" d="M1017.88,-214C1017.88,-214 1066.88,-214 1066.88,-214 1072.88,-214 1078.88,-220 1078.88,-226 1078.88,-226 1078.88,-274 1078.88,-274 1078.88,-280 1072.88,-286 1066.88,-286 1066.88,-286 1017.88,-286 1017.88,-286 1011.88,-286 1005.88,-280 1005.88,-274 1005.88,-274 1005.88,-226 1005.88,-226 1005.88,-220 1011.88,-214 1017.88,-214"/>
<text text-anchor="middle" x="1042.38" y="-273.2" font-family="Times New Roman,serif" font-size="11.00" fill="gray">tests</text>
</g>
<!-- \\classes\\entitiesCollection\\UserChatRightCollection -->
<g id="node1" class="node"><title>\\classes\\entitiesCollection\\UserChatRightCollection</title>
<polygon fill="none" stroke="black" points="1128.38,-1180 956.382,-1180 956.382,-1144 1128.38,-1144 1128.38,-1180"/>
<text text-anchor="middle" x="1042.38" y="-1159.2" font-family="Courier,monospace" font-size="11.00">UserChatRightCollection</text>
</g>
<!-- \\abstracts\\Collection -->
<g id="node27" class="node"><title>\\abstracts\\Collection</title>
<polygon fill="none" stroke="black" points="813.691,-1260 729.691,-1260 729.691,-1224 813.691,-1224 813.691,-1260"/>
<text text-anchor="start" x="737.691" y="-1245.2" font-family="Courier,monospace" font-size="11.00">«abstract»</text>
<text text-anchor="start" x="737.691" y="-1233.2" font-family="Courier,monospace" font-size="11.00">Collection</text>
</g>
<!-- \\classes\\entitiesCollection\\UserChatRightCollection&#45;&gt;\\abstracts\\Collection -->
<g id="edge1" class="edge"><title>\\classes\\entitiesCollection\\UserChatRightCollection&#45;&gt;\\abstracts\\Collection</title>
<path fill="none" stroke="black" d="M980.747,-1180.05C933.405,-1194.15 868.375,-1213.51 823.686,-1226.82"/>
<polygon fill="none" stroke="black" points="822.498,-1223.52 813.912,-1229.73 824.495,-1230.23 822.498,-1223.52"/>
</g>
<!-- \\classes\\entitiesCollection\\ChatRoomCollection -->
<g id="node2" class="node"><title>\\classes\\entitiesCollection\\ChatRoomCollection</title>
<polygon fill="none" stroke="black" points="1111.38,-1126 973.382,-1126 973.382,-1090 1111.38,-1090 1111.38,-1126"/>
<text text-anchor="middle" x="1042.38" y="-1105.2" font-family="Courier,monospace" font-size="11.00">ChatRoomCollection</text>
</g>
<!-- \\classes\\entitiesCollection\\ChatRoomCollection&#45;&gt;\\abstracts\\Collection -->
<g id="edge4" class="edge"><title>\\classes\\entitiesCollection\\ChatRoomCollection&#45;&gt;\\abstracts\\Collection</title>
<path fill="none" stroke="black" d="M973.187,-1120.52C958.733,-1124.28 943.798,-1129.05 930.382,-1135 881.865,-1156.51 832.232,-1193.08 801.933,-1217.39"/>
<polygon fill="none" stroke="black" points="799.475,-1214.88 793.917,-1223.9 803.887,-1220.31 799.475,-1214.88"/>
</g>
<!-- \\classes\\entitiesCollection\\ChatRoomBanCollection -->
<g id="node3" class="node"><title>\\classes\\entitiesCollection\\ChatRoomBanCollection</title>
<polygon fill="none" stroke="black" points="1121.38,-1072 963.382,-1072 963.382,-1036 1121.38,-1036 1121.38,-1072"/>
<text text-anchor="middle" x="1042.38" y="-1051.2" font-family="Courier,monospace" font-size="11.00">ChatRoomBanCollection</text>
</g>
<!-- \\classes\\entitiesCollection\\ChatRoomBanCollection&#45;&gt;\\abstracts\\Collection -->
<g id="edge7" class="edge"><title>\\classes\\entitiesCollection\\ChatRoomBanCollection&#45;&gt;\\abstracts\\Collection</title>
<path fill="none" stroke="black" d="M963.129,-1067.17C951.739,-1070.74 940.466,-1075.26 930.382,-1081 870.188,-1115.24 817.848,-1179.1 791.277,-1215.25"/>
<polygon fill="none" stroke="black" points="788.111,-1213.65 785.087,-1223.81 793.783,-1217.76 788.111,-1213.65"/>
</g>
<!-- \\classes\\entitiesCollection\\UserCollection -->
<g id="node4" class="node"><title>\\classes\\entitiesCollection\\UserCollection</title>
<polygon fill="none" stroke="black" points="1097.88,-1018 986.882,-1018 986.882,-982 1097.88,-982 1097.88,-1018"/>
<text text-anchor="middle" x="1042.38" y="-997.2" font-family="Courier,monospace" font-size="11.00">UserCollection</text>
</g>
<!-- \\classes\\entitiesCollection\\UserCollection&#45;&gt;\\abstracts\\Collection -->
<g id="edge14" class="edge"><title>\\classes\\entitiesCollection\\UserCollection&#45;&gt;\\abstracts\\Collection</title>
<path fill="none" stroke="black" d="M986.625,-1005.54C967.632,-1009.4 946.963,-1015.94 930.382,-1027 857.941,-1075.32 806.813,-1168.73 784.793,-1214.86"/>
<polygon fill="none" stroke="black" points="781.606,-1213.41 780.538,-1223.95 787.946,-1216.38 781.606,-1213.41"/>
</g>
<!-- \\classes\\entitiesManager\\UserEntityManager -->
<g id="node5" class="node"><title>\\classes\\entitiesManager\\UserEntityManager</title>
<polygon fill="none" stroke="black" points="1107.88,-830 976.882,-830 976.882,-794 1107.88,-794 1107.88,-830"/>
<text text-anchor="middle" x="1042.38" y="-809.2" font-family="Courier,monospace" font-size="11.00">UserEntityManager</text>
</g>
<!-- \\abstracts\\EntityManager -->
<g id="node45" class="node"><title>\\abstracts\\EntityManager</title>
<ellipse fill="none" stroke="black" cx="771.691" cy="-180" rx="92.8835" ry="18"/>
<text text-anchor="middle" x="771.691" y="-176.3" font-family="Times New Roman,serif" font-size="14.00" fill="gray">\abstractsntityManager</text>
</g>
<!-- \\classes\\entitiesManager\\UserEntityManager&#45;&gt;\\abstracts\\EntityManager -->
<g id="edge2" class="edge"><title>\\classes\\entitiesManager\\UserEntityManager&#45;&gt;\\abstracts\\EntityManager</title>
<path fill="none" stroke="black" d="M976.787,-808.191C959.828,-804.255 942.823,-797.24 930.382,-785 845.474,-701.471 790.254,-316.528 776.222,-208.349"/>
<polygon fill="none" stroke="black" points="779.665,-207.68 774.922,-198.206 772.722,-208.57 779.665,-207.68"/>
</g>
<!-- \\classes\\entitiesManager\\UserStatisticEntityManager -->
<g id="node6" class="node"><title>\\classes\\entitiesManager\\UserStatisticEntityManager</title>
<polygon fill="none" stroke="black" points="1138.38,-776 946.382,-776 946.382,-740 1138.38,-740 1138.38,-776"/>
<text text-anchor="middle" x="1042.38" y="-755.2" font-family="Courier,monospace" font-size="11.00">UserStatisticEntityManager</text>
</g>
<!-- \\classes\\entitiesManager\\UserStatisticEntityManager&#45;&gt;\\abstracts\\EntityManager -->
<g id="edge5" class="edge"><title>\\classes\\entitiesManager\\UserStatisticEntityManager&#45;&gt;\\abstracts\\EntityManager</title>
<path fill="none" stroke="black" d="M946.184,-742.552C940.449,-739.348 935.102,-735.534 930.382,-731 852.236,-655.929 792.913,-309.725 776.954,-208.111"/>
<polygon fill="none" stroke="black" points="780.377,-207.347 775.383,-198.003 773.46,-208.422 780.377,-207.347"/>
</g>
<!-- \\classes\\entitiesManager\\UserRightEntityManager -->
<g id="node7" class="node"><title>\\classes\\entitiesManager\\UserRightEntityManager</title>
<polygon fill="none" stroke="black" points="1124.88,-722 959.882,-722 959.882,-686 1124.88,-686 1124.88,-722"/>
<text text-anchor="middle" x="1042.38" y="-701.2" font-family="Courier,monospace" font-size="11.00">UserRightEntityManager</text>
</g>
<!-- \\classes\\entitiesManager\\UserRightEntityManager&#45;&gt;\\abstracts\\EntityManager -->
<g id="edge9" class="edge"><title>\\classes\\entitiesManager\\UserRightEntityManager&#45;&gt;\\abstracts\\EntityManager</title>
<path fill="none" stroke="black" d="M959.701,-694.511C948.908,-690.431 938.717,-684.782 930.382,-677 790.607,-546.503 774.135,-292.967 772.648,-208.299"/>
<polygon fill="none" stroke="black" points="776.147,-208.121 772.53,-198.163 769.147,-208.203 776.147,-208.121"/>
</g>
<!-- \\classes\\entitiesManager\\UserChatRightEntityManager -->
<g id="node8" class="node"><title>\\classes\\entitiesManager\\UserChatRightEntityManager</title>
<polygon fill="none" stroke="black" points="1138.38,-668 946.382,-668 946.382,-632 1138.38,-632 1138.38,-668"/>
<text text-anchor="middle" x="1042.38" y="-647.2" font-family="Courier,monospace" font-size="11.00">UserChatRightEntityManager</text>
</g>
<!-- \\classes\\entitiesManager\\UserChatRightEntityManager&#45;&gt;\\abstracts\\EntityManager -->
<g id="edge13" class="edge"><title>\\classes\\entitiesManager\\UserChatRightEntityManager&#45;&gt;\\abstracts\\EntityManager</title>
<path fill="none" stroke="black" d="M947.253,-631.978C941.156,-628.627 935.443,-624.671 930.382,-620 806.223,-505.416 779.715,-286.169 774.145,-208.3"/>
<polygon fill="none" stroke="black" points="777.635,-208.026 773.49,-198.276 770.649,-208.483 777.635,-208.026"/>
</g>
<!-- \\classes\\entitiesManager\\GlobalEntityManager -->
<g id="node9" class="node"><title>\\classes\\entitiesManager\\GlobalEntityManager</title>
<polygon fill="none" stroke="black" points="1114.88,-938 969.882,-938 969.882,-902 1114.88,-902 1114.88,-938"/>
<text text-anchor="middle" x="1042.38" y="-917.2" font-family="Courier,monospace" font-size="11.00">GlobalEntityManager</text>
</g>
<!-- \\classes\\entitiesManager\\GlobalEntityManager&#45;&gt;\\abstracts\\EntityManager -->
<g id="edge23" class="edge"><title>\\classes\\entitiesManager\\GlobalEntityManager&#45;&gt;\\abstracts\\EntityManager</title>
<path fill="none" stroke="black" d="M969.851,-914.78C955.18,-910.613 940.997,-903.84 930.382,-893 831.679,-792.208 785.413,-327.805 775.008,-208.172"/>
<polygon fill="none" stroke="black" points="778.478,-207.663 774.138,-197.997 771.503,-208.259 778.478,-207.663"/>
</g>
<!-- \\classes\\entitiesManager\\ChatRoomBanEntityManager -->
<g id="node10" class="node"><title>\\classes\\entitiesManager\\ChatRoomBanEntityManager</title>
<polygon fill="none" stroke="black" points="1131.88,-884 952.882,-884 952.882,-848 1131.88,-848 1131.88,-884"/>
<text text-anchor="middle" x="1042.38" y="-863.2" font-family="Courier,monospace" font-size="11.00">ChatRoomBanEntityManager</text>
</g>
<!-- \\classes\\entitiesManager\\ChatRoomBanEntityManager&#45;&gt;\\abstracts\\EntityManager -->
<g id="edge24" class="edge"><title>\\classes\\entitiesManager\\ChatRoomBanEntityManager&#45;&gt;\\abstracts\\EntityManager</title>
<path fill="none" stroke="black" d="M952.844,-854.349C944.53,-850.475 936.821,-845.463 930.382,-839 838.587,-746.861 787.721,-322.247 775.563,-208.24"/>
<polygon fill="none" stroke="black" points="779.034,-207.778 774.508,-198.199 772.073,-208.51 779.034,-207.778"/>
</g>
<!-- \\classes\\entities\\UserChatRight -->
<g id="node11" class="node"><title>\\classes\\entities\\UserChatRight</title>
<polygon fill="none" stroke="black" points="1094.38,-1718 990.382,-1718 990.382,-1682 1094.38,-1682 1094.38,-1718"/>
<text text-anchor="middle" x="1042.38" y="-1697.2" font-family="Courier,monospace" font-size="11.00">UserChatRight</text>
</g>
<!-- \\abstracts\\Entity -->
<g id="node23" class="node"><title>\\abstracts\\Entity</title>
<polygon fill="none" stroke="black" points="813.691,-1422 729.691,-1422 729.691,-1386 813.691,-1386 813.691,-1422"/>
<text text-anchor="start" x="737.691" y="-1407.2" font-family="Courier,monospace" font-size="11.00">«abstract»</text>
<text text-anchor="start" x="751.191" y="-1395.2" font-family="Courier,monospace" font-size="11.00">Entity</text>
</g>
<!-- \\classes\\entities\\UserChatRight&#45;&gt;\\abstracts\\Entity -->
<g id="edge3" class="edge"><title>\\classes\\entities\\UserChatRight&#45;&gt;\\abstracts\\Entity</title>
<path fill="none" stroke="black" d="M990.355,-1698.97C969.199,-1695.94 946,-1688.79 930.382,-1673 852.757,-1594.5 951.181,-1510.31 874.382,-1431 861.194,-1417.38 841.986,-1410.37 823.807,-1406.84"/>
<polygon fill="none" stroke="black" points="824.291,-1403.37 813.858,-1405.22 823.165,-1410.28 824.291,-1403.37"/>
</g>
<!-- \\classes\\entities\\UserRight -->
<g id="node12" class="node"><title>\\classes\\entities\\UserRight</title>
<polygon fill="none" stroke="black" points="1080.88,-1664 1003.88,-1664 1003.88,-1628 1080.88,-1628 1080.88,-1664"/>
<text text-anchor="middle" x="1042.38" y="-1643.2" font-family="Courier,monospace" font-size="11.00">UserRight</text>
</g>
<!-- \\classes\\entities\\UserRight&#45;&gt;\\abstracts\\Entity -->
<g id="edge10" class="edge"><title>\\classes\\entities\\UserRight&#45;&gt;\\abstracts\\Entity</title>
<path fill="none" stroke="black" d="M1003.7,-1645.99C979.817,-1643.99 949.861,-1637.51 930.382,-1619 867.185,-1558.94 936.947,-1491.72 874.382,-1431 860.833,-1417.85 841.648,-1410.92 823.586,-1407.33"/>
<polygon fill="none" stroke="black" points="824.155,-1403.87 813.711,-1405.66 822.987,-1410.77 824.155,-1403.87"/>
</g>
<!-- \\classes\\entities\\User -->
<g id="node13" class="node"><title>\\classes\\entities\\User</title>
<polygon fill="none" stroke="black" points="1069.38,-1610 1015.38,-1610 1015.38,-1574 1069.38,-1574 1069.38,-1610"/>
<text text-anchor="middle" x="1042.38" y="-1589.2" font-family="Courier,monospace" font-size="11.00">User</text>
</g>
<!-- \\classes\\entities\\User&#45;&gt;\\abstracts\\Entity -->
<g id="edge12" class="edge"><title>\\classes\\entities\\User&#45;&gt;\\abstracts\\Entity</title>
<path fill="none" stroke="black" d="M1015.04,-1592.08C990.444,-1590.79 954.06,-1585.22 930.382,-1565 881.296,-1523.08 923.026,-1473.43 874.382,-1431 860.458,-1418.86 841.661,-1412.09 824.017,-1408.36"/>
<polygon fill="none" stroke="black" points="824.273,-1404.84 813.807,-1406.49 823.013,-1411.73 824.273,-1404.84"/>
</g>
<!-- \\classes\\entities\\ChatRoomBan -->
<g id="node14" class="node"><title>\\classes\\entities\\ChatRoomBan</title>
<polygon fill="none" stroke="black" points="1087.88,-1556 996.882,-1556 996.882,-1520 1087.88,-1520 1087.88,-1556"/>
<text text-anchor="middle" x="1042.38" y="-1535.2" font-family="Courier,monospace" font-size="11.00">ChatRoomBan</text>
</g>
<!-- \\classes\\entities\\ChatRoomBan&#45;&gt;\\abstracts\\Entity -->
<g id="edge20" class="edge"><title>\\classes\\entities\\ChatRoomBan&#45;&gt;\\abstracts\\Entity</title>
<path fill="none" stroke="black" d="M996.781,-1534.52C975.224,-1531.08 949.869,-1524.31 930.382,-1511 894.545,-1486.52 909.96,-1455.86 874.382,-1431 859.611,-1420.68 841.125,-1414.31 823.981,-1410.37"/>
<polygon fill="none" stroke="black" points="824.581,-1406.92 814.079,-1408.32 823.162,-1413.77 824.581,-1406.92"/>
</g>
<!-- \\classes\\entities\\ChatRoom -->
<g id="node15" class="node"><title>\\classes\\entities\\ChatRoom</title>
<polygon fill="none" stroke="black" points="1077.88,-1502 1006.88,-1502 1006.88,-1466 1077.88,-1466 1077.88,-1502"/>
<text text-anchor="middle" x="1042.38" y="-1481.2" font-family="Courier,monospace" font-size="11.00">ChatRoom</text>
</g>
<!-- \\classes\\entities\\ChatRoom&#45;&gt;\\abstracts\\Entity -->
<g id="edge22" class="edge"><title>\\classes\\entities\\ChatRoom&#45;&gt;\\abstracts\\Entity</title>
<path fill="none" stroke="black" d="M1006.87,-1477.43C984.703,-1472.76 955.466,-1465.78 930.382,-1457 904.481,-1447.94 900.186,-1440.33 874.382,-1431 858.166,-1425.13 840.08,-1419.92 823.71,-1415.68"/>
<polygon fill="none" stroke="black" points="824.323,-1412.23 813.77,-1413.17 822.607,-1419.01 824.323,-1412.23"/>
</g>
<!-- \\classes\\entities\\UserStatistic -->
<g id="node16" class="node"><title>\\classes\\entities\\UserStatistic</title>
<polygon fill="none" stroke="black" points="1094.38,-1448 990.382,-1448 990.382,-1412 1094.38,-1412 1094.38,-1448"/>
<text text-anchor="middle" x="1042.38" y="-1427.2" font-family="Courier,monospace" font-size="11.00">UserStatistic</text>
</g>
<!-- \\classes\\entities\\UserStatistic&#45;&gt;\\abstracts\\Entity -->
<g id="edge25" class="edge"><title>\\classes\\entities\\UserStatistic&#45;&gt;\\abstracts\\Entity</title>
<path fill="none" stroke="black" d="M990.211,-1425.05C942.548,-1420.44 871.858,-1413.6 824.114,-1408.98"/>
<polygon fill="none" stroke="black" points="824.284,-1405.48 813.993,-1408 823.61,-1412.44 824.284,-1405.48"/>
</g>
<!-- \\classes\\logger\\LogLevel -->
<g id="node17" class="node"><title>\\classes\\logger\\LogLevel</title>
<polygon fill="none" stroke="black" points="1077.88,-1368 1006.88,-1368 1006.88,-1332 1077.88,-1332 1077.88,-1368"/>
<text text-anchor="middle" x="1042.38" y="-1347.2" font-family="Courier,monospace" font-size="11.00">LogLevel</text>
</g>
<!-- \\classes\\logger\\ConsoleLogger -->
<g id="node18" class="node"><title>\\classes\\logger\\ConsoleLogger</title>
<polygon fill="none" stroke="black" points="1094.38,-1314 990.382,-1314 990.382,-1278 1094.38,-1278 1094.38,-1314"/>
<text text-anchor="middle" x="1042.38" y="-1293.2" font-family="Courier,monospace" font-size="11.00">ConsoleLogger</text>
</g>
<!-- \\abstracts\\AbstractLogger -->
<g id="node25" class="node"><title>\\abstracts\\AbstractLogger</title>
<polygon fill="none" stroke="black" points="827.191,-1314 716.191,-1314 716.191,-1278 827.191,-1278 827.191,-1314"/>
<text text-anchor="start" x="737.691" y="-1299.2" font-family="Courier,monospace" font-size="11.00">«abstract»</text>
<text text-anchor="start" x="724.191" y="-1287.2" font-family="Courier,monospace" font-size="11.00">AbstractLogger</text>
</g>
<!-- \\classes\\logger\\ConsoleLogger&#45;&gt;\\abstracts\\AbstractLogger -->
<g id="edge11" class="edge"><title>\\classes\\logger\\ConsoleLogger&#45;&gt;\\abstracts\\AbstractLogger</title>
<path fill="none" stroke="black" d="M990.211,-1296C946.803,-1296 884.298,-1296 837.419,-1296"/>
<polygon fill="none" stroke="black" points="837.366,-1292.5 827.366,-1296 837.366,-1299.5 837.366,-1292.5"/>
</g>
<!-- \\classes\\logger\\FileLogger -->
<g id="node19" class="node"><title>\\classes\\logger\\FileLogger</title>
<polygon fill="none" stroke="black" points="1084.38,-1260 1000.38,-1260 1000.38,-1224 1084.38,-1224 1084.38,-1260"/>
<text text-anchor="middle" x="1042.38" y="-1239.2" font-family="Courier,monospace" font-size="11.00">FileLogger</text>
</g>
<!-- \\classes\\logger\\FileLogger&#45;&gt;\\abstracts\\AbstractLogger -->
<g id="edge21" class="edge"><title>\\classes\\logger\\FileLogger&#45;&gt;\\abstracts\\AbstractLogger</title>
<path fill="none" stroke="black" d="M1000.28,-1250.26C956.867,-1258.99 887.82,-1272.86 837.152,-1283.04"/>
<polygon fill="none" stroke="black" points="836.391,-1279.63 827.276,-1285.03 837.77,-1286.49 836.391,-1279.63"/>
</g>
<!-- \\classes\\console\\Deployment -->
<g id="node20" class="node"><title>\\classes\\console\\Deployment</title>
<polygon fill="none" stroke="black" points="1084.38,-588 1000.38,-588 1000.38,-552 1084.38,-552 1084.38,-588"/>
<text text-anchor="middle" x="1042.38" y="-567.2" font-family="Courier,monospace" font-size="11.00">Deployment</text>
</g>
<!-- \\classes\\console\\Console -->
<g id="node46" class="node"><title>\\classes\\console\\Console</title>
<ellipse fill="none" stroke="black" cx="771.691" cy="-126" rx="102.882" ry="18"/>
<text text-anchor="middle" x="771.691" y="-122.3" font-family="Times New Roman,serif" font-size="14.00" fill="gray">\classes\console\Console</text>
</g>
<!-- \\classes\\console\\Deployment&#45;&gt;\\classes\\console\\Console -->
<g id="edge6" class="edge"><title>\\classes\\console\\Deployment&#45;&gt;\\classes\\console\\Console</title>
<path fill="none" stroke="black" d="M1000.33,-570.73C976.507,-568.851 947.85,-562.232 930.382,-543 812.643,-413.38 990.759,-283.845 874.382,-153 870.664,-148.82 866.38,-145.254 861.72,-142.214"/>
<polygon fill="none" stroke="black" points="863.396,-139.141 852.964,-137.293 859.966,-145.244 863.396,-139.141"/>
</g>
<!-- \\classes\\console\\ConsoleColors -->
<g id="node21" class="node"><title>\\classes\\console\\ConsoleColors</title>
<polygon fill="none" stroke="black" points="1094.38,-534 990.382,-534 990.382,-498 1094.38,-498 1094.38,-534"/>
<text text-anchor="middle" x="1042.38" y="-513.2" font-family="Courier,monospace" font-size="11.00">ConsoleColors</text>
</g>
<!-- \\classes\\fileManager\\SftpFileManager -->
<g id="node22" class="node"><title>\\classes\\fileManager\\SftpFileManager</title>
<polygon fill="none" stroke="black" points="1101.38,-1798 983.382,-1798 983.382,-1762 1101.38,-1762 1101.38,-1798"/>
<text text-anchor="middle" x="1042.38" y="-1777.2" font-family="Courier,monospace" font-size="11.00">SftpFileManager</text>
</g>
<!-- \\interfaces\\FileManagerInterface -->
<g id="node37" class="node"><title>\\interfaces\\FileManagerInterface</title>
<polygon fill="none" stroke="black" points="590.5,-1515 438.5,-1515 438.5,-1479 590.5,-1479 590.5,-1515"/>
<text text-anchor="middle" x="514.5" y="-1494.2" font-family="Courier,monospace" font-size="11.00">FileManagerInterface</text>
</g>
<!-- \\classes\\fileManager\\SftpFileManager&#45;&gt;\\interfaces\\FileManagerInterface -->
<g id="edge8" class="edge"><title>\\classes\\fileManager\\SftpFileManager&#45;&gt;\\interfaces\\FileManagerInterface</title>
<path fill="none" stroke="black" stroke-dasharray="1,5" d="M983.243,-1768.42C965.786,-1763.86 946.897,-1757.8 930.382,-1750 910.81,-1740.75 632.543,-1533.31 613,-1524 608.92,-1522.06 604.676,-1520.23 600.341,-1518.52"/>
<polygon fill="none" stroke="black" points="601.329,-1515.15 590.736,-1514.95 598.893,-1521.72 601.329,-1515.15"/>
</g>
<!-- \\abstracts\\API -->
<g id="node24" class="node"><title>\\abstracts\\API</title>
<polygon fill="none" stroke="black" points="813.691,-1476 729.691,-1476 729.691,-1440 813.691,-1440 813.691,-1476"/>
<text text-anchor="start" x="737.691" y="-1461.2" font-family="Courier,monospace" font-size="11.00">«abstract»</text>
<text text-anchor="start" x="761.191" y="-1449.2" font-family="Courier,monospace" font-size="11.00">API</text>
</g>
<!-- \\interfaces\\LoggerInterface -->
<g id="node38" class="node"><title>\\interfaces\\LoggerInterface</title>
<polygon fill="none" stroke="black" points="573.5,-1461 455.5,-1461 455.5,-1425 573.5,-1425 573.5,-1461"/>
<text text-anchor="middle" x="514.5" y="-1440.2" font-family="Courier,monospace" font-size="11.00">LoggerInterface</text>
</g>
<!-- \\abstracts\\AbstractLogger&#45;&gt;\\interfaces\\LoggerInterface -->
<g id="edge15" class="edge"><title>\\abstracts\\AbstractLogger&#45;&gt;\\interfaces\\LoggerInterface</title>
<path fill="none" stroke="black" stroke-dasharray="1,5" d="M716.173,-1306.17C700.47,-1310.23 683.638,-1315.72 669,-1323 619.168,-1347.78 569.985,-1390.28 541.2,-1417.48"/>
<polygon fill="none" stroke="black" points="538.442,-1415.28 533.639,-1424.72 543.283,-1420.33 538.442,-1415.28"/>
</g>
<!-- \\abstracts\\Manager -->
<g id="node26" class="node"><title>\\abstracts\\Manager</title>
<polygon fill="none" stroke="black" points="813.691,-1368 729.691,-1368 729.691,-1332 813.691,-1332 813.691,-1368"/>
<text text-anchor="start" x="737.691" y="-1353.2" font-family="Courier,monospace" font-size="11.00">«abstract»</text>
<text text-anchor="start" x="747.691" y="-1341.2" font-family="Courier,monospace" font-size="11.00">Manager</text>
</g>
<!-- \\Iterator -->
<g id="node47" class="node"><title>\\Iterator</title>
<ellipse fill="none" stroke="black" cx="514.5" cy="-72" rx="39.7935" ry="18"/>
<text text-anchor="middle" x="514.5" y="-68.3" font-family="Times New Roman,serif" font-size="14.00" fill="gray">\Iterator</text>
</g>
<!-- \\abstracts\\Collection&#45;&gt;\\Iterator -->
<g id="edge16" class="edge"><title>\\abstracts\\Collection&#45;&gt;\\Iterator</title>
<path fill="none" stroke="black" stroke-dasharray="1,5" d="M769.379,-1223.79C759.175,-1084.28 690.83,-187.942 613,-99 600.817,-85.0778 582.154,-78.0413 564.406,-74.5811"/>
<polygon fill="none" stroke="black" points="564.546,-71.0589 554.118,-72.9321 563.438,-77.9707 564.546,-71.0589"/>
</g>
<!-- \\ArrayAccess -->
<g id="node48" class="node"><title>\\ArrayAccess</title>
<ellipse fill="none" stroke="black" cx="514.5" cy="-18" rx="60.3893" ry="18"/>
<text text-anchor="middle" x="514.5" y="-14.3" font-family="Times New Roman,serif" font-size="14.00" fill="gray">\ArrayAccess</text>
</g>
<!-- \\abstracts\\Collection&#45;&gt;\\ArrayAccess -->
<g id="edge17" class="edge"><title>\\abstracts\\Collection&#45;&gt;\\ArrayAccess</title>
<path fill="none" stroke="black" stroke-dasharray="1,5" d="M769.501,-1223.85C759.972,-1080.84 694.327,-138.513 613,-45 605.076,-35.8884 594.376,-29.7235 582.963,-25.5797"/>
<polygon fill="none" stroke="black" points="583.842,-22.1876 573.253,-22.5539 581.759,-28.8706 583.842,-22.1876"/>
</g>
<!-- \\Countable -->
<g id="node49" class="node"><title>\\Countable</title>
<ellipse fill="none" stroke="black" cx="514.5" cy="-180" rx="50.0912" ry="18"/>
<text text-anchor="middle" x="514.5" y="-176.3" font-family="Times New Roman,serif" font-size="14.00" fill="gray">\Countable</text>
</g>
<!-- \\abstracts\\Collection&#45;&gt;\\Countable -->
<g id="edge18" class="edge"><title>\\abstracts\\Collection&#45;&gt;\\Countable</title>
<path fill="none" stroke="black" stroke-dasharray="1,5" d="M766.262,-1223.57C735.948,-1097.42 559.206,-361.884 522.266,-208.159"/>
<polygon fill="none" stroke="black" points="525.592,-207.018 519.852,-198.112 518.786,-208.653 525.592,-207.018"/>
</g>
<!-- \\SeekableIterator -->
<g id="node50" class="node"><title>\\SeekableIterator</title>
<ellipse fill="none" stroke="black" cx="514.5" cy="-126" rx="71.4873" ry="18"/>
<text text-anchor="middle" x="514.5" y="-122.3" font-family="Times New Roman,serif" font-size="14.00" fill="gray">\SeekableIterator</text>
</g>
<!-- \\abstracts\\Collection&#45;&gt;\\SeekableIterator -->
<g id="edge19" class="edge"><title>\\abstracts\\Collection&#45;&gt;\\SeekableIterator</title>
<path fill="none" stroke="black" stroke-dasharray="1,5" d="M770.674,-1223.8C770.187,-1094.99 761.068,-321.066 613,-153 606.775,-145.935 598.882,-140.645 590.292,-136.696"/>
<polygon fill="none" stroke="black" points="591.33,-133.342 580.744,-132.917 588.754,-139.851 591.33,-133.342"/>
</g>
<!-- \\abstracts\\AbstractController -->
<g id="node28" class="node"><title>\\abstracts\\AbstractController</title>
<polygon fill="none" stroke="black" points="840.691,-1530 702.691,-1530 702.691,-1494 840.691,-1494 840.691,-1530"/>
<text text-anchor="start" x="737.691" y="-1515.2" font-family="Courier,monospace" font-size="11.00">«abstract»</text>
<text text-anchor="start" x="710.691" y="-1503.2" font-family="Courier,monospace" font-size="11.00">AbstractController</text>
</g>
<!-- \\interfaces\\http\\ServerRequestInterface -->
<g id="node29" class="node"><title>\\interfaces\\http\\ServerRequestInterface</title>
<polygon fill="none" stroke="black" points="597,-1785 432,-1785 432,-1749 597,-1749 597,-1785"/>
<text text-anchor="middle" x="514.5" y="-1764.2" font-family="Courier,monospace" font-size="11.00">ServerRequestInterface</text>
</g>
<!-- \\interfaces\\http\\RequestInterface -->
<g id="node30" class="node"><title>\\interfaces\\http\\RequestInterface</title>
<polygon fill="none" stroke="black" points="357,-1785 232,-1785 232,-1749 357,-1749 357,-1785"/>
<text text-anchor="middle" x="294.5" y="-1764.2" font-family="Courier,monospace" font-size="11.00">RequestInterface</text>
</g>
<!-- \\interfaces\\http\\ServerRequestInterface&#45;&gt;\\interfaces\\http\\RequestInterface -->
<g id="edge28" class="edge"><title>\\interfaces\\http\\ServerRequestInterface&#45;&gt;\\interfaces\\http\\RequestInterface</title>
<path fill="none" stroke="black" d="M431.705,-1767C410.62,-1767 388.085,-1767 367.537,-1767"/>
<polygon fill="none" stroke="black" points="367.31,-1763.5 357.31,-1767 367.31,-1770.5 367.31,-1763.5"/>
</g>
<!-- \\interfaces\\http\\MessageInterface -->
<g id="node35" class="node"><title>\\interfaces\\http\\MessageInterface</title>
<polygon fill="none" stroke="black" points="157,-1758 32,-1758 32,-1722 157,-1722 157,-1758"/>
<text text-anchor="middle" x="94.5" y="-1737.2" font-family="Courier,monospace" font-size="11.00">MessageInterface</text>
</g>
<!-- \\interfaces\\http\\RequestInterface&#45;&gt;\\interfaces\\http\\MessageInterface -->
<g id="edge29" class="edge"><title>\\interfaces\\http\\RequestInterface&#45;&gt;\\interfaces\\http\\MessageInterface</title>
<path fill="none" stroke="black" d="M231.937,-1758.61C211.357,-1755.8 188.245,-1752.65 166.975,-1749.75"/>
<polygon fill="none" stroke="black" points="167.406,-1746.27 157.025,-1748.39 166.46,-1753.21 167.406,-1746.27"/>
</g>
<!-- \\interfaces\\http\\ResponseInterface -->
<g id="node31" class="node"><title>\\interfaces\\http\\ResponseInterface</title>
<polygon fill="none" stroke="black" points="360,-1731 229,-1731 229,-1695 360,-1695 360,-1731"/>
<text text-anchor="middle" x="294.5" y="-1710.2" font-family="Courier,monospace" font-size="11.00">ResponseInterface</text>
</g>
<!-- \\interfaces\\http\\ResponseInterface&#45;&gt;\\interfaces\\http\\MessageInterface -->
<g id="edge30" class="edge"><title>\\interfaces\\http\\ResponseInterface&#45;&gt;\\interfaces\\http\\MessageInterface</title>
<path fill="none" stroke="black" d="M228.941,-1721.8C209.247,-1724.49 187.475,-1727.46 167.33,-1730.2"/>
<polygon fill="none" stroke="black" points="166.712,-1726.76 157.277,-1731.58 167.658,-1733.69 166.712,-1726.76"/>
</g>
<!-- \\interfaces\\http\\UploadedFileInterface -->
<g id="node32" class="node"><title>\\interfaces\\http\\UploadedFileInterface</title>
<polygon fill="none" stroke="black" points="593.5,-1731 435.5,-1731 435.5,-1695 593.5,-1695 593.5,-1731"/>
<text text-anchor="middle" x="514.5" y="-1710.2" font-family="Courier,monospace" font-size="11.00">UploadedFileInterface</text>
</g>
<!-- \\interfaces\\http\\StreamInterface -->
<g id="node33" class="node"><title>\\interfaces\\http\\StreamInterface</title>
<polygon fill="none" stroke="black" points="573.5,-1677 455.5,-1677 455.5,-1641 573.5,-1641 573.5,-1677"/>
<text text-anchor="middle" x="514.5" y="-1656.2" font-family="Courier,monospace" font-size="11.00">StreamInterface</text>
</g>
<!-- \\interfaces\\http\\UriInterface -->
<g id="node34" class="node"><title>\\interfaces\\http\\UriInterface</title>
<polygon fill="none" stroke="black" points="563.5,-1623 465.5,-1623 465.5,-1587 563.5,-1587 563.5,-1623"/>
<text text-anchor="middle" x="514.5" y="-1602.2" font-family="Courier,monospace" font-size="11.00">UriInterface</text>
</g>
<!-- \\interfaces\\ServiceInterface -->
<g id="node36" class="node"><title>\\interfaces\\ServiceInterface</title>
<polygon fill="none" stroke="black" points="577,-1569 452,-1569 452,-1533 577,-1533 577,-1569"/>
<text text-anchor="middle" x="514.5" y="-1548.2" font-family="Courier,monospace" font-size="11.00">ServiceInterface</text>
</g>
<!-- \\traits\\PrettyOutputTrait -->
<g id="node39" class="node"><title>\\traits\\PrettyOutputTrait</title>
<polygon fill="none" stroke="black" points="1107.88,-446 976.882,-446 976.882,-410 1107.88,-410 1107.88,-446"/>
<text text-anchor="middle" x="1042.38" y="-425.2" font-family="Courier,monospace" font-size="11.00">PrettyOutputTrait</text>
</g>
<!-- \\traits\\EchoTrait -->
<g id="node40" class="node"><title>\\traits\\EchoTrait</title>
<polygon fill="none" stroke="black" points="1080.88,-392 1003.88,-392 1003.88,-356 1080.88,-356 1080.88,-392"/>
<text text-anchor="middle" x="1042.38" y="-371.2" font-family="Courier,monospace" font-size="11.00">EchoTrait</text>
</g>
<!-- \\traits\\ShortcutsTrait -->
<g id="node41" class="node"><title>\\traits\\ShortcutsTrait</title>
<polygon fill="none" stroke="black" points="1097.88,-338 986.882,-338 986.882,-302 1097.88,-302 1097.88,-338"/>
<text text-anchor="middle" x="1042.38" y="-317.2" font-family="Courier,monospace" font-size="11.00">ShortcutsTrait</text>
</g>
<!-- \\tests\\Traits -->
<g id="node42" class="node"><title>\\tests\\Traits</title>
<polygon fill="none" stroke="black" points="1070.88,-258 1013.88,-258 1013.88,-222 1070.88,-222 1070.88,-258"/>
<text text-anchor="middle" x="1042.38" y="-237.2" font-family="Courier,monospace" font-size="11.00">Traits</text>
</g>
<!-- \\controllers\\KibanaController -->
<g id="node43" class="node"><title>\\controllers\\KibanaController</title>
<polygon fill="none" stroke="black" points="1104.88,-1960 979.882,-1960 979.882,-1924 1104.88,-1924 1104.88,-1960"/>
<text text-anchor="middle" x="1042.38" y="-1939.2" font-family="Courier,monospace" font-size="11.00">KibanaController</text>
</g>
<!-- \\controllers\\KibanaController&#45;&gt;\\abstracts\\AbstractController -->
<g id="edge26" class="edge"><title>\\controllers\\KibanaController&#45;&gt;\\abstracts\\AbstractController</title>
<path fill="none" stroke="black" d="M979.712,-1937.67C962.123,-1933.8 944.046,-1926.94 930.382,-1915 813.884,-1813.19 782.772,-1614.4 775.059,-1540.54"/>
<polygon fill="none" stroke="black" points="778.503,-1539.79 774.047,-1530.18 771.536,-1540.47 778.503,-1539.79"/>
</g>
<!-- \\controllers\\UserController -->
<g id="node44" class="node"><title>\\controllers\\UserController</title>
<polygon fill="none" stroke="black" points="1097.88,-1906 986.882,-1906 986.882,-1870 1097.88,-1870 1097.88,-1906"/>
<text text-anchor="middle" x="1042.38" y="-1885.2" font-family="Courier,monospace" font-size="11.00">UserController</text>
</g>
<!-- \\controllers\\UserController&#45;&gt;\\abstracts\\AbstractController -->
<g id="edge27" class="edge"><title>\\controllers\\UserController&#45;&gt;\\abstracts\\AbstractController</title>
<path fill="none" stroke="black" d="M991.421,-1869.98C970.585,-1860.56 947.342,-1847.32 930.382,-1830 844.976,-1742.77 797.321,-1600.11 780.134,-1540.05"/>
<polygon fill="none" stroke="black" points="783.431,-1538.84 777.366,-1530.16 776.689,-1540.73 783.431,-1538.84"/>
</g>
</g>
</svg>
