<?xml version="1.0" encoding="UTF-8" standalone="no"?>
<!DOCTYPE svg PUBLIC "-//W3C//DTD SVG 1.1//EN"
 "http://www.w3.org/Graphics/SVG/1.1/DTD/svg11.dtd">
<!-- Generated by graphviz version 2.38.0 (20140413.2041)
 -->
<!-- Title: G Pages: 1 -->
<svg width="1178pt" height="1810pt"
 viewBox="0.00 0.00 1178.38 1810.00" xmlns="http://www.w3.org/2000/svg" xmlns:xlink="http://www.w3.org/1999/xlink">
<g id="graph0" class="graph" transform="scale(1 1) rotate(0) translate(4 1806)">
<title>G</title>
<polygon fill="white" stroke="none" points="-4,4 -4,-1806 1174.38,-1806 1174.38,4 -4,4"/>
<g id="clust1" class="cluster"><title>cluster_Global</title>
<path fill="none" stroke="gray" d="M20,-314C20,-314 1150.38,-314 1150.38,-314 1156.38,-314 1162.38,-320 1162.38,-326 1162.38,-326 1162.38,-1782 1162.38,-1782 1162.38,-1788 1156.38,-1794 1150.38,-1794 1150.38,-1794 20,-1794 20,-1794 14,-1794 8,-1788 8,-1782 8,-1782 8,-326 8,-326 8,-320 14,-314 20,-314"/>
<text text-anchor="middle" x="585.191" y="-1781.2" font-family="Times New Roman,serif" font-size="11.00" fill="gray">Global</text>
</g>
<g id="clust2" class="cluster"><title>cluster_\classes</title>
<path fill="none" stroke="gray" d="M942.382,-536C942.382,-536 1142.38,-536 1142.38,-536 1148.38,-536 1154.38,-542 1154.38,-548 1154.38,-548 1154.38,-1754 1154.38,-1754 1154.38,-1760 1148.38,-1766 1142.38,-1766 1142.38,-1766 942.382,-1766 942.382,-1766 936.382,-1766 930.382,-1760 930.382,-1754 930.382,-1754 930.382,-548 930.382,-548 930.382,-542 936.382,-536 942.382,-536"/>
<text text-anchor="middle" x="1042.38" y="-1753.2" font-family="Times New Roman,serif" font-size="11.00" fill="gray">classes</text>
</g>
<g id="clust3" class="cluster"><title>cluster_\classes\entitiesCollection</title>
<path fill="none" stroke="gray" d="M960.382,-1370C960.382,-1370 1124.38,-1370 1124.38,-1370 1130.38,-1370 1136.38,-1376 1136.38,-1382 1136.38,-1382 1136.38,-1592 1136.38,-1592 1136.38,-1598 1130.38,-1604 1124.38,-1604 1124.38,-1604 960.382,-1604 960.382,-1604 954.382,-1604 948.382,-1598 948.382,-1592 948.382,-1592 948.382,-1382 948.382,-1382 948.382,-1376 954.382,-1370 960.382,-1370"/>
<text text-anchor="middle" x="1042.38" y="-1591.2" font-family="Times New Roman,serif" font-size="11.00" fill="gray">entitiesCollection</text>
</g>
<g id="clust4" class="cluster"><title>cluster_\classes\logger</title>
<path fill="none" stroke="gray" d="M1004.38,-1612C1004.38,-1612 1080.38,-1612 1080.38,-1612 1086.38,-1612 1092.38,-1618 1092.38,-1624 1092.38,-1624 1092.38,-1726 1092.38,-1726 1092.38,-1732 1086.38,-1738 1080.38,-1738 1080.38,-1738 1004.38,-1738 1004.38,-1738 998.382,-1738 992.382,-1732 992.382,-1726 992.382,-1726 992.382,-1624 992.382,-1624 992.382,-1618 998.382,-1612 1004.38,-1612"/>
<text text-anchor="middle" x="1042.38" y="-1725.2" font-family="Times New Roman,serif" font-size="11.00" fill="gray">logger</text>
</g>
<g id="clust5" class="cluster"><title>cluster_\classes\entitiesManager</title>
<path fill="none" stroke="gray" d="M950.382,-1182C950.382,-1182 1134.38,-1182 1134.38,-1182 1140.38,-1182 1146.38,-1188 1146.38,-1194 1146.38,-1194 1146.38,-1350 1146.38,-1350 1146.38,-1356 1140.38,-1362 1134.38,-1362 1134.38,-1362 950.382,-1362 950.382,-1362 944.382,-1362 938.382,-1356 938.382,-1350 938.382,-1350 938.382,-1194 938.382,-1194 938.382,-1188 944.382,-1182 950.382,-1182"/>
<text text-anchor="middle" x="1042.38" y="-1349.2" font-family="Times New Roman,serif" font-size="11.00" fill="gray">entitiesManager</text>
</g>
<g id="clust6" class="cluster"><title>cluster_\classes\console</title>
<path fill="none" stroke="gray" d="M1004.38,-1048C1004.38,-1048 1080.38,-1048 1080.38,-1048 1086.38,-1048 1092.38,-1054 1092.38,-1060 1092.38,-1060 1092.38,-1162 1092.38,-1162 1092.38,-1168 1086.38,-1174 1080.38,-1174 1080.38,-1174 1004.38,-1174 1004.38,-1174 998.382,-1174 992.382,-1168 992.382,-1162 992.382,-1162 992.382,-1060 992.382,-1060 992.382,-1054 998.382,-1048 1004.38,-1048"/>
<text text-anchor="middle" x="1042.38" y="-1161.2" font-family="Times New Roman,serif" font-size="11.00" fill="gray">console</text>
</g>
<g id="clust7" class="cluster"><title>cluster_\classes\entities</title>
<path fill="none" stroke="gray" d="M994.382,-806C994.382,-806 1090.38,-806 1090.38,-806 1096.38,-806 1102.38,-812 1102.38,-818 1102.38,-818 1102.38,-1028 1102.38,-1028 1102.38,-1034 1096.38,-1040 1090.38,-1040 1090.38,-1040 994.382,-1040 994.382,-1040 988.382,-1040 982.382,-1034 982.382,-1028 982.382,-1028 982.382,-818 982.382,-818 982.382,-812 988.382,-806 994.382,-806"/>
<text text-anchor="middle" x="1042.38" y="-1027.2" font-family="Times New Roman,serif" font-size="11.00" fill="gray">entities</text>
</g>
<g id="clust8" class="cluster"><title>cluster_\interfaces</title>
<path fill="none" stroke="gray" d="M28,-484C28,-484 601,-484 601,-484 607,-484 613,-490 613,-496 613,-496 613,-842 613,-842 613,-848 607,-854 601,-854 601,-854 28,-854 28,-854 22,-854 16,-848 16,-842 16,-842 16,-496 16,-496 16,-490 22,-484 28,-484"/>
<text text-anchor="middle" x="314.5" y="-841.2" font-family="Times New Roman,serif" font-size="11.00" fill="gray">interfaces</text>
</g>
<g id="clust9" class="cluster"><title>cluster_\interfaces\http</title>
<path fill="none" stroke="gray" d="M36,-592C36,-592 593,-592 593,-592 599,-592 605,-598 605,-604 605,-604 605,-814 605,-814 605,-820 599,-826 593,-826 593,-826 36,-826 36,-826 30,-826 24,-820 24,-814 24,-814 24,-604 24,-604 24,-598 30,-592 36,-592"/>
<text text-anchor="middle" x="314.5" y="-813.2" font-family="Times New Roman,serif" font-size="11.00" fill="gray">http</text>
</g>
<g id="clust12" class="cluster"><title>cluster_\tests</title>
<path fill="none" stroke="gray" d="M1017.88,-456C1017.88,-456 1066.88,-456 1066.88,-456 1072.88,-456 1078.88,-462 1078.88,-468 1078.88,-468 1078.88,-516 1078.88,-516 1078.88,-522 1072.88,-528 1066.88,-528 1066.88,-528 1017.88,-528 1017.88,-528 1011.88,-528 1005.88,-522 1005.88,-516 1005.88,-516 1005.88,-468 1005.88,-468 1005.88,-462 1011.88,-456 1017.88,-456"/>
<text text-anchor="middle" x="1042.38" y="-515.2" font-family="Times New Roman,serif" font-size="11.00" fill="gray">tests</text>
</g>
<g id="clust11" class="cluster"><title>cluster_\abstracts</title>
<path fill="none" stroke="gray" d="M706.691,-376C706.691,-376 836.691,-376 836.691,-376 842.691,-376 848.691,-382 848.691,-388 848.691,-388 848.691,-544 848.691,-544 848.691,-550 842.691,-556 836.691,-556 836.691,-556 706.691,-556 706.691,-556 700.691,-556 694.691,-550 694.691,-544 694.691,-544 694.691,-388 694.691,-388 694.691,-382 700.691,-376 706.691,-376"/>
<text text-anchor="middle" x="771.691" y="-543.2" font-family="Times New Roman,serif" font-size="11.00" fill="gray">abstracts</text>
</g>
<g id="clust10" class="cluster"><title>cluster_\controllers</title>
<path fill="none" stroke="gray" d="M983.882,-322C983.882,-322 1100.88,-322 1100.88,-322 1106.88,-322 1112.88,-328 1112.88,-334 1112.88,-334 1112.88,-436 1112.88,-436 1112.88,-442 1106.88,-448 1100.88,-448 1100.88,-448 983.882,-448 983.882,-448 977.882,-448 971.882,-442 971.882,-436 971.882,-436 971.882,-334 971.882,-334 971.882,-328 977.882,-322 983.882,-322"/>
<text text-anchor="middle" x="1042.38" y="-435.2" font-family="Times New Roman,serif" font-size="11.00" fill="gray">controllers</text>
</g>
<!-- \\classes\\entitiesCollection\\UserChatRightCollection -->
<g id="node1" class="node"><title>\\classes\\entitiesCollection\\UserChatRightCollection</title>
<polygon fill="none" stroke="black" points="1128.38,-1576 956.382,-1576 956.382,-1540 1128.38,-1540 1128.38,-1576"/>
<text text-anchor="middle" x="1042.38" y="-1555.2" font-family="Courier,monospace" font-size="11.00">UserChatRightCollection</text>
</g>
<!-- \\abstracts\\Collection -->
<g id="node36" class="node"><title>\\abstracts\\Collection</title>
<ellipse fill="none" stroke="black" cx="771.691" cy="-288" rx="85.2851" ry="18"/>
<text text-anchor="middle" x="771.691" y="-284.3" font-family="Times New Roman,serif" font-size="14.00" fill="gray">\abstracts\Collection</text>
</g>
<!-- \\classes\\entitiesCollection\\UserChatRightCollection&#45;&gt;\\abstracts\\Collection -->
<g id="edge1" class="edge"><title>\\classes\\entitiesCollection\\UserChatRightCollection&#45;&gt;\\abstracts\\Collection</title>
<path fill="none" stroke="black" d="M956.124,-1549.64C946.247,-1545.34 937.264,-1539.33 930.382,-1531 848.291,-1431.58 932.119,-487.277 874.382,-372 861.164,-345.61 835.479,-324.501 813.23,-310.044"/>
<polygon fill="none" stroke="black" points="814.924,-306.975 804.589,-304.642 811.213,-312.911 814.924,-306.975"/>
</g>
<!-- \\classes\\entitiesCollection\\ChatRoomCollection -->
<g id="node2" class="node"><title>\\classes\\entitiesCollection\\ChatRoomCollection</title>
<polygon fill="none" stroke="black" points="1111.38,-1522 973.382,-1522 973.382,-1486 1111.38,-1486 1111.38,-1522"/>
<text text-anchor="middle" x="1042.38" y="-1501.2" font-family="Courier,monospace" font-size="11.00">ChatRoomCollection</text>
</g>
<!-- \\classes\\entitiesCollection\\ChatRoomCollection&#45;&gt;\\abstracts\\Collection -->
<g id="edge2" class="edge"><title>\\classes\\entitiesCollection\\ChatRoomCollection&#45;&gt;\\abstracts\\Collection</title>
<path fill="none" stroke="black" d="M973.355,-1501.34C956.979,-1497.33 941.131,-1489.99 930.382,-1477 851.995,-1382.3 929.565,-481.854 874.382,-372 861.133,-345.626 835.448,-324.516 813.207,-310.055"/>
<polygon fill="none" stroke="black" points="814.903,-306.988 804.569,-304.651 811.191,-312.922 814.903,-306.988"/>
</g>
<!-- \\classes\\entitiesCollection\\ChatRoomBanCollection -->
<g id="node3" class="node"><title>\\classes\\entitiesCollection\\ChatRoomBanCollection</title>
<polygon fill="none" stroke="black" points="1121.38,-1468 963.382,-1468 963.382,-1432 1121.38,-1432 1121.38,-1468"/>
<text text-anchor="middle" x="1042.38" y="-1447.2" font-family="Courier,monospace" font-size="11.00">ChatRoomBanCollection</text>
</g>
<!-- \\classes\\entitiesCollection\\ChatRoomBanCollection&#45;&gt;\\abstracts\\Collection -->
<g id="edge5" class="edge"><title>\\classes\\entitiesCollection\\ChatRoomBanCollection&#45;&gt;\\abstracts\\Collection</title>
<path fill="none" stroke="black" d="M963.369,-1444.4C950.689,-1440.05 938.931,-1433.3 930.382,-1423 855.699,-1333.01 927.011,-476.432 874.382,-372 861.099,-345.643 835.414,-324.533 813.182,-310.068"/>
<polygon fill="none" stroke="black" points="814.881,-307.003 804.548,-304.662 811.166,-312.936 814.881,-307.003"/>
</g>
<!-- \\classes\\entitiesCollection\\UserCollection -->
<g id="node4" class="node"><title>\\classes\\entitiesCollection\\UserCollection</title>
<polygon fill="none" stroke="black" points="1097.88,-1414 986.882,-1414 986.882,-1378 1097.88,-1378 1097.88,-1414"/>
<text text-anchor="middle" x="1042.38" y="-1393.2" font-family="Courier,monospace" font-size="11.00">UserCollection</text>
</g>
<!-- \\classes\\entitiesCollection\\UserCollection&#45;&gt;\\abstracts\\Collection -->
<g id="edge11" class="edge"><title>\\classes\\entitiesCollection\\UserCollection&#45;&gt;\\abstracts\\Collection</title>
<path fill="none" stroke="black" d="M986.599,-1394.3C965.842,-1390.7 943.964,-1382.74 930.382,-1366 791.001,-1194.19 974.248,-569.417 874.382,-372 861.059,-345.663 835.374,-324.553 813.152,-310.083"/>
<polygon fill="none" stroke="black" points="814.855,-307.02 804.523,-304.675 811.138,-312.951 814.855,-307.02"/>
</g>
<!-- \\classes\\logger\\LogLevel -->
<g id="node5" class="node"><title>\\classes\\logger\\LogLevel</title>
<polygon fill="none" stroke="black" points="1077.88,-1710 1006.88,-1710 1006.88,-1674 1077.88,-1674 1077.88,-1710"/>
<text text-anchor="middle" x="1042.38" y="-1689.2" font-family="Courier,monospace" font-size="11.00">LogLevel</text>
</g>
<!-- \\classes\\logger\\FileLogger -->
<g id="node6" class="node"><title>\\classes\\logger\\FileLogger</title>
<polygon fill="none" stroke="black" points="1084.38,-1656 1000.38,-1656 1000.38,-1620 1084.38,-1620 1084.38,-1656"/>
<text text-anchor="middle" x="1042.38" y="-1635.2" font-family="Courier,monospace" font-size="11.00">FileLogger</text>
</g>
<!-- \\abstracts\\AbstractLogger -->
<g id="node32" class="node"><title>\\abstracts\\AbstractLogger</title>
<polygon fill="none" stroke="black" points="827.191,-528 716.191,-528 716.191,-492 827.191,-492 827.191,-528"/>
<text text-anchor="start" x="737.691" y="-513.2" font-family="Courier,monospace" font-size="11.00">«abstract»</text>
<text text-anchor="start" x="724.191" y="-501.2" font-family="Courier,monospace" font-size="11.00">AbstractLogger</text>
</g>
<!-- \\classes\\logger\\FileLogger&#45;&gt;\\abstracts\\AbstractLogger -->
<g id="edge14" class="edge"><title>\\classes\\logger\\FileLogger&#45;&gt;\\abstracts\\AbstractLogger</title>
<path fill="none" stroke="black" d="M1000.23,-1637.53C976.378,-1634.98 947.718,-1627.58 930.382,-1608 784.198,-1442.91 773.364,-694.547 772.705,-538.548"/>
<polygon fill="none" stroke="black" points="776.204,-538.345 772.673,-528.356 769.204,-538.367 776.204,-538.345"/>
</g>
<!-- \\classes\\entitiesManager\\UserStatisticEntityManager -->
<g id="node7" class="node"><title>\\classes\\entitiesManager\\UserStatisticEntityManager</title>
<polygon fill="none" stroke="black" points="1138.38,-1334 946.382,-1334 946.382,-1298 1138.38,-1298 1138.38,-1334"/>
<text text-anchor="middle" x="1042.38" y="-1313.2" font-family="Courier,monospace" font-size="11.00">UserStatisticEntityManager</text>
</g>
<!-- \\abstracts\\EntityManager -->
<g id="node37" class="node"><title>\\abstracts\\EntityManager</title>
<ellipse fill="none" stroke="black" cx="771.691" cy="-234" rx="92.8835" ry="18"/>
<text text-anchor="middle" x="771.691" y="-230.3" font-family="Times New Roman,serif" font-size="14.00" fill="gray">\abstractsntityManager</text>
</g>
<!-- \\classes\\entitiesManager\\UserStatisticEntityManager&#45;&gt;\\abstracts\\EntityManager -->
<g id="edge3" class="edge"><title>\\classes\\entitiesManager\\UserStatisticEntityManager&#45;&gt;\\abstracts\\EntityManager</title>
<path fill="none" stroke="black" d="M945.957,-1302.31C940.116,-1298.72 934.818,-1294.34 930.382,-1289 784.171,-1113.03 1018.74,-438.485 874.382,-261 870.297,-255.978 865.395,-251.829 859.979,-248.408"/>
<polygon fill="none" stroke="black" points="861.553,-245.28 851.091,-243.61 858.228,-251.44 861.553,-245.28"/>
</g>
<!-- \\classes\\entitiesManager\\UserRightEntityManager -->
<g id="node8" class="node"><title>\\classes\\entitiesManager\\UserRightEntityManager</title>
<polygon fill="none" stroke="black" points="1124.88,-1280 959.882,-1280 959.882,-1244 1124.88,-1244 1124.88,-1280"/>
<text text-anchor="middle" x="1042.38" y="-1259.2" font-family="Courier,monospace" font-size="11.00">UserRightEntityManager</text>
</g>
<!-- \\classes\\entitiesManager\\UserRightEntityManager&#45;&gt;\\abstracts\\EntityManager -->
<g id="edge9" class="edge"><title>\\classes\\entitiesManager\\UserRightEntityManager&#45;&gt;\\abstracts\\EntityManager</title>
<path fill="none" stroke="black" d="M959.768,-1255.04C948.484,-1250.69 938.127,-1244.29 930.382,-1235 791.577,-1068.46 1011.44,-428.984 874.382,-261 870.29,-255.984 865.382,-251.84 859.963,-248.422"/>
<polygon fill="none" stroke="black" points="861.532,-245.292 851.069,-243.627 858.211,-251.454 861.532,-245.292"/>
</g>
<!-- \\classes\\entitiesManager\\GlobalEntityManager -->
<g id="node9" class="node"><title>\\classes\\entitiesManager\\GlobalEntityManager</title>
<polygon fill="none" stroke="black" points="1114.88,-1226 969.882,-1226 969.882,-1190 1114.88,-1190 1114.88,-1226"/>
<text text-anchor="middle" x="1042.38" y="-1205.2" font-family="Courier,monospace" font-size="11.00">GlobalEntityManager</text>
</g>
<!-- \\classes\\entitiesManager\\GlobalEntityManager&#45;&gt;\\abstracts\\EntityManager -->
<g id="edge18" class="edge"><title>\\classes\\entitiesManager\\GlobalEntityManager&#45;&gt;\\abstracts\\EntityManager</title>
<path fill="none" stroke="black" d="M969.859,-1202.34C954.731,-1197.76 940.346,-1190.22 930.382,-1178 801.389,-1019.76 1003.73,-418.957 874.382,-261 870.281,-255.992 865.366,-251.853 859.943,-248.438"/>
<polygon fill="none" stroke="black" points="861.508,-245.306 851.044,-243.648 858.19,-251.47 861.508,-245.306"/>
</g>
<!-- \\classes\\console\\Deployment -->
<g id="node10" class="node"><title>\\classes\\console\\Deployment</title>
<polygon fill="none" stroke="black" points="1084.38,-1146 1000.38,-1146 1000.38,-1110 1084.38,-1110 1084.38,-1146"/>
<text text-anchor="middle" x="1042.38" y="-1125.2" font-family="Courier,monospace" font-size="11.00">Deployment</text>
</g>
<!-- \\classes\\console\\Console -->
<g id="node38" class="node"><title>\\classes\\console\\Console</title>
<ellipse fill="none" stroke="black" cx="771.691" cy="-180" rx="102.882" ry="18"/>
<text text-anchor="middle" x="771.691" y="-176.3" font-family="Times New Roman,serif" font-size="14.00" fill="gray">\classes\console\Console</text>
</g>
<!-- \\classes\\console\\Deployment&#45;&gt;\\classes\\console\\Console -->
<g id="edge4" class="edge"><title>\\classes\\console\\Deployment&#45;&gt;\\classes\\console\\Console</title>
<path fill="none" stroke="black" d="M1000.32,-1129.26C976.18,-1127.62 947.194,-1121.07 930.382,-1101 802.547,-948.417 1000.61,-360.911 874.382,-207 870.994,-202.869 867.052,-199.329 862.728,-196.3"/>
<polygon fill="none" stroke="black" points="864.366,-193.202 853.985,-191.082 860.779,-199.213 864.366,-193.202"/>
</g>
<!-- \\classes\\console\\Orm -->
<g id="node11" class="node"><title>\\classes\\console\\Orm</title>
<polygon fill="none" stroke="black" points="1069.38,-1092 1015.38,-1092 1015.38,-1056 1069.38,-1056 1069.38,-1092"/>
<text text-anchor="middle" x="1042.38" y="-1071.2" font-family="Courier,monospace" font-size="11.00">Orm</text>
</g>
<!-- \\classes\\console\\Orm&#45;&gt;\\classes\\console\\Console -->
<g id="edge7" class="edge"><title>\\classes\\console\\Orm&#45;&gt;\\classes\\console\\Console</title>
<path fill="none" stroke="black" d="M1015.29,-1074.94C989.41,-1074.31 950.761,-1068.85 930.382,-1044 812.179,-899.851 992.904,-350.886 874.382,-207 870.985,-202.876 867.036,-199.342 862.707,-196.317"/>
<polygon fill="none" stroke="black" points="864.34,-193.215 853.957,-191.105 860.758,-199.23 864.34,-193.215"/>
</g>
<!-- \\classes\\entities\\UserRight -->
<g id="node12" class="node"><title>\\classes\\entities\\UserRight</title>
<polygon fill="none" stroke="black" points="1080.88,-1012 1003.88,-1012 1003.88,-976 1080.88,-976 1080.88,-1012"/>
<text text-anchor="middle" x="1042.38" y="-991.2" font-family="Courier,monospace" font-size="11.00">UserRight</text>
</g>
<!-- \\abstracts\\Entity -->
<g id="node40" class="node"><title>\\abstracts\\Entity</title>
<ellipse fill="none" stroke="black" cx="771.691" cy="-126" rx="61.99" ry="18"/>
<text text-anchor="middle" x="771.691" y="-122.3" font-family="Times New Roman,serif" font-size="14.00" fill="gray">\abstractsntity</text>
</g>
<!-- \\classes\\entities\\UserRight&#45;&gt;\\abstracts\\Entity -->
<g id="edge10" class="edge"><title>\\classes\\entities\\UserRight&#45;&gt;\\abstracts\\Entity</title>
<path fill="none" stroke="black" d="M1003.62,-995.416C978.9,-994.136 948.023,-987.925 930.382,-967 813.514,-828.373 989.794,-292.842 874.382,-153 866.171,-143.051 854.751,-136.536 842.518,-132.318"/>
<polygon fill="none" stroke="black" points="843.16,-128.859 832.579,-129.406 841.191,-135.577 843.16,-128.859"/>
</g>
<!-- \\classes\\entities\\ChatRoomBan -->
<g id="node13" class="node"><title>\\classes\\entities\\ChatRoomBan</title>
<polygon fill="none" stroke="black" points="1087.88,-958 996.882,-958 996.882,-922 1087.88,-922 1087.88,-958"/>
<text text-anchor="middle" x="1042.38" y="-937.2" font-family="Courier,monospace" font-size="11.00">ChatRoomBan</text>
</g>
<!-- \\classes\\entities\\ChatRoomBan&#45;&gt;\\abstracts\\Entity -->
<g id="edge13" class="edge"><title>\\classes\\entities\\ChatRoomBan&#45;&gt;\\abstracts\\Entity</title>
<path fill="none" stroke="black" d="M996.799,-940.91C973.462,-938.851 946.471,-931.991 930.382,-913 820.914,-783.79 982.492,-283.348 874.382,-153 866.147,-143.071 854.716,-136.565 842.48,-132.35"/>
<polygon fill="none" stroke="black" points="843.121,-128.89 832.54,-129.438 841.153,-135.608 843.121,-128.89"/>
</g>
<!-- \\classes\\entities\\ChatRoom -->
<g id="node14" class="node"><title>\\classes\\entities\\ChatRoom</title>
<polygon fill="none" stroke="black" points="1077.88,-904 1006.88,-904 1006.88,-868 1077.88,-868 1077.88,-904"/>
<text text-anchor="middle" x="1042.38" y="-883.2" font-family="Courier,monospace" font-size="11.00">ChatRoom</text>
</g>
<!-- \\classes\\entities\\ChatRoom&#45;&gt;\\abstracts\\Entity -->
<g id="edge16" class="edge"><title>\\classes\\entities\\ChatRoom&#45;&gt;\\abstracts\\Entity</title>
<path fill="none" stroke="black" d="M1006.87,-887.501C981.71,-886.564 948.904,-880.739 930.382,-859 828.313,-739.205 975.193,-273.856 874.382,-153 866.119,-143.094 854.676,-136.599 842.436,-132.386"/>
<polygon fill="none" stroke="black" points="843.076,-128.926 832.495,-129.476 841.109,-135.644 843.076,-128.926"/>
</g>
<!-- \\classes\\entities\\UserStatistic -->
<g id="node15" class="node"><title>\\classes\\entities\\UserStatistic</title>
<polygon fill="none" stroke="black" points="1094.38,-850 990.382,-850 990.382,-814 1094.38,-814 1094.38,-850"/>
<text text-anchor="middle" x="1042.38" y="-829.2" font-family="Courier,monospace" font-size="11.00">UserStatistic</text>
</g>
<!-- \\classes\\entities\\UserStatistic&#45;&gt;\\abstracts\\Entity -->
<g id="edge19" class="edge"><title>\\classes\\entities\\UserStatistic&#45;&gt;\\abstracts\\Entity</title>
<path fill="none" stroke="black" d="M990.315,-834.583C968.757,-832.821 945.253,-826.615 930.382,-810 832.657,-700.818 968.571,-265.246 874.382,-153 866.09,-143.118 854.634,-136.634 842.391,-132.424"/>
<polygon fill="none" stroke="black" points="843.029,-128.964 832.449,-129.515 841.063,-135.683 843.029,-128.964"/>
</g>
<!-- \\classes\\ThrowableManager -->
<g id="node16" class="node"><title>\\classes\\ThrowableManager</title>
<polygon fill="none" stroke="black" points="1104.88,-796 979.882,-796 979.882,-760 1104.88,-760 1104.88,-796"/>
<text text-anchor="middle" x="1042.38" y="-775.2" font-family="Courier,monospace" font-size="11.00">ThrowableManager</text>
</g>
<!-- \\classes\\ExceptionManager -->
<g id="node17" class="node"><title>\\classes\\ExceptionManager</title>
<polygon fill="none" stroke="black" points="1104.88,-742 979.882,-742 979.882,-706 1104.88,-706 1104.88,-742"/>
<text text-anchor="middle" x="1042.38" y="-721.2" font-family="Courier,monospace" font-size="11.00">ExceptionManager</text>
</g>
<!-- \\Exception -->
<g id="node39" class="node"><title>\\Exception</title>
<ellipse fill="none" stroke="black" cx="771.691" cy="-72" rx="42.4939" ry="18"/>
<text text-anchor="middle" x="771.691" y="-68.3" font-family="Times New Roman,serif" font-size="14.00" fill="gray">xception</text>
</g>
<!-- \\classes\\ExceptionManager&#45;&gt;\\Exception -->
<g id="edge8" class="edge"><title>\\classes\\ExceptionManager&#45;&gt;\\Exception</title>
<path fill="none" stroke="black" d="M979.804,-722.366C961.36,-718.725 942.768,-711.329 930.382,-697 843.1,-596.023 960.603,-200.884 874.382,-99 861.986,-84.3528 842.641,-77.18 824.137,-73.8138"/>
<polygon fill="none" stroke="black" points="824.397,-70.3143 813.992,-72.3121 823.372,-77.2389 824.397,-70.3143"/>
</g>
<!-- \\classes\\IniManager -->
<g id="node18" class="node"><title>\\classes\\IniManager</title>
<polygon fill="none" stroke="black" points="1084.38,-688 1000.38,-688 1000.38,-652 1084.38,-652 1084.38,-688"/>
<text text-anchor="middle" x="1042.38" y="-667.2" font-family="Courier,monospace" font-size="11.00">IniManager</text>
</g>
<!-- \\classes\\AssertionErrorManager -->
<g id="node19" class="node"><title>\\classes\\AssertionErrorManager</title>
<polygon fill="none" stroke="black" points="1121.38,-634 963.382,-634 963.382,-598 1121.38,-598 1121.38,-634"/>
<text text-anchor="middle" x="1042.38" y="-613.2" font-family="Courier,monospace" font-size="11.00">AssertionErrorManager</text>
</g>
<!-- \\AssertionError -->
<g id="node41" class="node"><title>\\AssertionError</title>
<ellipse fill="none" stroke="black" cx="771.691" cy="-18" rx="66.8882" ry="18"/>
<text text-anchor="middle" x="771.691" y="-14.3" font-family="Times New Roman,serif" font-size="14.00" fill="gray">\AssertionError</text>
</g>
<!-- \\classes\\AssertionErrorManager&#45;&gt;\\AssertionError -->
<g id="edge15" class="edge"><title>\\classes\\AssertionErrorManager&#45;&gt;\\AssertionError</title>
<path fill="none" stroke="black" d="M963.214,-609.856C950.708,-605.535 939.052,-598.938 930.382,-589 770.593,-405.851 1032.25,-229.81 874.382,-45 866.903,-36.245 856.942,-30.1645 846.174,-25.9723"/>
<polygon fill="none" stroke="black" points="847.14,-22.6048 836.546,-22.7545 844.921,-29.2438 847.14,-22.6048"/>
</g>
<!-- \\classes\\ImagesManager -->
<g id="node20" class="node"><title>\\classes\\ImagesManager</title>
<polygon fill="none" stroke="black" points="1094.38,-580 990.382,-580 990.382,-544 1094.38,-544 1094.38,-580"/>
<text text-anchor="middle" x="1042.38" y="-559.2" font-family="Courier,monospace" font-size="11.00">ImagesManager</text>
</g>
<!-- \\interfaces\\http\\ServerRequestInterface -->
<g id="node21" class="node"><title>\\interfaces\\http\\ServerRequestInterface</title>
<polygon fill="none" stroke="black" points="597,-798 432,-798 432,-762 597,-762 597,-798"/>
<text text-anchor="middle" x="514.5" y="-777.2" font-family="Courier,monospace" font-size="11.00">ServerRequestInterface</text>
</g>
<!-- \\interfaces\\http\\RequestInterface -->
<g id="node22" class="node"><title>\\interfaces\\http\\RequestInterface</title>
<polygon fill="none" stroke="black" points="357,-798 232,-798 232,-762 357,-762 357,-798"/>
<text text-anchor="middle" x="294.5" y="-777.2" font-family="Courier,monospace" font-size="11.00">RequestInterface</text>
</g>
<!-- \\interfaces\\http\\ServerRequestInterface&#45;&gt;\\interfaces\\http\\RequestInterface -->
<g id="edge20" class="edge"><title>\\interfaces\\http\\ServerRequestInterface&#45;&gt;\\interfaces\\http\\RequestInterface</title>
<path fill="none" stroke="black" d="M431.705,-780C410.62,-780 388.085,-780 367.537,-780"/>
<polygon fill="none" stroke="black" points="367.31,-776.5 357.31,-780 367.31,-783.5 367.31,-776.5"/>
</g>
<!-- \\interfaces\\http\\MessageInterface -->
<g id="node27" class="node"><title>\\interfaces\\http\\MessageInterface</title>
<polygon fill="none" stroke="black" points="157,-771 32,-771 32,-735 157,-735 157,-771"/>
<text text-anchor="middle" x="94.5" y="-750.2" font-family="Courier,monospace" font-size="11.00">MessageInterface</text>
</g>
<!-- \\interfaces\\http\\RequestInterface&#45;&gt;\\interfaces\\http\\MessageInterface -->
<g id="edge21" class="edge"><title>\\interfaces\\http\\RequestInterface&#45;&gt;\\interfaces\\http\\MessageInterface</title>
<path fill="none" stroke="black" d="M231.937,-771.605C211.357,-768.799 188.245,-765.647 166.975,-762.747"/>
<polygon fill="none" stroke="black" points="167.406,-759.273 157.025,-761.39 166.46,-766.209 167.406,-759.273"/>
</g>
<!-- \\interfaces\\http\\ResponseInterface -->
<g id="node23" class="node"><title>\\interfaces\\http\\ResponseInterface</title>
<polygon fill="none" stroke="black" points="360,-744 229,-744 229,-708 360,-708 360,-744"/>
<text text-anchor="middle" x="294.5" y="-723.2" font-family="Courier,monospace" font-size="11.00">ResponseInterface</text>
</g>
<!-- \\interfaces\\http\\ResponseInterface&#45;&gt;\\interfaces\\http\\MessageInterface -->
<g id="edge22" class="edge"><title>\\interfaces\\http\\ResponseInterface&#45;&gt;\\interfaces\\http\\MessageInterface</title>
<path fill="none" stroke="black" d="M228.941,-734.803C209.247,-737.489 187.475,-740.458 167.33,-743.205"/>
<polygon fill="none" stroke="black" points="166.712,-739.757 157.277,-744.576 167.658,-746.693 166.712,-739.757"/>
</g>
<!-- \\interfaces\\http\\UploadedFileInterface -->
<g id="node24" class="node"><title>\\interfaces\\http\\UploadedFileInterface</title>
<polygon fill="none" stroke="black" points="593.5,-744 435.5,-744 435.5,-708 593.5,-708 593.5,-744"/>
<text text-anchor="middle" x="514.5" y="-723.2" font-family="Courier,monospace" font-size="11.00">UploadedFileInterface</text>
</g>
<!-- \\interfaces\\http\\StreamInterface -->
<g id="node25" class="node"><title>\\interfaces\\http\\StreamInterface</title>
<polygon fill="none" stroke="black" points="573.5,-690 455.5,-690 455.5,-654 573.5,-654 573.5,-690"/>
<text text-anchor="middle" x="514.5" y="-669.2" font-family="Courier,monospace" font-size="11.00">StreamInterface</text>
</g>
<!-- \\interfaces\\http\\UriInterface -->
<g id="node26" class="node"><title>\\interfaces\\http\\UriInterface</title>
<polygon fill="none" stroke="black" points="563.5,-636 465.5,-636 465.5,-600 563.5,-600 563.5,-636"/>
<text text-anchor="middle" x="514.5" y="-615.2" font-family="Courier,monospace" font-size="11.00">UriInterface</text>
</g>
<!-- \\interfaces\\ServiceInterface -->
<g id="node28" class="node"><title>\\interfaces\\ServiceInterface</title>
<polygon fill="none" stroke="black" points="577,-582 452,-582 452,-546 577,-546 577,-582"/>
<text text-anchor="middle" x="514.5" y="-561.2" font-family="Courier,monospace" font-size="11.00">ServiceInterface</text>
</g>
<!-- \\interfaces\\LoggerInterface -->
<g id="node29" class="node"><title>\\interfaces\\LoggerInterface</title>
<polygon fill="none" stroke="black" points="573.5,-528 455.5,-528 455.5,-492 573.5,-492 573.5,-528"/>
<text text-anchor="middle" x="514.5" y="-507.2" font-family="Courier,monospace" font-size="11.00">LoggerInterface</text>
</g>
<!-- \\controllers\\UserController -->
<g id="node30" class="node"><title>\\controllers\\UserController</title>
<polygon fill="none" stroke="black" points="1097.88,-420 986.882,-420 986.882,-384 1097.88,-384 1097.88,-420"/>
<text text-anchor="middle" x="1042.38" y="-399.2" font-family="Courier,monospace" font-size="11.00">UserController</text>
</g>
<!-- \\abstracts\\AbstractController -->
<g id="node34" class="node"><title>\\abstracts\\AbstractController</title>
<polygon fill="none" stroke="black" points="840.691,-420 702.691,-420 702.691,-384 840.691,-384 840.691,-420"/>
<text text-anchor="start" x="737.691" y="-405.2" font-family="Courier,monospace" font-size="11.00">«abstract»</text>
<text text-anchor="start" x="710.691" y="-393.2" font-family="Courier,monospace" font-size="11.00">AbstractController</text>
</g>
<!-- \\controllers\\UserController&#45;&gt;\\abstracts\\AbstractController -->
<g id="edge6" class="edge"><title>\\controllers\\UserController&#45;&gt;\\abstracts\\AbstractController</title>
<path fill="none" stroke="black" d="M986.684,-402C947.762,-402 894.88,-402 851.425,-402"/>
<polygon fill="none" stroke="black" points="851.168,-398.5 841.168,-402 851.168,-405.5 851.168,-398.5"/>
</g>
<!-- \\controllers\\KibanaController -->
<g id="node31" class="node"><title>\\controllers\\KibanaController</title>
<polygon fill="none" stroke="black" points="1104.88,-366 979.882,-366 979.882,-330 1104.88,-330 1104.88,-366"/>
<text text-anchor="middle" x="1042.38" y="-345.2" font-family="Courier,monospace" font-size="11.00">KibanaController</text>
</g>
<!-- \\controllers\\KibanaController&#45;&gt;\\abstracts\\AbstractController -->
<g id="edge17" class="edge"><title>\\controllers\\KibanaController&#45;&gt;\\abstracts\\AbstractController</title>
<path fill="none" stroke="black" d="M979.739,-360.389C941.522,-368.069 892.073,-378.007 851.085,-386.245"/>
<polygon fill="none" stroke="black" points="850.244,-382.844 841.13,-388.246 851.623,-389.707 850.244,-382.844"/>
</g>
<!-- \\abstracts\\AbstractLogger&#45;&gt;\\interfaces\\LoggerInterface -->
<g id="edge12" class="edge"><title>\\abstracts\\AbstractLogger&#45;&gt;\\interfaces\\LoggerInterface</title>
<path fill="none" stroke="black" stroke-dasharray="1,5" d="M715.946,-510C677.251,-510 625.114,-510 583.712,-510"/>
<polygon fill="none" stroke="black" points="583.704,-506.5 573.704,-510 583.704,-513.5 583.704,-506.5"/>
</g>
<!-- \\abstracts\\Manager -->
<g id="node33" class="node"><title>\\abstracts\\Manager</title>
<polygon fill="none" stroke="black" points="813.691,-474 729.691,-474 729.691,-438 813.691,-438 813.691,-474"/>
<text text-anchor="start" x="737.691" y="-459.2" font-family="Courier,monospace" font-size="11.00">«abstract»</text>
<text text-anchor="start" x="747.691" y="-447.2" font-family="Courier,monospace" font-size="11.00">Manager</text>
</g>
<!-- \\tests\\Traits -->
<g id="node35" class="node"><title>\\tests\\Traits</title>
<polygon fill="none" stroke="black" points="1070.88,-500 1013.88,-500 1013.88,-464 1070.88,-464 1070.88,-500"/>
<text text-anchor="middle" x="1042.38" y="-479.2" font-family="Courier,monospace" font-size="11.00">Traits</text>
</g>
</g>
</svg>
